<?xml version="1.0" encoding="UTF-8" standalone="no"?>
<!-- Created with Inkscape (http://www.inkscape.org/) -->

<svg
   xmlns:dc="http://purl.org/dc/elements/1.1/"
   xmlns:cc="http://creativecommons.org/ns#"
   xmlns:rdf="http://www.w3.org/1999/02/22-rdf-syntax-ns#"
   xmlns:svg="http://www.w3.org/2000/svg"
   xmlns="http://www.w3.org/2000/svg"
   xmlns:sodipodi="http://sodipodi.sourceforge.net/DTD/sodipodi-0.dtd"
   xmlns:inkscape="http://www.inkscape.org/namespaces/inkscape"
   width="280.36731mm"
   height="44.893429mm"
   viewBox="0 0 993.42788 159.07121"
   id="svg2"
   version="1.1"
   inkscape:version="0.91 r13725"
   sodipodi:docname="ban_clapou.svg">
  <defs
     id="defs4" />
  <sodipodi:namedview
     id="base"
     pagecolor="#ffffff"
     bordercolor="#666666"
     borderopacity="1.0"
     inkscape:pageopacity="0.0"
     inkscape:pageshadow="2"
     inkscape:zoom="0.49497475"
     inkscape:cx="489.01682"
     inkscape:cy="357.01518"
     inkscape:document-units="px"
     inkscape:current-layer="layer1"
     showgrid="false"
     fit-margin-top="0"
     fit-margin-left="0"
     fit-margin-right="0"
     fit-margin-bottom="0"
     inkscape:window-width="1255"
     inkscape:window-height="755"
     inkscape:window-x="25"
     inkscape:window-y="1"
     inkscape:window-maximized="1" />
  <metadata
     id="metadata7">
    <rdf:RDF>
      <cc:Work
         rdf:about="">
        <dc:format>image/svg+xml</dc:format>
        <dc:type
           rdf:resource="http://purl.org/dc/dcmitype/StillImage" />
        <dc:title></dc:title>
      </cc:Work>
    </rdf:RDF>
  </metadata>
  <g
     inkscape:label="Layer 1"
     inkscape:groupmode="layer"
     id="layer1"
     transform="translate(361.19413,-1434.468)">
    <text
       xml:space="preserve"
       style="font-style:normal;font-variant:normal;font-weight:900;font-stretch:normal;font-size:40px;line-height:125%;font-family:'Arial Black';-inkscape-font-specification:'Arial Black, Heavy';text-align:start;letter-spacing:0px;word-spacing:0px;writing-mode:lr-tb;text-anchor:start;fill:#000000;fill-opacity:1;stroke:none;stroke-width:1px;stroke-linecap:butt;stroke-linejoin:miter;stroke-opacity:1"
       x="170.14603"
       y="843.02087"
       id="text9451"
       sodipodi:linespacing="125%"><tspan
         sodipodi:role="line"
         id="tspan9453"
         x="170.14603"
         y="843.02087" /></text>
    <g
       id="g11047"
       transform="matrix(1.5630531,0,0,1.5630531,-308.07313,-384.83986)">
      <path
         id="path10681"
         d="m -16.641367,1261.3818 0,-44 44,0 0,44 z"
         inkscape:connector-curvature="0"
         style="fill:none;stroke:#263873;stroke-width:1.39999998;stroke-linecap:round;stroke-linejoin:bevel;stroke-opacity:1" />
      <path
         id="path10683"
         d="m -5.641367,1217.3818 0,44"
         inkscape:connector-curvature="0"
         style="fill:none;stroke:#263873;stroke-width:1.39999998;stroke-linecap:round;stroke-linejoin:bevel;stroke-opacity:1" />
      <path
         id="path10685"
         d="m 5.358633,1261.3818 0,-44"
         inkscape:connector-curvature="0"
         style="fill:none;stroke:#263873;stroke-width:1.39999998;stroke-linecap:round;stroke-linejoin:bevel;stroke-opacity:1" />
      <path
         id="path10687"
         d="m 16.358633,1217.3818 0,44"
         inkscape:connector-curvature="0"
         style="fill:none;stroke:#263873;stroke-width:1.39999998;stroke-linecap:round;stroke-linejoin:bevel;stroke-opacity:1" />
      <path
         id="path10689"
         d="m -16.641367,1228.3818 44,0"
         inkscape:connector-curvature="0"
         style="fill:none;stroke:#263873;stroke-width:1.39999998;stroke-linecap:round;stroke-linejoin:bevel;stroke-opacity:1" />
      <path
         id="path10691"
         d="m -16.641367,1239.3818 44,0"
         inkscape:connector-curvature="0"
         style="fill:none;stroke:#263873;stroke-width:1.39999998;stroke-linecap:round;stroke-linejoin:bevel;stroke-opacity:1" />
      <path
         id="path10693"
         d="m -16.641367,1250.3818 44,0"
         inkscape:connector-curvature="0"
         style="fill:none;stroke:#263873;stroke-width:1.39999998;stroke-linecap:round;stroke-linejoin:bevel;stroke-opacity:1" />
      <path
         id="path10695"
         d="m -16.641367,1217.3818 0,11 11,0 0,-11 z"
         inkscape:connector-curvature="0"
         style="fill:#263873;fill-opacity:1;stroke:#263873;stroke-opacity:1" />
      <path
         id="path10697"
         d="m -5.641367,1228.3818 0,11 11,0 0,-11 z"
         inkscape:connector-curvature="0"
         style="fill:#263873;fill-opacity:1;stroke:#263873;stroke-opacity:1" />
      <path
         id="path10699"
         d="m 5.358633,1239.3818 0,11 11,0 0,-11 z"
         inkscape:connector-curvature="0"
         style="fill:#263873;fill-opacity:1;stroke:#263873;stroke-opacity:1" />
      <path
         id="path10701"
         d="m 16.358633,1250.3818 0,11 11,0 0,-11 z"
         inkscape:connector-curvature="0"
         style="fill:#263873;fill-opacity:1;stroke:#263873;stroke-opacity:1" />
      <path
         id="path10703"
         d="m 65.358633,1173.3818 24,0"
         inkscape:connector-curvature="0"
         style="fill:none;stroke:#263873;stroke-width:4.5999999;stroke-linecap:round;stroke-linejoin:bevel;stroke-miterlimit:4;stroke-dasharray:none;stroke-opacity:1" />
      <path
         id="path10705"
         d="m 65.358633,1201.3818 24,0"
         inkscape:connector-curvature="0"
         style="fill:none;stroke:#263873;stroke-width:4.5999999;stroke-linecap:round;stroke-linejoin:bevel;stroke-miterlimit:4;stroke-dasharray:none;stroke-opacity:1" />
      <path
         id="path10707"
         d="m 65.358633,1229.3818 24,0"
         inkscape:connector-curvature="0"
         style="fill:none;stroke:#263873;stroke-width:4.5999999;stroke-linecap:round;stroke-linejoin:bevel;stroke-miterlimit:4;stroke-dasharray:none;stroke-opacity:1" />
      <path
         id="path10709"
         d="m 65.358633,1253.3818 24,0"
         inkscape:connector-curvature="0"
         style="fill:none;stroke:#263873;stroke-width:4.5999999;stroke-linecap:round;stroke-linejoin:bevel;stroke-miterlimit:4;stroke-dasharray:none;stroke-opacity:1" />
      <path
         id="path10711"
         d="m -16.641367,1209.3818 0,-44 44,0 0,44 z"
         inkscape:connector-curvature="0"
         style="fill:none;stroke:#263873;stroke-width:1.39999998;stroke-linecap:round;stroke-linejoin:bevel;stroke-opacity:1" />
      <path
         id="path10713"
         d="m -5.641367,1165.3818 0,44"
         inkscape:connector-curvature="0"
         style="fill:none;stroke:#263873;stroke-width:1.39999998;stroke-linecap:round;stroke-linejoin:bevel;stroke-opacity:1" />
      <path
         id="path10715"
         d="m 5.358633,1209.3818 0,-44"
         inkscape:connector-curvature="0"
         style="fill:none;stroke:#263873;stroke-width:1.39999998;stroke-linecap:round;stroke-linejoin:bevel;stroke-opacity:1" />
      <path
         id="path10717"
         d="m 16.358633,1165.3818 0,44"
         inkscape:connector-curvature="0"
         style="fill:none;stroke:#263873;stroke-width:1.39999998;stroke-linecap:round;stroke-linejoin:bevel;stroke-opacity:1" />
      <path
         id="path10719"
         d="m -16.641367,1176.3818 44,0"
         inkscape:connector-curvature="0"
         style="fill:none;stroke:#263873;stroke-width:1.39999998;stroke-linecap:round;stroke-linejoin:bevel;stroke-opacity:1" />
      <path
         id="path10721"
         d="m -16.641367,1187.3818 44,0"
         inkscape:connector-curvature="0"
         style="fill:none;stroke:#263873;stroke-width:1.39999998;stroke-linecap:round;stroke-linejoin:bevel;stroke-opacity:1" />
      <path
         id="path10723"
         d="m -16.641367,1198.3818 44,0"
         inkscape:connector-curvature="0"
         style="fill:none;stroke:#263873;stroke-width:1.39999998;stroke-linecap:round;stroke-linejoin:bevel;stroke-opacity:1" />
      <path
         id="path10725"
         d="m -16.641367,1165.3818 0,11 11,0 0,-11 z"
         inkscape:connector-curvature="0"
         style="fill:#263873;fill-opacity:1;stroke:#263873;stroke-opacity:1" />
      <path
         id="path10727"
         d="m -5.641367,1176.3818 0,11 11,0 0,-11 z"
         inkscape:connector-curvature="0"
         style="fill:#263873;fill-opacity:1;stroke:#263873;stroke-opacity:1" />
      <path
         id="path10729"
         d="m 5.358633,1187.3818 0,11 11,0 0,-11 z"
         inkscape:connector-curvature="0"
         style="fill:#263873;fill-opacity:1;stroke:#263873;stroke-opacity:1" />
      <path
         id="path10731"
         d="m 16.358633,1198.3818 0,11 11,0 0,-11 z"
         inkscape:connector-curvature="0"
         style="fill:#263873;fill-opacity:1;stroke:#263873;stroke-opacity:1" />
      <path
         id="path10733"
         d="m 45.358633,1175.3818 8,-10 0,16"
         inkscape:connector-curvature="0"
         style="fill:none;stroke:#263873;stroke-width:4.5999999;stroke-linecap:round;stroke-linejoin:bevel;stroke-miterlimit:4;stroke-dasharray:none;stroke-opacity:1" />
      <path
         id="path10735"
         d="m 45.358633,1197.3818 c 6,-14 16,-4 2,10"
         inkscape:connector-curvature="0"
         style="fill:none;stroke:#263873;stroke-width:4.5999999;stroke-linecap:round;stroke-linejoin:bevel;stroke-miterlimit:4;stroke-dasharray:none;stroke-opacity:1" />
      <path
         id="path10737"
         d="m 47.358633,1207.3818 8,0"
         inkscape:connector-curvature="0"
         style="fill:none;stroke:#263873;stroke-width:4.5999999;stroke-linecap:round;stroke-linejoin:bevel;stroke-miterlimit:4;stroke-dasharray:none;stroke-opacity:1" />
      <path
         id="path10739"
         d="m 51.358633,1229.3818 c 10,-2 2,-18 -4,-6"
         inkscape:connector-curvature="0"
         style="fill:none;stroke:#263873;stroke-width:4.5999999;stroke-linecap:round;stroke-linejoin:bevel;stroke-miterlimit:4;stroke-dasharray:none;stroke-opacity:1" />
      <path
         id="path10741"
         d="m 51.358633,1229.3818 c 10,2 2,18 -4,6"
         inkscape:connector-curvature="0"
         style="fill:none;stroke:#263873;stroke-width:4.5999999;stroke-linecap:round;stroke-linejoin:bevel;stroke-miterlimit:4;stroke-dasharray:none;stroke-opacity:1" />
      <path
         id="path10743"
         d="m 45.358633,1257.3818 10,-10"
         inkscape:connector-curvature="0"
         style="fill:none;stroke:#263873;stroke-width:4.5999999;stroke-linecap:round;stroke-linejoin:bevel;stroke-miterlimit:4;stroke-dasharray:none;stroke-opacity:1" />
      <path
         id="path10745"
         d="m 45.358633,1257.3818 12,0"
         inkscape:connector-curvature="0"
         style="fill:none;stroke:#263873;stroke-width:4.5999999;stroke-linecap:round;stroke-linejoin:bevel;stroke-miterlimit:4;stroke-dasharray:none;stroke-opacity:1" />
      <path
         id="path10747"
         d="m 55.358633,1253.3818 0,10"
         inkscape:connector-curvature="0"
         style="fill:none;stroke:#263873;stroke-width:4.5999999;stroke-linecap:round;stroke-linejoin:bevel;stroke-miterlimit:4;stroke-dasharray:none;stroke-opacity:1" />
    </g>
    <path
       inkscape:connector-curvature="0"
       id="path7415"
       style="font-style:normal;font-variant:normal;font-weight:900;font-stretch:normal;font-size:medium;line-height:125%;font-family:'Arial Black';-inkscape-font-specification:'Arial Black, Heavy';text-align:start;letter-spacing:0px;word-spacing:0px;writing-mode:lr-tb;text-anchor:start;fill:#263873;fill-opacity:1;stroke:none;stroke-width:1px;stroke-linecap:butt;stroke-linejoin:miter;stroke-opacity:1"
       d="m -49.50683,1517.9574 21.484821,6.4941 q -2.164717,9.0377 -6.81886,15.0989 -4.654142,6.0612 -11.581238,9.146 -6.872978,3.0847 -17.534212,3.0847 -12.934187,0 -21.160113,-3.7341 -8.171808,-3.7883 -14.124782,-13.2589 -5.952976,-9.4707 -5.952976,-24.2449 0,-19.6989 10.444765,-30.2519 10.49888,-10.6071 29.65663,-10.6071 14.990668,0 23.541302,6.0612 8.604752,6.0612 12.771833,18.6166 l -21.647175,4.8165 q -1.136476,-3.6259 -2.381189,-5.3036 -2.056481,-2.8141 -5.032968,-4.3294 -2.976487,-1.5153 -6.656506,-1.5153 -8.334162,0 -12.771833,6.7106 -3.355312,4.9788 -3.355312,15.6401 0,13.2047 4.004727,18.1295 4.004727,4.8706 11.256531,4.8706 7.035332,0 10.607115,-3.9506 3.625902,-3.9506 5.24944,-11.473 z" />
    <path
       inkscape:connector-curvature="0"
       id="path7417"
       style="font-style:normal;font-variant:normal;font-weight:900;font-stretch:normal;font-size:medium;line-height:125%;font-family:'Arial Black';-inkscape-font-specification:'Arial Black, Heavy';text-align:start;letter-spacing:0px;word-spacing:0px;writing-mode:lr-tb;text-anchor:start;fill:#263873;fill-opacity:1;stroke:none;stroke-width:1px;stroke-linecap:butt;stroke-linejoin:miter;stroke-opacity:1"
       d="m -15.953705,1471.0371 24.5154249,0 0,59.8003 38.2613811,0 0,19.5366 -62.776806,0 0,-79.3369 z" />
    <path
       inkscape:connector-curvature="0"
       id="path7425"
       style="font-style:normal;font-variant:normal;font-weight:900;font-stretch:normal;font-size:medium;line-height:125%;font-family:'Arial Black';-inkscape-font-specification:'Arial Black, Heavy';text-align:start;letter-spacing:0px;word-spacing:0px;writing-mode:lr-tb;text-anchor:start;fill:#263873;fill-opacity:1;stroke:none;stroke-width:1px;stroke-linecap:butt;stroke-linejoin:miter;stroke-opacity:1"
       d="m 54.80093,1528.2939 23.54131,0 0,22.0801 -23.54131,0 0,-22.0801 z" />
    <path
       inkscape:connector-curvature="0"
       id="path7427"
       style="font-style:normal;font-variant:normal;font-weight:900;font-stretch:normal;font-size:medium;line-height:125%;font-family:'Arial Black';-inkscape-font-specification:'Arial Black, Heavy';text-align:start;letter-spacing:0px;word-spacing:0px;writing-mode:lr-tb;text-anchor:start;fill:#263873;fill-opacity:1;stroke:none;stroke-width:1px;stroke-linecap:butt;stroke-linejoin:miter;stroke-opacity:1"
       d="m 130.13309,1471.0371 40.75081,0 q 13.31301,0 19.9154,6.3318 6.6565,6.3318 6.6565,18.0213 0,12.0142 -7.2518,18.7789 -7.19769,6.7648 -22.026,6.7648 l -13.42125,0 0,29.4401 -24.62366,0 0,-79.3369 z m 24.62366,33.8237 6.00709,0 q 7.08945,0 9.9577,-2.4353 2.86825,-2.4894 2.86825,-6.3318 0,-3.7341 -2.48942,-6.3318 -2.48943,-2.5976 -9.36241,-2.5976 l -6.98121,0 0,17.6965 z" />
    <path
       inkscape:connector-curvature="0"
       id="path7429"
       style="font-style:normal;font-variant:normal;font-weight:900;font-stretch:normal;font-size:medium;line-height:125%;font-family:'Arial Black';-inkscape-font-specification:'Arial Black, Heavy';text-align:start;letter-spacing:0px;word-spacing:0px;writing-mode:lr-tb;text-anchor:start;fill:#263873;fill-opacity:1;stroke:none;stroke-width:1px;stroke-linecap:butt;stroke-linejoin:miter;stroke-opacity:1"
       d="m 207.25115,1510.7597 q 0,-19.4283 10.82358,-30.2519 10.82359,-10.8236 30.14369,-10.8236 19.80717,0 30.52252,10.6612 10.71535,10.6071 10.71535,29.7649 0,13.9083 -4.70826,22.8377 -4.65414,8.8754 -13.52948,13.8542 -8.82123,4.9248 -22.026,4.9248 -13.42125,0 -22.24248,-4.2753 -8.7671,-4.2754 -14.23301,-13.5295 -5.46591,-9.2542 -5.46591,-23.1625 z m 24.51542,0.1082 q 0,12.0142 4.43767,17.2637 4.49179,5.2494 12.17654,5.2494 7.90122,0 12.23065,-5.1412 4.32944,-5.1412 4.32944,-18.4542 0,-11.2024 -4.54591,-16.3436 -4.49179,-5.1954 -12.23065,-5.1954 -7.41416,0 -11.90595,5.2495 -4.49179,5.2494 -4.49179,17.3718 z" />
    <path
       inkscape:connector-curvature="0"
       id="path7431"
       style="font-style:normal;font-variant:normal;font-weight:900;font-stretch:normal;font-size:medium;line-height:125%;font-family:'Arial Black';-inkscape-font-specification:'Arial Black, Heavy';text-align:start;letter-spacing:0px;word-spacing:0px;writing-mode:lr-tb;text-anchor:start;fill:#263873;fill-opacity:1;stroke:none;stroke-width:1px;stroke-linecap:butt;stroke-linejoin:miter;stroke-opacity:1"
       d="m 354.39785,1471.0371 24.46131,0 0,47.2991 q 0,7.0353 -2.21884,13.313 -2.16471,6.2236 -6.87297,10.9318 -4.65415,4.6542 -9.79535,6.5483 -7.14357,2.6518 -17.15539,2.6518 -5.79062,0 -12.66359,-0.8118 -6.81886,-0.8117 -11.41889,-3.1929 -4.60002,-2.4353 -8.4424,-6.873 -3.78825,-4.4377 -5.19532,-9.1459 -2.27295,-7.5766 -2.27295,-13.4213 l 0,-47.2991 24.46131,0 0,48.4356 q 0,6.4941 3.57178,10.1742 3.6259,3.6259 10.01182,3.6259 6.3318,0 9.90358,-3.5718 3.6259,-3.6259 3.6259,-10.2283 l 0,-48.4356 z" />
    <path
       inkscape:connector-curvature="0"
       id="path7433"
       style="font-style:normal;font-variant:normal;font-weight:900;font-stretch:normal;font-size:medium;line-height:125%;font-family:'Arial Black';-inkscape-font-specification:'Arial Black, Heavy';text-align:start;letter-spacing:0px;word-spacing:0px;writing-mode:lr-tb;text-anchor:start;fill:#263873;fill-opacity:1;stroke:none;stroke-width:1px;stroke-linecap:butt;stroke-linejoin:miter;stroke-opacity:1"
       d="m 395.20275,1471.0371 24.51543,0 0,59.8003 38.26138,0 0,19.5366 -62.77681,0 0,-79.3369 z" />
    <path
       inkscape:connector-curvature="0"
       id="path7435"
       style="font-style:normal;font-variant:normal;font-weight:900;font-stretch:normal;font-size:medium;line-height:125%;font-family:'Arial Black';-inkscape-font-specification:'Arial Black, Heavy';text-align:start;letter-spacing:0px;word-spacing:0px;writing-mode:lr-tb;text-anchor:start;fill:#263873;fill-opacity:1;stroke:none;stroke-width:1px;stroke-linecap:butt;stroke-linejoin:miter;stroke-opacity:1"
       d="m 468.96553,1471.0371 65.69917,0 0,16.9389 -41.12963,0 0,12.6095 38.15315,0 0,16.1813 -38.15315,0 0,15.6401 42.32023,0 0,17.9671 -66.88977,0 0,-79.3369 z" />
    <path
       inkscape:connector-curvature="0"
       id="path7437"
       style="font-style:normal;font-variant:normal;font-weight:900;font-stretch:normal;font-size:medium;line-height:125%;font-family:'Arial Black';-inkscape-font-specification:'Arial Black, Heavy';text-align:start;letter-spacing:0px;word-spacing:0px;writing-mode:lr-tb;text-anchor:start;fill:#263873;fill-opacity:1;stroke:none;stroke-width:1px;stroke-linecap:butt;stroke-linejoin:miter;stroke-opacity:1"
       d="m 544.83881,1524.1268 23.32483,-1.4612 q 0.75765,5.6824 3.08472,8.6589 3.78826,4.8165 10.82359,4.8165 5.24944,0 8.06357,-2.4353 2.86825,-2.4894 2.86825,-5.7365 0,-3.0847 -2.70589,-5.52 -2.7059,-2.4353 -12.55536,-4.6001 -16.12715,-3.6259 -23.00013,-9.6329 -6.92709,-6.0071 -6.92709,-15.3154 0,-6.1154 3.51766,-11.5271 3.57179,-5.466 10.66124,-8.5507 7.14356,-3.1388 19.53657,-3.1388 15.20714,0 23.16248,5.6824 8.00945,5.6282 9.52476,17.9671 l -23.10836,1.353 q -0.92001,-5.3577 -3.8965,-7.793 -2.92236,-2.4353 -8.11769,-2.4353 -4.27531,0 -6.44003,1.84 -2.16472,1.7859 -2.16472,4.3835 0,1.8942 1.78589,3.4095 1.73178,1.5694 8.22593,2.9223 16.07303,3.4636 23.00012,7.0354 6.98122,3.5176 10.12006,8.7671 3.19296,5.2494 3.19296,11.7436 0,7.6306 -4.2212,14.0706 -4.2212,6.4401 -11.79771,9.7954 -7.57651,3.3012 -19.10363,3.3012 -20.24011,0 -28.0331,-7.793 -7.79298,-7.793 -8.82122,-19.8072 z" />
  </g>
</svg>
