<?xml version="1.0" encoding="UTF-8" standalone="no"?>
<!-- Created with Inkscape (http://www.inkscape.org/) -->

<svg
   xmlns:dc="http://purl.org/dc/elements/1.1/"
   xmlns:cc="http://creativecommons.org/ns#"
   xmlns:rdf="http://www.w3.org/1999/02/22-rdf-syntax-ns#"
   xmlns:svg="http://www.w3.org/2000/svg"
   xmlns="http://www.w3.org/2000/svg"
   xmlns:sodipodi="http://sodipodi.sourceforge.net/DTD/sodipodi-0.dtd"
   xmlns:inkscape="http://www.inkscape.org/namespaces/inkscape"
   width="239.98868mm"
   height="49.230164mm"
   viewBox="0 0 850.35359 174.43759"
   id="svg2"
   version="1.1"
   inkscape:version="0.91 r13725"
   sodipodi:docname="ban_tab.svg">
  <defs
     id="defs4" />
  <sodipodi:namedview
     id="base"
     pagecolor="#ffffff"
     bordercolor="#666666"
     borderopacity="1.0"
     inkscape:pageopacity="0.0"
     inkscape:pageshadow="2"
     inkscape:zoom="0.9899495"
     inkscape:cx="366.42794"
     inkscape:cy="1.5063382"
     inkscape:document-units="px"
     inkscape:current-layer="layer1"
     showgrid="false"
     fit-margin-top="0"
     fit-margin-left="0"
     fit-margin-right="0"
     fit-margin-bottom="0"
     inkscape:window-width="1255"
     inkscape:window-height="755"
     inkscape:window-x="25"
     inkscape:window-y="1"
     inkscape:window-maximized="1" />
  <metadata
     id="metadata7">
    <rdf:RDF>
      <cc:Work
         rdf:about="">
        <dc:format>image/svg+xml</dc:format>
        <dc:type
           rdf:resource="http://purl.org/dc/dcmitype/StillImage" />
        <dc:title></dc:title>
      </cc:Work>
    </rdf:RDF>
  </metadata>
  <g
     inkscape:label="Layer 1"
     inkscape:groupmode="layer"
     id="layer1"
     transform="translate(361.19419,-1813.4376)">
    <text
       xml:space="preserve"
       style="font-style:normal;font-variant:normal;font-weight:900;font-stretch:normal;font-size:40px;line-height:125%;font-family:'Arial Black';-inkscape-font-specification:'Arial Black, Heavy';text-align:start;letter-spacing:0px;word-spacing:0px;writing-mode:lr-tb;text-anchor:start;fill:#000000;fill-opacity:1;stroke:none;stroke-width:1px;stroke-linecap:butt;stroke-linejoin:miter;stroke-opacity:1"
       x="170.14603"
       y="843.02087"
       id="text9451"
       sodipodi:linespacing="125%"><tspan
         sodipodi:role="line"
         id="tspan9453"
         x="170.14603"
         y="843.02087" /></text>
    <g
       id="g10543"
       transform="matrix(1.5630531,0,0,1.5630531,-894.23828,-125.43385)">
      <path
         id="path10466"
         d="m 360.50149,1330.2389 39,0 0,19 -39,0"
         inkscape:connector-curvature="0"
         style="fill:none;stroke:#263873;stroke-width:5.5999999;stroke-linecap:round;stroke-linejoin:bevel;stroke-miterlimit:4;stroke-dasharray:none;stroke-opacity:1" />
      <path
         id="path10468"
         d="m 360.50149,1301.2389 39,0 0,19 -39,0"
         inkscape:connector-curvature="0"
         style="fill:none;stroke:#263873;stroke-width:5.5999999;stroke-linecap:round;stroke-linejoin:bevel;stroke-miterlimit:4;stroke-dasharray:none;stroke-opacity:1" />
      <path
         id="path10470"
         d="m 360.50149,1272.2389 39,0 0,19 -39,0"
         inkscape:connector-curvature="0"
         style="fill:none;stroke:#263873;stroke-width:5.5999999;stroke-linecap:round;stroke-linejoin:bevel;stroke-miterlimit:4;stroke-dasharray:none;stroke-opacity:1" />
      <path
         id="path10472"
         d="m 360.50149,1243.2389 39,0 0,19 -39,0"
         inkscape:connector-curvature="0"
         style="fill:none;stroke:#263873;stroke-width:5.5999999;stroke-linecap:round;stroke-linejoin:bevel;stroke-miterlimit:4;stroke-dasharray:none;stroke-opacity:1" />
      <path
         id="path10474"
         d="m 399.50149,1339.2389 38,0 0,-29 -38,0"
         inkscape:connector-curvature="0"
         style="fill:none;stroke:#263873;stroke-width:5.5999999;stroke-linecap:round;stroke-linejoin:bevel;stroke-miterlimit:4;stroke-dasharray:none;stroke-opacity:1" />
      <path
         id="path10476"
         d="m 399.50149,1282.2389 38,0 0,-29 -38,0"
         inkscape:connector-curvature="0"
         style="fill:none;stroke:#263873;stroke-width:5.5999999;stroke-linecap:round;stroke-linejoin:bevel;stroke-miterlimit:4;stroke-dasharray:none;stroke-opacity:1" />
      <path
         id="path10478"
         d="m 437.50149,1325.2389 19,0 0,-58 -19,0"
         inkscape:connector-curvature="0"
         style="fill:none;stroke:#263873;stroke-width:5.5999999;stroke-linecap:round;stroke-linejoin:bevel;stroke-miterlimit:4;stroke-dasharray:none;stroke-opacity:1" />
      <path
         id="path10480"
         d="m 456.50149,1296.2389 15,0"
         inkscape:connector-curvature="0"
         style="fill:none;stroke:#263873;stroke-width:5.5999999;stroke-linecap:round;stroke-linejoin:bevel;stroke-miterlimit:4;stroke-dasharray:none;stroke-opacity:1" />
    </g>
    <path
       inkscape:connector-curvature="0"
       id="path12182"
       style="font-style:normal;font-variant:normal;font-weight:900;font-stretch:normal;font-size:medium;line-height:125%;font-family:'Arial Black';-inkscape-font-specification:'Arial Black, Heavy';text-align:start;letter-spacing:0px;word-spacing:0px;writing-mode:lr-tb;text-anchor:start;fill:#263873;fill-opacity:1;stroke:none;stroke-width:1px;stroke-linecap:butt;stroke-linejoin:miter;stroke-opacity:1"
       d="m -85.194189,1860.2844 74.5204,0 0,19.5907 -25.002487,0 0,59.7462 -24.515425,0 0,-59.7462 -25.002488,0 0,-19.5907 z" />
    <path
       inkscape:connector-curvature="0"
       id="path12184"
       style="font-style:normal;font-variant:normal;font-weight:900;font-stretch:normal;font-size:medium;line-height:125%;font-family:'Arial Black';-inkscape-font-specification:'Arial Black, Heavy';text-align:start;letter-spacing:0px;word-spacing:0px;writing-mode:lr-tb;text-anchor:start;fill:#263873;fill-opacity:1;stroke:none;stroke-width:1px;stroke-linecap:butt;stroke-linejoin:miter;stroke-opacity:1"
       d="m 49.288882,1926.5248 -27.924855,0 -3.842374,13.0965 -25.0566048,0 29.8189838,-79.3369 26.73426,0 29.818983,79.3369 -25.651902,0 -3.896491,-13.0965 z m -5.141204,-17.1554 -8.767105,-28.5201 -8.712988,28.5201 17.480093,0 z" />
    <path
       inkscape:connector-curvature="0"
       id="path12186"
       style="font-style:normal;font-variant:normal;font-weight:900;font-stretch:normal;font-size:medium;line-height:125%;font-family:'Arial Black';-inkscape-font-specification:'Arial Black, Heavy';text-align:start;letter-spacing:0px;word-spacing:0px;writing-mode:lr-tb;text-anchor:start;fill:#263873;fill-opacity:1;stroke:none;stroke-width:1px;stroke-linecap:butt;stroke-linejoin:miter;stroke-opacity:1"
       d="m 86.684383,1860.2844 45.892007,0 q 11.473,0 17.58833,5.6824 6.16945,5.6824 6.16945,14.0707 0,7.0353 -4.38356,12.0683 -2.92237,3.3553 -8.55063,5.3035 8.55063,2.0565 12.55536,7.0895 4.05885,4.9788 4.05885,12.5554 0,6.1694 -2.86825,11.0941 -2.86826,4.9248 -7.84711,7.793 -3.08472,1.7859 -9.30828,2.5977 -8.28005,1.0823 -10.98594,1.0823 l -42.320227,0 0,-79.3369 z m 24.731897,31.1179 10.66123,0 q 5.7365,0 7.95534,-1.9483 2.27295,-2.0024 2.27295,-5.7365 0,-3.4635 -2.27295,-5.4118 -2.21884,-1.9482 -7.79298,-1.9482 l -10.82359,0 0,15.0448 z m 0,31.1719 12.50124,0 q 6.3318,0 8.92946,-2.2188 2.59766,-2.273 2.59766,-6.0613 0,-3.5176 -2.59766,-5.6282 -2.54354,-2.1647 -8.98358,-2.1647 l -12.44712,0 0,16.073 z" />
    <path
       inkscape:connector-curvature="0"
       id="path12188"
       style="font-style:normal;font-variant:normal;font-weight:900;font-stretch:normal;font-size:medium;line-height:125%;font-family:'Arial Black';-inkscape-font-specification:'Arial Black, Heavy';text-align:start;letter-spacing:0px;word-spacing:0px;writing-mode:lr-tb;text-anchor:start;fill:#263873;fill-opacity:1;stroke:none;stroke-width:1px;stroke-linecap:butt;stroke-linejoin:miter;stroke-opacity:1"
       d="m 173.00249,1860.2844 24.51542,0 0,59.8004 38.26138,0 0,19.5365 -62.7768,0 0,-79.3369 z" />
    <path
       inkscape:connector-curvature="0"
       id="path12190"
       style="font-style:normal;font-variant:normal;font-weight:900;font-stretch:normal;font-size:medium;line-height:125%;font-family:'Arial Black';-inkscape-font-specification:'Arial Black, Heavy';text-align:start;letter-spacing:0px;word-spacing:0px;writing-mode:lr-tb;text-anchor:start;fill:#263873;fill-opacity:1;stroke:none;stroke-width:1px;stroke-linecap:butt;stroke-linejoin:miter;stroke-opacity:1"
       d="m 246.76523,1860.2844 65.69918,0 0,16.939 -41.12963,0 0,12.6094 38.15314,0 0,16.1813 -38.15314,0 0,15.6401 42.32022,0 0,17.9671 -66.88977,0 0,-79.3369 z" />
    <path
       inkscape:connector-curvature="0"
       id="path12192"
       style="font-style:normal;font-variant:normal;font-weight:900;font-stretch:normal;font-size:medium;line-height:125%;font-family:'Arial Black';-inkscape-font-specification:'Arial Black, Heavy';text-align:start;letter-spacing:0px;word-spacing:0px;writing-mode:lr-tb;text-anchor:start;fill:#263873;fill-opacity:1;stroke:none;stroke-width:1px;stroke-linecap:butt;stroke-linejoin:miter;stroke-opacity:1"
       d="m 375.72827,1926.5248 -27.92485,0 -3.84238,13.0965 -25.0566,0 29.81898,-79.3369 26.73426,0 29.81899,79.3369 -25.65191,0 -3.89649,-13.0965 z m -5.1412,-17.1554 -8.76711,-28.5201 -8.71298,28.5201 17.48009,0 z" />
    <path
       inkscape:connector-curvature="0"
       id="path12194"
       style="font-style:normal;font-variant:normal;font-weight:900;font-stretch:normal;font-size:medium;line-height:125%;font-family:'Arial Black';-inkscape-font-specification:'Arial Black, Heavy';text-align:start;letter-spacing:0px;word-spacing:0px;writing-mode:lr-tb;text-anchor:start;fill:#263873;fill-opacity:1;stroke:none;stroke-width:1px;stroke-linecap:butt;stroke-linejoin:miter;stroke-opacity:1"
       d="m 464.69817,1860.2844 24.4613,0 0,47.2991 q 0,7.0354 -2.21883,13.313 -2.16472,6.2236 -6.87298,10.9319 -4.65414,4.6541 -9.79535,6.5482 -7.14356,2.6518 -17.15538,2.6518 -5.79062,0 -12.6636,-0.8118 -6.81886,-0.8117 -11.41888,-3.1929 -4.60003,-2.4353 -8.4424,-6.873 -3.78826,-4.4377 -5.19532,-9.1459 -2.27296,-7.5765 -2.27296,-13.4213 l 0,-47.2991 24.46131,0 0,48.4356 q 0,6.4941 3.57178,10.1742 3.62591,3.6259 10.01182,3.6259 6.3318,0 9.90359,-3.5718 3.6259,-3.6259 3.6259,-10.2283 l 0,-48.4356 z" />
  </g>
</svg>
