<?xml version="1.0" encoding="UTF-8" standalone="no"?>
<!-- Created with Inkscape (http://www.inkscape.org/) -->

<svg
   xmlns:dc="http://purl.org/dc/elements/1.1/"
   xmlns:cc="http://creativecommons.org/ns#"
   xmlns:rdf="http://www.w3.org/1999/02/22-rdf-syntax-ns#"
   xmlns:svg="http://www.w3.org/2000/svg"
   xmlns="http://www.w3.org/2000/svg"
   xmlns:sodipodi="http://sodipodi.sourceforge.net/DTD/sodipodi-0.dtd"
   xmlns:inkscape="http://www.inkscape.org/namespaces/inkscape"
   width="311.43979mm"
   height="45.274319mm"
   viewBox="0 0 1103.5268 160.42081"
   id="svg2"
   version="1.1"
   inkscape:version="0.91 r13725"
   sodipodi:docname="ban_clatab.svg">
  <defs
     id="defs4" />
  <sodipodi:namedview
     id="base"
     pagecolor="#ffffff"
     bordercolor="#666666"
     borderopacity="1.0"
     inkscape:pageopacity="0.0"
     inkscape:pageshadow="2"
     inkscape:zoom="0.36514966"
     inkscape:cx="551.72459"
     inkscape:cy="414.25709"
     inkscape:document-units="px"
     inkscape:current-layer="layer1"
     showgrid="false"
     fit-margin-top="0"
     fit-margin-left="0"
     fit-margin-right="0"
     fit-margin-bottom="0"
     inkscape:window-width="1255"
     inkscape:window-height="755"
     inkscape:window-x="25"
     inkscape:window-y="1"
     inkscape:window-maximized="1" />
  <metadata
     id="metadata7">
    <rdf:RDF>
      <cc:Work
         rdf:about="">
        <dc:format>image/svg+xml</dc:format>
        <dc:type
           rdf:resource="http://purl.org/dc/dcmitype/StillImage" />
        <dc:title></dc:title>
      </cc:Work>
    </rdf:RDF>
  </metadata>
  <g
     inkscape:label="Layer 1"
     inkscape:groupmode="layer"
     id="layer1"
     transform="translate(361.19419,-445.97068)">
    <text
       xml:space="preserve"
       style="font-style:normal;font-variant:normal;font-weight:900;font-stretch:normal;font-size:40px;line-height:125%;font-family:'Arial Black';-inkscape-font-specification:'Arial Black, Heavy';text-align:start;letter-spacing:0px;word-spacing:0px;writing-mode:lr-tb;text-anchor:start;fill:#000000;fill-opacity:1;stroke:none;stroke-width:1px;stroke-linecap:butt;stroke-linejoin:miter;stroke-opacity:1"
       x="170.14603"
       y="843.02087"
       id="text9451"
       sodipodi:linespacing="125%"><tspan
         sodipodi:role="line"
         id="tspan9453"
         x="170.14603"
         y="843.02087" /></text>
    <g
       id="g11025"
       transform="matrix(1.5630531,0,0,1.5630531,-312.75919,-1961.6392)">
      <path
         id="path10928"
         d="m -15.8592,1542.6253 12,0 0,16 -12,0"
         inkscape:connector-curvature="0"
         style="fill:none;stroke:#263873;stroke-width:4.5999999;stroke-linecap:round;stroke-linejoin:bevel;stroke-miterlimit:4;stroke-dasharray:none;stroke-opacity:1" />
      <path
         id="path10930"
         d="m -15.8592,1570.6253 12,0 0,16 -12,0"
         inkscape:connector-curvature="0"
         style="fill:none;stroke:#263873;stroke-width:4.5999999;stroke-linecap:round;stroke-linejoin:bevel;stroke-miterlimit:4;stroke-dasharray:none;stroke-opacity:1" />
      <path
         id="path10932"
         d="m -3.8592,1550.6253 12,0 0,28 -12,0"
         inkscape:connector-curvature="0"
         style="fill:none;stroke:#263873;stroke-width:4.5999999;stroke-linecap:round;stroke-linejoin:bevel;stroke-miterlimit:4;stroke-dasharray:none;stroke-opacity:1" />
      <path
         id="path10934"
         d="m -15.8592,1594.6253 12,0 0,16 -12,0"
         inkscape:connector-curvature="0"
         style="fill:none;stroke:#263873;stroke-width:4.5999999;stroke-linecap:round;stroke-linejoin:bevel;stroke-miterlimit:4;stroke-dasharray:none;stroke-opacity:1" />
      <path
         id="path10936"
         d="m -15.8592,1622.6253 12,0 0,16 -12,0"
         inkscape:connector-curvature="0"
         style="fill:none;stroke:#263873;stroke-width:4.5999999;stroke-linecap:round;stroke-linejoin:bevel;stroke-miterlimit:4;stroke-dasharray:none;stroke-opacity:1" />
      <path
         id="path10938"
         d="m -3.8592,1602.6253 12,0 0,28 -12,0"
         inkscape:connector-curvature="0"
         style="fill:none;stroke:#263873;stroke-width:4.5999999;stroke-linecap:round;stroke-linejoin:bevel;stroke-miterlimit:4;stroke-dasharray:none;stroke-opacity:1" />
      <path
         id="path10940"
         d="m 8.1408,1564.6253 8,0 0,52 -8,0"
         inkscape:connector-curvature="0"
         style="fill:none;stroke:#263873;stroke-width:4.5999999;stroke-linecap:round;stroke-linejoin:bevel;stroke-miterlimit:4;stroke-dasharray:none;stroke-opacity:1" />
      <path
         id="path10942"
         d="m 24.1408,1590.6253 -8,0"
         inkscape:connector-curvature="0"
         style="fill:none;stroke:#263873;stroke-width:4.5999999;stroke-linecap:round;stroke-linejoin:bevel;stroke-miterlimit:4;stroke-dasharray:none;stroke-opacity:1" />
      <path
         id="path10944"
         d="m 68.1408,1550.6253 24,0"
         inkscape:connector-curvature="0"
         style="fill:none;stroke:#263873;stroke-width:4.5999999;stroke-linecap:round;stroke-linejoin:bevel;stroke-miterlimit:4;stroke-dasharray:none;stroke-opacity:1" />
      <path
         id="path10946"
         d="m 68.1408,1578.6253 24,0"
         inkscape:connector-curvature="0"
         style="fill:none;stroke:#263873;stroke-width:4.5999999;stroke-linecap:round;stroke-linejoin:bevel;stroke-miterlimit:4;stroke-dasharray:none;stroke-opacity:1" />
      <path
         id="path10948"
         d="m 68.1408,1606.6253 24,0"
         inkscape:connector-curvature="0"
         style="fill:none;stroke:#263873;stroke-width:4.5999999;stroke-linecap:round;stroke-linejoin:bevel;stroke-miterlimit:4;stroke-dasharray:none;stroke-opacity:1" />
      <path
         id="path10950"
         d="m 68.1408,1630.6253 24,0"
         inkscape:connector-curvature="0"
         style="fill:none;stroke:#263873;stroke-width:4.5999999;stroke-linecap:round;stroke-linejoin:bevel;stroke-miterlimit:4;stroke-dasharray:none;stroke-opacity:1" />
      <path
         id="path10952"
         d="m 48.1408,1552.6253 8,-10 0,16"
         inkscape:connector-curvature="0"
         style="fill:none;stroke:#263873;stroke-width:4.5999999;stroke-linecap:round;stroke-linejoin:bevel;stroke-miterlimit:4;stroke-dasharray:none;stroke-opacity:1" />
      <path
         id="path10954"
         d="m 48.1408,1574.6253 c 6,-14 16,-4 2,10"
         inkscape:connector-curvature="0"
         style="fill:none;stroke:#263873;stroke-width:4.5999999;stroke-linecap:round;stroke-linejoin:bevel;stroke-miterlimit:4;stroke-dasharray:none;stroke-opacity:1" />
      <path
         id="path10956"
         d="m 50.1408,1584.6253 8,0"
         inkscape:connector-curvature="0"
         style="fill:none;stroke:#263873;stroke-width:4.5999999;stroke-linecap:round;stroke-linejoin:bevel;stroke-miterlimit:4;stroke-dasharray:none;stroke-opacity:1" />
      <path
         id="path10958"
         d="m 54.1408,1606.6253 c 10,-2 2,-18 -4,-6"
         inkscape:connector-curvature="0"
         style="fill:none;stroke:#263873;stroke-width:4.5999999;stroke-linecap:round;stroke-linejoin:bevel;stroke-miterlimit:4;stroke-dasharray:none;stroke-opacity:1" />
      <path
         id="path10960"
         d="m 54.1408,1606.6253 c 10,2 2,18 -4,6"
         inkscape:connector-curvature="0"
         style="fill:none;stroke:#263873;stroke-width:4.5999999;stroke-linecap:round;stroke-linejoin:bevel;stroke-miterlimit:4;stroke-dasharray:none;stroke-opacity:1" />
      <path
         id="path10962"
         d="m 48.1408,1634.6253 10,-10"
         inkscape:connector-curvature="0"
         style="fill:none;stroke:#263873;stroke-width:4.5999999;stroke-linecap:round;stroke-linejoin:bevel;stroke-miterlimit:4;stroke-dasharray:none;stroke-opacity:1" />
      <path
         id="path10964"
         d="m 48.1408,1634.6253 12,0"
         inkscape:connector-curvature="0"
         style="fill:none;stroke:#263873;stroke-width:4.5999999;stroke-linecap:round;stroke-linejoin:bevel;stroke-miterlimit:4;stroke-dasharray:none;stroke-opacity:1" />
      <path
         id="path10966"
         d="m 58.1408,1630.6253 0,10"
         inkscape:connector-curvature="0"
         style="fill:none;stroke:#263873;stroke-width:4.5999999;stroke-linecap:round;stroke-linejoin:bevel;stroke-miterlimit:4;stroke-dasharray:none;stroke-opacity:1" />
    </g>
    <g
       style="font-style:normal;font-variant:normal;font-weight:900;font-stretch:normal;font-size:110.83353424px;line-height:125%;font-family:'Arial Black';-inkscape-font-specification:'Arial Black, Heavy';text-align:start;letter-spacing:0px;word-spacing:0px;writing-mode:lr-tb;text-anchor:start;fill:#263873;fill-opacity:1;stroke:none;stroke-width:1px;stroke-linecap:butt;stroke-linejoin:miter;stroke-opacity:1"
       id="text11019">
      <path
         d="m -37.50683,534.83842 21.484821,6.49415 q -2.164717,9.0377 -6.81886,15.09891 -4.654142,6.06121 -11.581238,9.14593 -6.872978,3.08472 -17.534212,3.08472 -12.934187,0 -21.160113,-3.73414 -8.171808,-3.78825 -14.124782,-13.25889 -5.952973,-9.47064 -5.952973,-24.24484 0,-19.69892 10.444762,-30.25192 10.49888,-10.60712 29.65663,-10.60712 14.990668,0 23.541302,6.06121 8.604752,6.06121 12.771833,18.61657 l -21.647175,4.8165 q -1.136476,-3.6259 -2.381189,-5.30356 -2.056481,-2.81413 -5.032968,-4.32943 -2.976487,-1.51531 -6.656506,-1.51531 -8.334162,0 -12.771833,6.71063 -3.355312,4.97885 -3.355312,15.64008 0,13.20478 4.004727,18.12951 4.004727,4.87061 11.256531,4.87061 7.035332,0 10.607115,-3.95061 3.625902,-3.9506 5.24944,-11.473 z"
         style=""
         id="path7059" />
      <path
         d="m -3.9537054,487.91817 24.5154254,0 0,59.80032 38.261381,0 0,19.53658 -62.7768064,0 0,-79.3369 z"
         style=""
         id="path7061" />
      <path
         d="m 118.67753,554.15853 -27.924855,0 -3.842374,13.09654 -25.056605,0 29.818983,-79.3369 26.734261,0 29.81898,79.3369 -25.6519,0 -3.89649,-13.09654 z m -5.1412,-17.15539 -8.76711,-28.52015 -8.712988,28.52015 17.480098,0 z"
         style=""
         id="path7063" />
      <path
         d="m 151.7436,541.00787 23.32483,-1.46119 q 0.75765,5.68239 3.08472,8.65887 3.78825,4.8165 10.82359,4.8165 5.24944,0 8.06357,-2.43531 2.86825,-2.48942 2.86825,-5.7365 0,-3.08472 -2.7059,-5.52003 -2.70589,-2.43531 -12.55536,-4.60002 -16.12714,-3.62591 -23.00012,-9.633 -6.9271,-6.00709 -6.9271,-15.31537 0,-6.11533 3.51767,-11.52712 3.57178,-5.46591 10.66123,-8.55064 7.14357,-3.13884 19.53658,-3.13884 15.20714,0 23.16247,5.68239 8.00946,5.62826 9.52476,17.96715 l -23.10836,1.35295 q -0.92,-5.35768 -3.89649,-7.79298 -2.92237,-2.43531 -8.11769,-2.43531 -4.27532,0 -6.44003,1.84001 -2.16472,1.78589 -2.16472,4.38355 0,1.89413 1.78589,3.40943 1.73177,1.56942 8.22593,2.92237 16.07302,3.46355 23.00012,7.03533 6.98121,3.51767 10.12005,8.76711 3.19296,5.24944 3.19296,11.74359 0,7.63063 -4.2212,14.07066 -4.2212,6.44004 -11.79771,9.79535 -7.57651,3.30119 -19.10363,3.30119 -20.24011,0 -28.03309,-7.79298 -7.79298,-7.79298 -8.82122,-19.80716 z"
         style=""
         id="path7065" />
      <path
         d="m 231.83814,541.00787 23.32483,-1.46119 q 0.75765,5.68239 3.08472,8.65887 3.78826,4.8165 10.82359,4.8165 5.24944,0 8.06357,-2.43531 2.86825,-2.48942 2.86825,-5.7365 0,-3.08472 -2.70589,-5.52003 -2.7059,-2.43531 -12.55537,-4.60002 -16.12714,-3.62591 -23.00012,-9.633 -6.92709,-6.00709 -6.92709,-15.31537 0,-6.11533 3.51766,-11.52712 3.57179,-5.46591 10.66124,-8.55064 7.14356,-3.13884 19.53657,-3.13884 15.20714,0 23.16248,5.68239 8.00945,5.62826 9.52475,17.96715 l -23.10835,1.35295 q -0.92001,-5.35768 -3.8965,-7.79298 -2.92237,-2.43531 -8.11769,-2.43531 -4.27531,0 -6.44003,1.84001 -2.16472,1.78589 -2.16472,4.38355 0,1.89413 1.78589,3.40943 1.73178,1.56942 8.22593,2.92237 16.07303,3.46355 23.00012,7.03533 6.98122,3.51767 10.12006,8.76711 3.19295,5.24944 3.19295,11.74359 0,7.63063 -4.22119,14.07066 -4.2212,6.44004 -11.79771,9.79535 -7.57652,3.30119 -19.10364,3.30119 -20.2401,0 -28.03309,-7.79298 -7.79298,-7.79298 -8.82122,-19.80716 z"
         style=""
         id="path7067" />
      <path
         d="m 316.15388,487.91817 65.69918,0 0,16.93891 -41.12964,0 0,12.60948 38.15315,0 0,16.18127 -38.15315,0 0,15.64008 42.32023,0 0,17.96716 -66.88977,0 0,-79.3369 z"
         style=""
         id="path7069" />
      <path
         d="m 396.03195,487.91817 32.25429,0 12.44713,48.2732 12.39301,-48.2732 32.14605,0 0,79.3369 -20.02364,0 0,-60.50386 -15.53184,60.50386 -18.12951,0 -15.47773,-60.50386 0,60.50386 -20.07776,0 0,-79.3369 z"
         style=""
         id="path7071" />
      <path
         d="m 500.80427,487.91817 65.69918,0 0,16.93891 -41.12963,0 0,12.60948 38.15314,0 0,16.18127 -38.15314,0 0,15.64008 42.32022,0 0,17.96716 -66.88977,0 0,-79.3369 z"
         style=""
         id="path7073" />
      <path
         d="m 581.11529,487.91817 22.89188,0 29.87311,43.88965 0,-43.88965 23.10835,0 0,79.3369 -23.10835,0 -29.71075,-43.56494 0,43.56494 -23.05424,0 0,-79.3369 z"
         style=""
         id="path7075" />
      <path
         d="m 667.8122,487.91817 74.5204,0 0,19.59069 -25.00249,0 0,59.74621 -24.51543,0 0,-59.74621 -25.00248,0 0,-19.59069 z"
         style=""
         id="path7077" />
    </g>
  </g>
</svg>
