<?xml version="1.0" encoding="UTF-8" standalone="no"?>
<!-- Created with Inkscape (http://www.inkscape.org/) -->

<svg
   xmlns:dc="http://purl.org/dc/elements/1.1/"
   xmlns:cc="http://creativecommons.org/ns#"
   xmlns:rdf="http://www.w3.org/1999/02/22-rdf-syntax-ns#"
   xmlns:svg="http://www.w3.org/2000/svg"
   xmlns="http://www.w3.org/2000/svg"
   xmlns:sodipodi="http://sodipodi.sourceforge.net/DTD/sodipodi-0.dtd"
   xmlns:inkscape="http://www.inkscape.org/namespaces/inkscape"
   width="211.8593mm"
   height="46.426804mm"
   viewBox="0 0 750.68256 164.50442"
   id="svg2"
   version="1.1"
   inkscape:version="0.91 r13725"
   sodipodi:docname="ban_pou.svg">
  <defs
     id="defs4" />
  <sodipodi:namedview
     id="base"
     pagecolor="#ffffff"
     bordercolor="#666666"
     borderopacity="1.0"
     inkscape:pageopacity="0.0"
     inkscape:pageshadow="2"
     inkscape:zoom="0.98994949"
     inkscape:cx="364.54451"
     inkscape:cy="57.598593"
     inkscape:document-units="px"
     inkscape:current-layer="layer1"
     showgrid="false"
     fit-margin-top="0"
     fit-margin-left="0"
     fit-margin-right="0"
     fit-margin-bottom="0"
     inkscape:window-width="1255"
     inkscape:window-height="755"
     inkscape:window-x="25"
     inkscape:window-y="1"
     inkscape:window-maximized="1" />
  <metadata
     id="metadata7">
    <rdf:RDF>
      <cc:Work
         rdf:about="">
        <dc:format>image/svg+xml</dc:format>
        <dc:type
           rdf:resource="http://purl.org/dc/dcmitype/StillImage" />
        <dc:title></dc:title>
      </cc:Work>
    </rdf:RDF>
  </metadata>
  <g
     inkscape:label="Layer 1"
     inkscape:groupmode="layer"
     id="layer1"
     transform="translate(361.19419,-1104.89)">
    <g
       id="g10138"
       transform="matrix(1.5630531,0,0,1.5630531,-327.93001,-461.49197)">
      <path
         id="path3594"
         d="m -8.1428286,1105.7525 0,-102 101.9999996,0 0,102 z"
         inkscape:connector-curvature="0"
         style="fill:none;stroke:#263873;stroke-width:3.20000005;stroke-linecap:round;stroke-linejoin:bevel;stroke-opacity:1" />
      <path
         id="path3596"
         d="m 16.857171,1003.7525 0,102"
         inkscape:connector-curvature="0"
         style="fill:none;stroke:#263873;stroke-width:3.20000005;stroke-linecap:round;stroke-linejoin:bevel;stroke-opacity:1" />
      <path
         id="path3598"
         d="m 42.857171,1105.7525 0,-102"
         inkscape:connector-curvature="0"
         style="fill:none;stroke:#263873;stroke-width:3.20000005;stroke-linecap:round;stroke-linejoin:bevel;stroke-opacity:1" />
      <path
         id="path3600"
         d="m 68.857171,1003.7525 0,102"
         inkscape:connector-curvature="0"
         style="fill:none;stroke:#263873;stroke-width:3.20000005;stroke-linecap:round;stroke-linejoin:bevel;stroke-opacity:1" />
      <path
         id="path3602"
         d="m -8.1428286,1028.7525 101.9999996,0"
         inkscape:connector-curvature="0"
         style="fill:none;stroke:#263873;stroke-width:3.20000005;stroke-linecap:round;stroke-linejoin:bevel;stroke-opacity:1" />
      <path
         id="path3604"
         d="m -8.1428286,1054.7525 101.9999996,0"
         inkscape:connector-curvature="0"
         style="fill:none;stroke:#263873;stroke-width:3.20000005;stroke-linecap:round;stroke-linejoin:bevel;stroke-opacity:1" />
      <path
         id="path3606"
         d="m -8.1428286,1080.7525 101.9999996,0"
         inkscape:connector-curvature="0"
         style="fill:none;stroke:#263873;stroke-width:3.20000005;stroke-linecap:round;stroke-linejoin:bevel;stroke-opacity:1" />
      <path
         id="path3608"
         d="m -8.1428286,1003.7525 0,25 24.9999996,0 0,-25 z"
         inkscape:connector-curvature="0"
         style="fill:#263873;fill-opacity:1;stroke:#263873;stroke-opacity:1" />
      <path
         id="path3610"
         d="m 16.857171,1028.7525 0,26 26,0 0,-26 z"
         inkscape:connector-curvature="0"
         style="fill:#263873;fill-opacity:1;stroke:#263873;stroke-opacity:1" />
      <path
         id="path3612"
         d="m 42.857171,1054.7525 0,26 26,0 0,-26 z"
         inkscape:connector-curvature="0"
         style="fill:#263873;fill-opacity:1;stroke:#263873;stroke-opacity:1" />
      <path
         id="path3614"
         d="m 68.857171,1080.7525 0,25 25,0 0,-25 z"
         inkscape:connector-curvature="0"
         style="fill:#263873;fill-opacity:1;stroke:#263873;stroke-opacity:1" />
    </g>
    <text
       xml:space="preserve"
       style="font-style:normal;font-variant:normal;font-weight:900;font-stretch:normal;font-size:40px;line-height:125%;font-family:'Arial Black';-inkscape-font-specification:'Arial Black, Heavy';text-align:start;letter-spacing:0px;word-spacing:0px;writing-mode:lr-tb;text-anchor:start;fill:#000000;fill-opacity:1;stroke:none;stroke-width:1px;stroke-linecap:butt;stroke-linejoin:miter;stroke-opacity:1"
       x="170.14603"
       y="843.02087"
       id="text9451"
       sodipodi:linespacing="125%"><tspan
         sodipodi:role="line"
         id="tspan9453"
         x="170.14603"
         y="843.02087" /></text>
    <path
       inkscape:connector-curvature="0"
       id="path12284"
       style="font-style:normal;font-variant:normal;font-weight:900;font-stretch:normal;font-size:medium;line-height:125%;font-family:'Arial Black';-inkscape-font-specification:'Arial Black, Heavy';text-align:start;letter-spacing:0px;word-spacing:0px;writing-mode:lr-tb;text-anchor:start;fill:#263873;fill-opacity:1;stroke:none;stroke-width:1px;stroke-linecap:butt;stroke-linejoin:miter;stroke-opacity:1"
       d="m -97.19419,1147.4467 40.750807,0 q 13.313013,0 19.915401,6.3318 6.656506,6.3318 6.656506,18.0212 0,12.0142 -7.251804,18.779 -7.197685,6.7647 -22.026,6.7647 l -13.421248,0 0,29.4402 -24.623662,0 0,-79.3369 z m 24.623662,33.8237 6.007091,0 q 7.08945,0 9.9577,-2.4353 2.868251,-2.4894 2.868251,-6.3318 0,-3.7342 -2.489425,-6.3318 -2.489425,-2.5977 -9.362403,-2.5977 l -6.981214,0 0,17.6966 z" />
    <path
       inkscape:connector-curvature="0"
       id="path12286"
       style="font-style:normal;font-variant:normal;font-weight:900;font-stretch:normal;font-size:medium;line-height:125%;font-family:'Arial Black';-inkscape-font-specification:'Arial Black, Heavy';text-align:start;letter-spacing:0px;word-spacing:0px;writing-mode:lr-tb;text-anchor:start;fill:#263873;fill-opacity:1;stroke:none;stroke-width:1px;stroke-linecap:butt;stroke-linejoin:miter;stroke-opacity:1"
       d="m -20.076132,1187.1692 q 0,-19.4283 10.823587,-30.2519 10.823587,-10.8236 30.143691,-10.8236 19.807165,0 30.522516,10.6613 10.715352,10.6071 10.715352,29.7648 0,13.9083 -4.708261,22.8378 -4.654143,8.8753 -13.529484,13.8542 -8.821224,4.9247 -22.026,4.9247 -13.4212486,0 -22.242472,-4.2753 -8.767106,-4.2753 -14.233018,-13.5295 -5.465911,-9.2542 -5.465911,-23.1625 z m 24.515425,0.1083 q 0,12.0142 4.4376709,17.2636 4.4917891,5.2494 12.1765361,5.2494 7.901218,0 12.230653,-5.1412 4.329435,-5.1412 4.329435,-18.4542 0,-11.2024 -4.545906,-16.3436 -4.491789,-5.1953 -12.230654,-5.1953 -7.414157,0 -11.9059462,5.2494 -4.4917888,5.2495 -4.4917888,17.3719 z" />
    <path
       inkscape:connector-curvature="0"
       id="path12288"
       style="font-style:normal;font-variant:normal;font-weight:900;font-stretch:normal;font-size:medium;line-height:125%;font-family:'Arial Black';-inkscape-font-specification:'Arial Black, Heavy';text-align:start;letter-spacing:0px;word-spacing:0px;writing-mode:lr-tb;text-anchor:start;fill:#263873;fill-opacity:1;stroke:none;stroke-width:1px;stroke-linecap:butt;stroke-linejoin:miter;stroke-opacity:1"
       d="m 127.07054,1147.4467 24.46131,0 0,47.2991 q 0,7.0353 -2.21884,13.313 -2.16471,6.2235 -6.87297,10.9318 -4.65415,4.6541 -9.79535,6.5483 -7.14357,2.6517 -17.15539,2.6517 -5.79062,0 -12.66359,-0.8117 -6.818863,-0.8118 -11.418887,-3.193 -4.600025,-2.4353 -8.442398,-6.873 -3.788256,-4.4376 -5.195322,-9.1459 -2.272954,-7.5765 -2.272954,-13.4212 l 0,-47.2991 24.461308,0 0,48.4355 q 0,6.4942 3.571783,10.1742 3.6259,3.6259 10.01182,3.6259 6.3318,0 9.90358,-3.5718 3.6259,-3.6259 3.6259,-10.2283 l 0,-48.4355 z" />
    <path
       inkscape:connector-curvature="0"
       id="path12290"
       style="font-style:normal;font-variant:normal;font-weight:900;font-stretch:normal;font-size:medium;line-height:125%;font-family:'Arial Black';-inkscape-font-specification:'Arial Black, Heavy';text-align:start;letter-spacing:0px;word-spacing:0px;writing-mode:lr-tb;text-anchor:start;fill:#263873;fill-opacity:1;stroke:none;stroke-width:1px;stroke-linecap:butt;stroke-linejoin:miter;stroke-opacity:1"
       d="m 167.87547,1147.4467 24.51543,0 0,59.8003 38.26138,0 0,19.5366 -62.77681,0 0,-79.3369 z" />
    <path
       inkscape:connector-curvature="0"
       id="path12292"
       style="font-style:normal;font-variant:normal;font-weight:900;font-stretch:normal;font-size:medium;line-height:125%;font-family:'Arial Black';-inkscape-font-specification:'Arial Black, Heavy';text-align:start;letter-spacing:0px;word-spacing:0px;writing-mode:lr-tb;text-anchor:start;fill:#263873;fill-opacity:1;stroke:none;stroke-width:1px;stroke-linecap:butt;stroke-linejoin:miter;stroke-opacity:1"
       d="m 241.63819,1147.4467 65.69917,0 0,16.9389 -41.12963,0 0,12.6095 38.15315,0 0,16.1812 -38.15315,0 0,15.6401 42.32023,0 0,17.9672 -66.88977,0 0,-79.3369 z" />
    <path
       inkscape:connector-curvature="0"
       id="path12294"
       style="font-style:normal;font-variant:normal;font-weight:900;font-stretch:normal;font-size:medium;line-height:125%;font-family:'Arial Black';-inkscape-font-specification:'Arial Black, Heavy';text-align:start;letter-spacing:0px;word-spacing:0px;writing-mode:lr-tb;text-anchor:start;fill:#263873;fill-opacity:1;stroke:none;stroke-width:1px;stroke-linecap:butt;stroke-linejoin:miter;stroke-opacity:1"
       d="m 317.51153,1200.5364 23.32483,-1.4612 q 0.75765,5.6824 3.08473,8.6589 3.78825,4.8165 10.82358,4.8165 5.24944,0 8.06358,-2.4354 2.86825,-2.4894 2.86825,-5.7365 0,-3.0847 -2.7059,-5.52 -2.7059,-2.4353 -12.55536,-4.6 -16.12715,-3.6259 -23.00013,-9.633 -6.92709,-6.0071 -6.92709,-15.3154 0,-6.1153 3.51766,-11.5271 3.57179,-5.4659 10.66124,-8.5506 7.14357,-3.1389 19.53657,-3.1389 15.20714,0 23.16248,5.6824 8.00945,5.6283 9.52476,17.9672 l -23.10836,1.3529 q -0.92001,-5.3577 -3.89649,-7.793 -2.92237,-2.4353 -8.11769,-2.4353 -4.27532,0 -6.44004,1.84 -2.16472,1.7859 -2.16472,4.3836 0,1.8941 1.7859,3.4094 1.73177,1.5694 8.22592,2.9224 16.07303,3.4635 23.00013,7.0353 6.98121,3.5177 10.12005,8.7671 3.19296,5.2495 3.19296,11.7436 0,7.6306 -4.2212,14.0707 -4.2212,6.44 -11.79771,9.7953 -7.57651,3.3012 -19.10363,3.3012 -20.24011,0 -28.03309,-7.793 -7.79299,-7.7929 -8.82123,-19.8071 z" />
  </g>
</svg>
