<?xml version="1.0" encoding="UTF-8" standalone="no"?>
<!-- Created with Inkscape (http://www.inkscape.org/) -->

<svg
   xmlns:dc="http://purl.org/dc/elements/1.1/"
   xmlns:cc="http://creativecommons.org/ns#"
   xmlns:rdf="http://www.w3.org/1999/02/22-rdf-syntax-ns#"
   xmlns:svg="http://www.w3.org/2000/svg"
   xmlns="http://www.w3.org/2000/svg"
   xmlns:sodipodi="http://sodipodi.sourceforge.net/DTD/sodipodi-0.dtd"
   xmlns:inkscape="http://www.inkscape.org/namespaces/inkscape"
   width="220.34137mm"
   height="43.854374mm"
   viewBox="0 0 780.73714 155.38951"
   id="svg2"
   version="1.1"
   inkscape:version="0.91 r13725"
   sodipodi:docname="pointe.svg">
  <defs
     id="defs4" />
  <sodipodi:namedview
     id="base"
     pagecolor="#ffffff"
     bordercolor="#666666"
     borderopacity="1.0"
     inkscape:pageopacity="0.0"
     inkscape:pageshadow="2"
     inkscape:zoom="0.90509668"
     inkscape:cx="361.19705"
     inkscape:cy="56.109792"
     inkscape:document-units="px"
     inkscape:current-layer="layer1"
     showgrid="false"
     fit-margin-top="0"
     fit-margin-left="0"
     fit-margin-right="0"
     fit-margin-bottom="0"
     inkscape:window-width="1255"
     inkscape:window-height="755"
     inkscape:window-x="25"
     inkscape:window-y="1"
     inkscape:window-maximized="1" />
  <metadata
     id="metadata7">
    <rdf:RDF>
      <cc:Work
         rdf:about="">
        <dc:format>image/svg+xml</dc:format>
        <dc:type
           rdf:resource="http://purl.org/dc/dcmitype/StillImage" />
        <dc:title></dc:title>
      </cc:Work>
    </rdf:RDF>
  </metadata>
  <g
     inkscape:label="Layer 1"
     inkscape:groupmode="layer"
     id="layer1"
     transform="translate(360.44427,-443.02432)">
    <text
       xml:space="preserve"
       style="font-style:normal;font-variant:normal;font-weight:900;font-stretch:normal;font-size:40px;line-height:125%;font-family:'Arial Black';-inkscape-font-specification:'Arial Black, Heavy';text-align:start;letter-spacing:0px;word-spacing:0px;writing-mode:lr-tb;text-anchor:start;fill:#000000;fill-opacity:1;stroke:none;stroke-width:1px;stroke-linecap:butt;stroke-linejoin:miter;stroke-opacity:1"
       x="170.14603"
       y="843.02087"
       id="text9451"
       sodipodi:linespacing="125%"><tspan
         sodipodi:role="line"
         id="tspan9453"
         x="170.14603"
         y="843.02087" /></text>
    <g
       style="font-style:normal;font-variant:normal;font-weight:900;font-stretch:normal;font-size:110.83353424px;line-height:125%;font-family:'Arial Black';-inkscape-font-specification:'Arial Black, Heavy';text-align:start;letter-spacing:0px;word-spacing:0px;writing-mode:lr-tb;text-anchor:start;fill:#263873;fill-opacity:1;stroke:none;stroke-width:1px;stroke-linecap:butt;stroke-linejoin:miter;stroke-opacity:1"
       id="text5109"
       transform="translate(-38,-2)">
      <path
         d="m -77.516657,490.30745 25.651902,0 17.858919,57.09443 17.588329,-57.09443 24.8942513,0 -29.4401573,79.3369 -26.571907,0 -29.981337,-79.3369 z"
         id="path5573"
         inkscape:connector-curvature="0" />
      <path
         d="m 17.460321,490.30745 24.569543,0 0,79.3369 -24.569543,0 0,-79.3369 z"
         id="path5575"
         inkscape:connector-curvature="0" />
      <path
         d="m 60.105255,490.30745 36.421372,0 q 10.769473,0 17.371853,2.92237 6.65651,2.92237 10.98595,8.38828 4.32943,5.46591 6.27768,12.71772 1.94824,7.2518 1.94824,15.36949 0,12.71772 -2.92237,19.75305 -2.86825,6.98121 -8.00945,11.74359 -5.14121,4.70826 -11.04006,6.27768 -8.06357,2.16472 -14.611843,2.16472 l -36.421372,0 0,-79.3369 z m 24.515425,17.96716 0,43.34847 6.007091,0 q 7.684747,0 10.931819,-1.67766 3.24708,-1.73177 5.08709,-5.95297 1.84001,-4.27532 1.84001,-13.80008 0,-12.60948 -4.11296,-17.26362 -4.11297,-4.65414 -13.637723,-4.65414 l -6.115327,0 z"
         id="path5577"
         inkscape:connector-curvature="0" />
      <path
         d="m 145.88219,490.30745 65.69918,0 0,16.93892 -41.12964,0 0,12.60948 38.15315,0 0,16.18126 -38.15315,0 0,15.64008 42.32023,0 0,17.96716 -66.88977,0 0,-79.3369 z"
         id="path5579"
         inkscape:connector-curvature="0" />
      <path
         d="m 222.94613,530.03002 q 0,-19.42834 10.82359,-30.25193 10.82358,-10.82359 30.14369,-10.82359 19.80716,0 30.52251,10.66124 10.71536,10.60711 10.71536,29.76486 0,13.90831 -4.70826,22.83777 -4.65415,8.87534 -13.52949,13.85419 -8.82122,4.92474 -22.026,4.92474 -13.42125,0 -22.24247,-4.27532 -8.76711,-4.27532 -14.23302,-13.52948 -5.46591,-9.25417 -5.46591,-23.16248 z m 24.51543,0.10823 q 0,12.01419 4.43767,17.26363 4.49179,5.24944 12.17653,5.24944 7.90122,0 12.23066,-5.14121 4.32943,-5.1412 4.32943,-18.45421 0,-11.20242 -4.54591,-16.34362 -4.49178,-5.19532 -12.23065,-5.19532 -7.41416,0 -11.90595,5.24944 -4.49178,5.24944 -4.49178,17.37185 z"
         id="path5581"
         inkscape:connector-curvature="0" />
      <path
         d="m 314.18898,543.39715 23.32483,-1.46119 q 0.75765,5.68239 3.08472,8.65887 3.78826,4.8165 10.82359,4.8165 5.24944,0 8.06357,-2.43531 2.86825,-2.48942 2.86825,-5.7365 0,-3.08472 -2.7059,-5.52003 -2.70589,-2.4353 -12.55536,-4.60002 -16.12714,-3.6259 -23.00012,-9.63299 -6.9271,-6.0071 -6.9271,-15.31538 0,-6.11533 3.51767,-11.52712 3.57178,-5.46591 10.66123,-8.55064 7.14357,-3.13884 19.53658,-3.13884 15.20714,0 23.16247,5.68239 8.00946,5.62826 9.52476,17.96715 l -23.10836,1.35295 q -0.92,-5.35767 -3.89649,-7.79298 -2.92237,-2.43531 -8.11769,-2.43531 -4.27532,0 -6.44003,1.84001 -2.16472,1.78589 -2.16472,4.38355 0,1.89413 1.78589,3.40943 1.73177,1.56942 8.22593,2.92237 16.07302,3.46355 23.00012,7.03533 6.98121,3.51767 10.12005,8.76711 3.19296,5.24944 3.19296,11.74359 0,7.63063 -4.2212,14.07067 -4.2212,6.44003 -11.79771,9.79534 -7.57651,3.3012 -19.10363,3.3012 -20.24011,0 -28.03309,-7.79299 -7.79298,-7.79298 -8.82122,-19.80716 z"
         id="path5583"
         inkscape:connector-curvature="0" />
    </g>
    <g
       id="g5493"
       transform="matrix(0.19660224,0,0,0.19660224,-360.81779,454.57626)">
      <path
         id="path4920"
         d="m 826.15105,431.42037 88,0 0,-128"
         inkscape:connector-curvature="0"
         style="fill:none;stroke:#263873;stroke-width:44.5;stroke-linecap:round;stroke-linejoin:bevel;stroke-miterlimit:4;stroke-dasharray:none;stroke-opacity:1" />
      <path
         id="path4922"
         d="m 1028.1511,497.42037 -2,-258"
         inkscape:connector-curvature="0"
         style="fill:none;stroke:#263873;stroke-width:44.5;stroke-linecap:round;stroke-linejoin:bevel;stroke-miterlimit:4;stroke-dasharray:none;stroke-opacity:1" />
      <path
         id="path4924"
         d="m 966.15105,231.42037 0,280"
         inkscape:connector-curvature="0"
         style="fill:none;stroke:#263873;stroke-width:22;stroke-linecap:round;stroke-linejoin:bevel;stroke-miterlimit:4;stroke-dasharray:none;stroke-opacity:1" />
      <path
         id="path4926"
         d="m 730.15105,415.42037 a 40,40 0 0 0 0,-80"
         inkscape:connector-curvature="0"
         style="fill:none;stroke:#263873;stroke-width:22;stroke-linecap:round;stroke-linejoin:bevel;stroke-miterlimit:4;stroke-dasharray:none;stroke-opacity:1" />
      <path
         id="path4928"
         d="M 666.15103,415.42037"
         inkscape:connector-curvature="0"
         style="fill:none;stroke:#263873;stroke-width:22;stroke-linecap:round;stroke-linejoin:bevel;stroke-miterlimit:4;stroke-dasharray:none;stroke-opacity:1" />
      <path
         id="path4930"
         d="m 666.15103,335.42037 64.00002,0"
         inkscape:connector-curvature="0"
         style="fill:none;stroke:#263873;stroke-width:22;stroke-linecap:round;stroke-linejoin:bevel;stroke-miterlimit:4;stroke-dasharray:none;stroke-opacity:1" />
      <path
         id="path4932"
         d="m 666.15103,415.42037 64.00002,0"
         inkscape:connector-curvature="0"
         style="fill:none;stroke:#263873;stroke-width:22;stroke-linecap:round;stroke-linejoin:bevel;stroke-miterlimit:4;stroke-dasharray:none;stroke-opacity:1" />
      <circle
         id="ellipse4934"
         cy="375.42035"
         cx="730.151"
         r="8"
         style="fill:none;stroke:#263873;stroke-width:22;stroke-linecap:round;stroke-linejoin:bevel;stroke-miterlimit:4;stroke-dasharray:none;stroke-opacity:1" />
      <path
         id="path4936"
         d="m 914.15105,303.42037 -88,0 0,128"
         inkscape:connector-curvature="0"
         style="fill:none;stroke:#263873;stroke-width:44.5;stroke-linecap:round;stroke-linejoin:bevel;stroke-miterlimit:4;stroke-dasharray:none;stroke-opacity:1" />
      <path
         id="path4938"
         d="m 820.15105,225.42037 -400.00002,1"
         inkscape:connector-curvature="0"
         style="fill:none;stroke:#263873;stroke-width:44.5;stroke-linecap:round;stroke-linejoin:bevel;stroke-miterlimit:4;stroke-dasharray:none;stroke-opacity:1" />
      <path
         id="path4940"
         d="m 420.15103,226.42037 c -96,-1 -322,30 -400,47"
         inkscape:connector-curvature="0"
         style="fill:none;stroke:#263873;stroke-width:44.5;stroke-linecap:round;stroke-linejoin:bevel;stroke-miterlimit:4;stroke-dasharray:none;stroke-opacity:1" />
      <path
         id="path4942"
         d="m 20.15103,273.42037 -1,192"
         inkscape:connector-curvature="0"
         style="fill:none;stroke:#263873;stroke-width:44.5;stroke-linecap:round;stroke-linejoin:bevel;stroke-miterlimit:4;stroke-dasharray:none;stroke-opacity:1" />
      <path
         id="path4944"
         d="m 19.15103,465.42037 c 80,16 304,48 402,51"
         inkscape:connector-curvature="0"
         style="fill:none;stroke:#263873;stroke-width:44.5;stroke-linecap:round;stroke-linejoin:bevel;stroke-miterlimit:4;stroke-dasharray:none;stroke-opacity:1" />
      <path
         id="path4946"
         d="m 421.15103,516.42037 399.00002,-3"
         inkscape:connector-curvature="0"
         style="fill:none;stroke:#263873;stroke-width:44.5;stroke-linecap:round;stroke-linejoin:bevel;stroke-miterlimit:4;stroke-dasharray:none;stroke-opacity:1" />
      <path
         id="path4948"
         d="m 820.15105,513.42037 0,-288"
         inkscape:connector-curvature="0"
         style="fill:none;stroke:#263873;stroke-width:44.5;stroke-linecap:round;stroke-linejoin:bevel;stroke-miterlimit:4;stroke-dasharray:none;stroke-opacity:1" />
      <path
         id="path4950"
         d="m 1026.1511,239.42037 -14,-14 -97.00005,1 1,287 95.00005,-1 17,-15"
         inkscape:connector-curvature="0"
         style="fill:none;stroke:#263873;stroke-width:44.5;stroke-linecap:round;stroke-linejoin:bevel;stroke-miterlimit:4;stroke-dasharray:none;stroke-opacity:1" />
      <path
         style="fill:none;stroke:#263873;stroke-width:22;stroke-linecap:round;stroke-linejoin:bevel;stroke-miterlimit:4;stroke-dasharray:none;stroke-opacity:1"
         inkscape:connector-curvature="0"
         d="m 659.98012,415.42037 a 40,40 0 1 1 0,-80"
         id="path4991" />
    </g>
    <rect
       style="fill:none;fill-opacity:1;stroke:#000000;stroke-width:1;stroke-linecap:square;stroke-linejoin:round;stroke-miterlimit:4;stroke-dasharray:none;stroke-opacity:0"
       id="rect5712"
       width="779.73712"
       height="154.38951"
       x="-359.94427"
       y="443.52432" />
  </g>
</svg>
