<svg xmlns="http://www.w3.org/2000/svg"
   xmlns:xlink="http://www.w3.org/1999/xlink"
   version="1.1"
   id="pou" width="100%" height="100%"  viewBox="-6 -6 134 134">
<desc>
XCircuit Version 3.9
File "pou.ps" Page 1
</desc>
<g stroke="black">
<path d="M13,115 L13,13 115,13 115,115 z" fill="none" stroke-width="3.2" stroke-linejoin="bevel" stroke-linecap="round" stroke="#000000" />
<path d="M38,13 L38,115 " fill="none" stroke-width="3.2" stroke-linejoin="bevel" stroke-linecap="round" stroke="#000000" />
<path d="M64,115 L64,13 " fill="none" stroke-width="3.2" stroke-linejoin="bevel" stroke-linecap="round" stroke="#000000" />
<path d="M90,13 L90,115 " fill="none" stroke-width="3.2" stroke-linejoin="bevel" stroke-linecap="round" stroke="#000000" />
<path d="M13,38 L115,38 " fill="none" stroke-width="3.2" stroke-linejoin="bevel" stroke-linecap="round" stroke="#000000" />
<path d="M13,64 L115,64 " fill="none" stroke-width="3.2" stroke-linejoin="bevel" stroke-linecap="round" stroke="#000000" />
<path d="M13,90 L115,90 " fill="none" stroke-width="3.2" stroke-linejoin="bevel" stroke-linecap="round" stroke="#000000" />
<path d="M13,13 L13,38 38,38 38,13 z" fill="#000000" stroke="none" />
<path d="M38,38 L38,64 64,64 64,38 z" fill="#000000" stroke="none" />
<path d="M64,64 L64,90 90,90 90,64 z" fill="#000000" stroke="none" />
<path d="M90,90 L90,115 115,115 115,90 z" fill="#000000" stroke="none" />
<path visibility="hidden" d="M0,0 L0,128 128,128 128,0 z" fill="none" stroke-width="2" stroke-linejoin="bevel" stroke-linecap="round" stroke="#adff2f" />
</g>
</svg>
