<svg xmlns="http://www.w3.org/2000/svg" version="1" width="750" height="500"><path font-size="12" fill="navy" fill-rule="evenodd" d="M0 0h750v500H0z"/><path d="M437.5 94.67l7.438 22.956 24.19-.04-19.593 14.15 7.512 22.933-19.547-14.212-19.547 14.21 7.512-22.93-19.593-14.15 24.19.038L437.5 94.67zM562.5 95l7.438 22.957 24.19-.04-19.593 14.15L582.047 155 562.5 140.788 542.953 155l7.512-22.933-19.593-14.15 24.19.04L562.5 95zM687.5 94.67l7.438 22.956 24.19-.04-19.593 14.15 7.512 22.933-19.547-14.212-19.547 14.21 7.512-22.93-19.593-14.15 24.19.038L687.5 94.67z" fill="#fff"/><path font-size="12" fill="#c00" fill-rule="evenodd" d="M0 0h375v250H0z"/><g stroke="#000"><path d="M379.09 389.916s-.23-6.58 3.6-6.652c3.833.072 3.602 6.652 3.602 6.652zM537.44 561.933v-32.83c1.07-4.164 4.606-7.848 7.264-8.586v-30.79c-4.02 0-5.987 5.238-5.987 5.238l-6.834 30.098v36.618z" fill="#fff" stroke-width="1.2" transform="matrix(.62067 0 0 .62232 -50.128 -196.472)"/><path d="M477.79 496.58h-9.856v20.887h9.855z" fill="#fff" stroke-width="1.292" stroke-linecap="square" stroke-linejoin="bevel" transform="matrix(.62067 0 0 .62232 -50.128 -196.472)"/><path d="M292.726 496.58h182.08v70.06h-182.08z" fill="#fff" stroke-width="1.2" stroke-linejoin="bevel" transform="matrix(.62067 0 0 .62232 -50.128 -196.472)"/><path d="M228.58 561.807v-32.704c-1.07-4.164-4.606-7.848-7.264-8.586v-28.79l5.987 3.238 6.834 30.098v36.744z" fill="#fff" stroke-width="1.2" transform="matrix(.62067 0 0 .62232 -50.128 -196.472)"/><path d="M228.58 561.933v-32.83c-1.07-4.164-4.606-7.848-7.264-8.586v-30.79c4.02 0 5.987 5.238 5.987 5.238l6.834 30.098v36.618z" fill="#fff" stroke-width="1.2" transform="matrix(.62067 0 0 .62232 -50.128 -196.472)"/><path d="M221.5 570.317c2.817-1.435 6.03-4.774 7.08-8.51H537.5c1.05 3.736 4.264 7.075 7.08 8.51z" fill="#fff" stroke-width="1.2" transform="matrix(.62067 0 0 .62232 -50.128 -196.472)"/><path fill="#fff" stroke-width="1.2" stroke-linecap="square" stroke-linejoin="bevel" d="M465.398 535.257h5.738v26.393h-5.738z" transform="matrix(.62067 0 0 .62232 -50.128 -196.472)"/><path fill="#fff" stroke-width="1.2" stroke-linejoin="bevel" d="M292.726 522.22h182.08v8.145h-182.08zM292.726 511.183h182.08v7.182h-182.08z" transform="matrix(.62067 0 0 .62232 -50.128 -196.472)"/><path fill="#fff" stroke-width="1.182" stroke-linejoin="bevel" d="M292.726 500.157h182.08v6.966h-182.08z" transform="matrix(.62067 0 0 .62232 -50.128 -196.472)"/><path d="M477.79 496.58h-9.856v20.887h9.855z" fill="#fff" stroke-width="1.292" stroke-linecap="square" stroke-linejoin="bevel" transform="matrix(.62067 0 0 .62232 -50.128 -196.472)"/><path d="M541.43 570.317c-2.768-1.25-6.8-4.67-6.8-8.11V521.33l1.898-3.374h-69.636l2.717 3.374v40.876c0 3.44-2.768 6.86-5.536 8.11z" fill="#fff" stroke-width="1.2" transform="matrix(.62067 0 0 .62232 -50.128 -196.472)"/><path fill="#fff" stroke-width="1.2" stroke-linecap="square" stroke-linejoin="bevel" d="M340.648 535.257h5.738v26.393h-5.738zM419.04 535.257h5.738v26.393h-5.738z" transform="matrix(.62067 0 0 .62232 -50.128 -196.472)"/><path d="M428.637 570.317c-3.242-1.25-7.963-4.67-7.963-8.11V523.33l4.22-5.374h-84.44l4.047 5.374v38.876c0 3.44-3.24 6.86-6.484 8.11z" fill="#fff" stroke-width="1.2" transform="matrix(.62067 0 0 .62232 -50.128 -196.472)"/><path fill="#fff" stroke-width="1.2" stroke-linecap="square" stroke-linejoin="bevel" d="M355.47 535.257h5.737v26.393h-5.738zM403.974 535.257h5.738v26.393h-5.738z" transform="matrix(.62067 0 0 .62232 -50.128 -196.472)"/><path d="M338.942 473.715v44.25h86.437v-9.53l.124-34.72c-3.535 1.39-4.156 4.594-4.156 4.594v18.842h-78V478.31s-.87-3.206-4.406-4.595z" fill="#fff" stroke-width="1.2" transform="matrix(.62067 0 0 .62232 -50.128 -196.472)"/><path d="M413.65 570.317c-2.824-1.25-8.978-4.67-8.978-8.11v-43.508c.604-2.43 3.897-3.863 6.017-5.375h-57.317c2.728 1.444 5.77 2.643 6.856 5.374v43.506c0 3.44-4.867 6.86-7.692 8.11z" fill="#fff" stroke-width="1.2" transform="matrix(.62067 0 0 .62232 -50.128 -196.472)"/><path d="M421.34 513.79v-31.338h-7.858v-3.054H351.34v3.053h-7.858v31.34z" fill="#fff" stroke-width="1.2" transform="matrix(.62067 0 0 .62232 -50.128 -196.472)"/><path fill="#fff" stroke-width="1.2" stroke-linecap="square" stroke-linejoin="bevel" d="M294.164 535.257h5.738v26.393h-5.738z" transform="matrix(.62067 0 0 .62232 -50.128 -196.472)"/><path d="M224.326 570.317c2.768-1.25 6.798-4.67 6.798-8.11V521.33l-1.896-3.374h69.636l-2.717 3.374v40.876c0 3.44 2.767 6.86 5.535 8.11z" fill="#fff" stroke-width="1.2" transform="matrix(.62067 0 0 .62232 -50.128 -196.472)"/><path fill="#fff" stroke-width="1.2" stroke-linecap="square" stroke-linejoin="bevel" d="M231.786 490.755h6.43v23.84h-6.43zM231.745 485.656h6.43v5.022h-6.43z" transform="matrix(.62067 0 0 .62232 -50.128 -196.472)"/><path d="M287.624 570.317c-2.768-1.25-6.798-4.67-6.798-8.11V523.33l5.79-5.374h-47.34l5.79 5.374v38.876c0 3.44-4.03 6.86-6.797 8.11z" fill="#fff" stroke-width="1.2" transform="matrix(.62067 0 0 .62232 -50.128 -196.472)"/><path d="M280.993 570.317c-2.768-1.25-6.798-4.67-6.798-8.11v-35.144l3.79-5.375h-30.077l3.79 5.375v35.143c0 3.44-4.03 6.86-6.798 8.11zM527.27 570.317c-2.77-1.25-6.8-4.67-6.8-8.11V523.33l5.79-5.374h-47.34l5.79 5.374v38.876c0 3.44-4.03 6.86-6.797 8.11z" fill="#fff" stroke-width="1.2" transform="matrix(.62067 0 0 .62232 -50.128 -196.472)"/><path d="M520.637 570.317c-2.768-1.25-6.798-4.67-6.798-8.11v-35.144l3.79-5.375h-30.078l3.79 5.375v35.143c0 3.44-4.03 6.86-6.798 8.11zM255.76 521.688h14.372v48.63h-14.37zM401.267 570.317c-2.768-1.25-6.798-4.67-6.798-8.11V525.06l2.272-3.374h-28.305l2.273 3.375v37.143c0 3.44-4.03 6.86-6.798 8.11z" fill="#fff" stroke-width="1.2" transform="matrix(.62067 0 0 .62232 -50.128 -196.472)"/><path d="M375.417 521.7h14.345v48.604h-14.345z" fill="#fff" stroke-width="1.226" transform="matrix(.62067 0 0 .62232 -50.128 -196.472)"/><path d="M495.405 521.688h14.37v48.63h-14.37z" fill="#fff" stroke-width="1.2" transform="matrix(.62067 0 0 .62232 -50.128 -196.472)"/><path fill="#fff" stroke-width="1.2" stroke-linejoin="bevel" d="M368.195 503.218h28.79v10.607h-28.79z" transform="matrix(.62067 0 0 .62232 -50.128 -196.472)"/><path d="M397.298 511.005c.034-3.202 9.34-3.346 14.13-6.072h-57.523c4.79 2.726 13.88 2.95 13.88 6.072l1.947 6.21 23.813.957z" fill="#fff" stroke-width="1.2" stroke-linejoin="bevel" transform="matrix(.62067 0 0 .62232 -50.128 -196.472)"/><path d="M408.543 477.184c0-7.838.328-10.858 2.736-10.858v24.93c-5.907 2.142-10.12 9.678-10.12 9.678h-37.14s-4.214-7.536-10.12-9.68v-24.928c2.97 0 2.99 3.155 2.99 10.858z" fill="#fff" stroke-width="1.2" transform="matrix(.62067 0 0 .62232 -50.128 -196.472)"/><path d="M364.572 481.826c4.785 5.745 4.34 15.49 4.286 21.233h27.75c-.056-5.745-.5-15.49 4.285-21.234z" fill="#fff" stroke-width="1.2" transform="matrix(.62067 0 0 .62232 -50.128 -196.472)"/><path fill="#fff" stroke-width="1.2" stroke-linecap="square" stroke-linejoin="bevel" d="M236.21 535.257h5.738v26.393h-5.738z" transform="matrix(.62067 0 0 .62232 -50.128 -196.472)"/><path transform="matrix(-.62067 0 0 .62232 -50.128 -196.472)" fill="#fff" stroke-width="1.2" stroke-linecap="square" stroke-linejoin="bevel" d="M-534.158 490.755h6.43v23.84h-6.43z"/><path d="M221.5 570.317c2.817-1.435 6.03-4.773 7.08-8.51H537.5c1.05 3.736 4.264 7.075 7.08 8.51z" fill="none" stroke-width="1.2" transform="matrix(.62067 0 0 .62232 -50.128 -196.472)"/><path fill="#fff" stroke-width="1.2" stroke-linecap="square" stroke-linejoin="bevel" d="M285.406 535.257h5.738v26.393h-5.738z" transform="matrix(.62067 0 0 .62232 -50.128 -196.472)"/><path d="M227.285 482.63v35.326h4.017V482.54c-1.448-.73-2.807-.843-4.017.09z" fill="#fff" stroke-width="1.2" transform="matrix(.62067 0 0 .62232 -50.128 -196.472)"/><path d="M227.41 505.487c4.98 2.546 9.913 5.492 11.162 12.47h-11.16z" fill="#fff" stroke-width="1.2" transform="matrix(.62067 0 0 .62232 -50.128 -196.472)"/><path d="M288.156 496.58h9.855v20.887h-9.854z" fill="#fff" stroke-width="1.292" stroke-linecap="square" stroke-linejoin="bevel" transform="matrix(.62067 0 0 .62232 -50.128 -196.472)"/><path d="M296.48 494.905v23.05h3.256v-23.108c-1.017-.477-2.406-.55-3.257.06zM359.102 477.184v-8.858c-.126-4.428-4.415-4.75-4.54-7.977 0 0-.555-4.844.722-7.055 1.735 6.476 4.89 5.287 4.89 2.624 0-2.325-1.788-4.486-5.453-10.13-1.17-1.803-.446-7.455 1.196-9.475.637 4.913 1.365 7.264 3.474 7.264 1.287 0 2.338-.84 2.338-3.3 0-3.13-2.12-4.712-3.162-7.56-1.216-3.325-.38-6.714 1.642-8.608.866 4.847.608 6.78 2.76 6.78 4.342-1.374.002-7.66-.926-9.244-1.067-1.85 1.435-5.536 1.435-5.536 1.38 4.304 1.823 4.655 3.312 4.256 1.877-.504 1.634-3.29-.657-5.542-1.447-1.42-1.294-3.538.26-5.238 1.56 3.05 3.556 2.864 3.75 1.053l-1.255-7.028h27.607l-1.37 6.798c-.393 1.946 2.233 2.368 3.865-.822 1.554 1.7 1.707 3.817.26 5.238-2.292 2.252-2.534 5.038-.656 5.542 1.49.4 1.932.048 3.312-4.256 0 0 2.245 2.513 1.435 5.536-.927 1.585-5.267 7.87-.926 9.244 2.153 0 1.895-1.933 2.76-6.78 2.02 1.894 2.86 5.283 1.643 8.607-1.043 2.848-3.162 4.43-3.162 7.56 0 2.46 1.05 3.3 2.337 3.3 2.11 0 2.838-2.352 3.475-7.265 1.642 2.02 2.366 7.672 1.195 9.476-3.665 5.644-5.453 7.805-5.453 10.13 0 2.662 3.154 3.85 4.89-2.625 1.275 2.21.722 7.054.722 7.054-.127 3.227-4.415 3.548-4.54 7.976v8.858z" fill="#fff" stroke-width="1.2" transform="matrix(.62067 0 0 .62232 -50.128 -196.472)"/><path d="M369.226 412.038h27.405" fill="none" transform="matrix(.62067 0 0 .62232 -50.128 -196.472)"/><path d="M380.17 416.02l-3.8-1.957v-5.596c1.553.467 3.298.658 3.47 3.135.54-3.536 1.516-3.363 3.05-4.74 1.532 1.377 2.508 1.204 3.05 4.74.17-2.477 1.915-2.668 3.47-3.135v5.596l-3.803 1.958z" fill="#fff" stroke-width="1.2" transform="matrix(.62067 0 0 .62232 -50.128 -196.472)"/><path d="M365.977 420.59h33.474" fill="none" transform="matrix(.62067 0 0 .62232 -50.128 -196.472)"/><path d="M379.918 425.205l-6.314-4.34v-5.157c2.213.512 4.698.722 4.94 3.438.772-3.877 2.162-5.88 4.345-7.392 2.182 1.51 3.572 3.515 4.343 7.392.243-2.716 2.728-2.926 4.942-3.438v5.157l-6.315 4.34z" fill="#fff" stroke-width="1.2" transform="matrix(.62067 0 0 .62232 -50.128 -196.472)"/><path d="M362.736 430.977h39.846" fill="none" transform="matrix(.62067 0 0 .62232 -50.128 -196.472)"/><path d="M379.472 439.515l-7.26-6.376v-7.577c2.545.753 5.403 1.06 5.682 5.05.886-5.696 2.485-8.64 4.995-10.86 2.51 2.22 4.108 5.164 4.994 10.86.28-3.99 3.137-4.297 5.682-5.05v7.576l-7.26 6.375zM392.857 447.985l-6.566 9.082h-7.433l-6.566-9.082zM368.515 463.228c3.284 1.795 4.497 5.37 4.847 12.085h18.48c.35-6.714 1.563-10.29 4.847-12.085z" fill="#fff" stroke-width="1.2" transform="matrix(.62067 0 0 .62232 -50.128 -196.472)"/><path d="M359.335 443.665h47.257M358.25 458.122h48.68" fill="none" transform="matrix(.62067 0 0 .62232 -50.128 -196.472)"/><path d="M396.96 447.985v-9.123c-3.118.86-5.14 2.706-6.04 5.213 0-3.03-3.985-10.012-8.33-13.488-4.36 3.89-8.413 10.21-8.33 13.488-.743-2.387-2.923-4.354-6.042-5.213v9.123z" fill="#fff" stroke-width="1.2" stroke-linejoin="bevel" transform="matrix(.62067 0 0 .62232 -50.128 -196.472)"/><path d="M398.344 463.228v-9.123c-3.42.858-5.636 2.706-6.622 5.212 0-3.028-4.368-10.012-9.133-13.487-4.78 3.89-9.222 10.208-9.133 13.487-.812-2.387-3.202-4.354-6.622-5.212v9.123z" fill="#fff" stroke-width="1.2" stroke-linejoin="bevel" transform="matrix(.62067 0 0 .62232 -50.128 -196.472)"/><path d="M402.19 481.95v-10.524c-4.255 1.098-6.9 4.245-8.24 6.08 0-5.698-6.433-14.385-11.36-17.23-5.056 2.92-11.362 11.896-11.362 17.23-1.374-1.823-3.984-4.982-8.24-6.08v10.523z" fill="#fff" stroke-width="1.2" stroke-linejoin="bevel" transform="matrix(.62067 0 0 .62232 -50.128 -196.472)"/><path d="M399.886 505.31v-10.82c-3.755 1.47-4.877 5.09-6.058 7.547.463-10.974-6.18-22.77-11.24-25.76-5.058 2.99-11.827 15.04-11.237 25.76-1.21-2.443-2.302-6.076-6.057-7.546v10.82z" fill="#fff" stroke-width="1.2" stroke-linejoin="bevel" transform="matrix(.62067 0 0 .62232 -50.128 -196.472)"/><path transform="matrix(-.62067 0 0 .62232 -50.128 -196.472)" fill="#fff" stroke-width="1.2" stroke-linecap="square" stroke-linejoin="bevel" d="M-534.2 485.656h6.43v5.022h-6.43z"/><path fill="#fff" stroke-width="1.2" stroke-linecap="square" stroke-linejoin="bevel" d="M474.694 535.257h5.738v26.393h-5.738zM523.89 535.257h5.74v26.393h-5.74z" transform="matrix(.62067 0 0 .62232 -50.128 -196.472)"/><path d="M343.482 505.31h77.857M368.196 505.32h28.857v10.607h-28.857z" fill="none" stroke-width="1.2" transform="matrix(.62067 0 0 .62232 -50.128 -196.472)"/><path d="M397.254 521.688v-10.82c-3.933.937-4.176 2.387-5.426 4.81.463-6.554-4.18-14.03-9.24-17.023-5.058 2.992-9.7 10.47-9.237 17.023-1.25-2.423-1.403-3.874-5.425-4.81v10.82zM299.736 505.487c-4.98 2.546-9.912 5.492-11.16 12.47h11.16z" fill="#fff" stroke-width="1.2" transform="matrix(.62067 0 0 .62232 -50.128 -196.472)"/><path d="M231.302 490.755h6.912v27.054h-6.912zM231.302 485.656h6.872v5.022h-6.872z" fill="#fff" stroke-width="1.2" stroke-linecap="square" stroke-linejoin="bevel" transform="matrix(.62067 0 0 .62232 -50.128 -196.472)"/><path d="M288.156 496.58h9.855v20.887h-9.854z" fill="#fff" stroke-width="1.292" stroke-linecap="square" stroke-linejoin="bevel" transform="matrix(.62067 0 0 .62232 -50.128 -196.472)"/><path d="M238.116 517.6v-46.306c1.972 0 2.276 6.787 6.798 6.787 2.355 0 2.105-2.81.783-5.1-1.17-2.028-2.62-4.83-.652-10.046 1.35 3.992 4.98 5.26 4.31 2.755-1.154-4.302-4.472-5.008-1.983-11.684.865 5.57 4.438 5.324 3.57 2.086-.977-3.648-2.997-5.143-.505-10.284 1.395 5.838 3.283 5.496 3.283 1.873 0-5.354-.206-11.13 6.724-13.272 0 0 .4-4.91 2.9-4.91s2.9 4.91 2.9 4.91c6.93 2.143 6.724 7.918 6.724 13.273 0 3.624 1.887 3.966 3.283-1.872 2.493 5.14.473 6.636-.504 10.284-.868 3.238 2.704 3.483 3.57-2.086 2.49 6.676-.83 7.382-1.982 11.683-.67 2.503 2.96 1.236 4.308-2.756 1.968 5.217.52 8.018-.65 10.045-1.323 2.29-1.573 5.1.78 5.1 4.524 0 4.828-6.786 6.8-6.786V517.6z" fill="#fff" stroke-width="1.2" transform="matrix(.62067 0 0 .62232 -50.128 -196.472)"/><path d="M266.812 451.467l2.902-2.44v-3.124c-1.062.103-1.64.47-2.425 1.497-.668-2.07-2.135-3.688-4.1-4.692-1.967 1.004-3.434 2.547-4.1 4.618-.785-1.028-1.364-1.32-2.426-1.423v3.125l2.902 2.44z" fill="#fff" stroke-width="1.2" transform="matrix(.62067 0 0 .62232 -50.128 -196.472)"/><path d="M268.365 459.3l1.35-2.92v-4.062c-1.063.105-1.642.475-2.426 1.518-.668-2.1-2.135-3.74-4.1-4.76-1.967 1.02-3.434 2.585-4.1 4.686-.785-1.043-1.364-1.34-2.426-1.444v4.062l1.35 2.92z" fill="#fff" stroke-width="1.2" transform="matrix(.62067 0 0 .62232 -50.128 -196.472)"/><path d="M268.57 469.897l4.312-5.26v-5.188c-1.577.176-2.438.804-3.603 2.57-.992-3.557-3.17-4.334-6.09-6.06-2.92 1.726-5.1 2.376-6.09 5.933-1.166-1.766-2.027-2.267-3.604-2.444v5.188l4.312 5.26z" fill="#fff" stroke-width="1.2" transform="matrix(.62067 0 0 .62232 -50.128 -196.472)"/><path d="M269.832 480.317s5.025-4.383 5.323-6.79v-5.547c-1.947.228-3.79.733-5.227 3.013-1.224-4.592-3.134-5.873-6.74-8.1-3.604 2.227-5.514 3.508-6.738 8.1-1.438-2.28-3.28-2.785-5.227-3.013v5.547c.634 2.407 5.323 6.79 5.323 6.79z" fill="#fff" stroke-width="1.2" transform="matrix(.62067 0 0 .62232 -50.128 -196.472)"/><path d="M271.975 499.552s6.882-7.618 7.04-10.587v-8.65c-2.575.358-5.01 2.13-6.914 5.683-1.617-7.16-4.143-12.152-8.91-15.623-4.77 3.47-7.295 8.463-8.913 15.623-1.903-3.554-4.34-5.325-6.914-5.682v8.65c.494 2.968 7.04 10.586 7.04 10.586z" fill="#fff" stroke-width="1.2" transform="matrix(.62067 0 0 .62232 -50.128 -196.472)"/><path d="M271.975 510.92s5.882-5.986 7.04-8.586v-8.65c-2.575.357-5.01 2.128-6.914 5.683-1.617-7.16-4.143-11.26-8.91-14.73-4.77 3.47-7.295 7.57-8.913 14.73-1.903-3.555-4.34-5.326-6.914-5.682v8.65c1.494 2.6 7.04 8.585 7.04 8.585z" fill="#fff" stroke-width="1.2" transform="matrix(.62067 0 0 .62232 -50.128 -196.472)"/><path d="M274.35 517.54c-1.718-7.468-3.194-13.008-11.46-18.624-8.268 5.616-9.744 11.156-11.46 18.625z" fill="#fff" stroke-width="1.2" transform="matrix(.62067 0 0 .62232 -50.128 -196.472)"/><path d="M278.604 521.688v-10.82c-3.754 1.472-7.147 3.65-8.398 6.073-1.398-6.006-4.09-8.652-7.445-12.285-3.354 3.633-5.6 6.28-7 12.286-1.25-2.422-4.643-4.6-8.397-6.07v10.818zM227.285 482.63v35.326h4.017V482.54c-1.448-.73-2.807-.843-4.017.09z" fill="#fff" stroke-width="1.2" transform="matrix(.62067 0 0 .62232 -50.128 -196.472)"/><path d="M227.41 505.487c4.98 2.546 9.913 5.492 11.162 12.47h-11.16zM296.48 494.905v23.05h3.256v-23.108c-1.017-.477-2.406-.55-3.257.06z" fill="#fff" stroke-width="1.2" transform="matrix(.62067 0 0 .62232 -50.128 -196.472)"/><path d="M299.736 505.31c-4.98 2.545-9.912 5.49-11.16 12.468h11.16zM538.66 482.63v35.326h-4.018V482.54c1.448-.73 2.808-.843 4.018.09zM477.61 517.6v-46.306c1.973 0 2.277 6.787 6.8 6.787 2.354 0 2.104-2.81.782-5.1-1.17-2.028-2.62-4.83-.652-10.046 1.35 3.992 4.98 5.26 4.31 2.755-1.154-4.302-4.472-5.008-1.983-11.684.865 5.57 4.438 5.324 3.57 2.086-.977-3.648-2.997-5.143-.505-10.284 1.395 5.838 3.283 5.496 3.283 1.873 0-5.354-.206-11.13 6.724-13.272 0 0 .4-4.91 2.9-4.91s2.9 4.91 2.9 4.91c6.928 2.143 6.723 7.918 6.723 13.273 0 3.624 1.888 3.966 3.283-1.872 2.492 5.14.472 6.636-.505 10.284-.867 3.238 2.705 3.483 3.57-2.086 2.49 6.676-.828 7.382-1.98 11.683-.672 2.503 2.958 1.236 4.307-2.756 1.968 5.217.52 8.018-.65 10.045-1.323 2.29-1.573 5.1.78 5.1 4.524 0 4.828-6.786 6.8-6.786V517.6z" fill="#fff" stroke-width="1.2" transform="matrix(.62067 0 0 .62232 -50.128 -196.472)"/><path d="M506.307 451.467l2.902-2.44v-3.124c-1.063.103-1.642.47-2.426 1.497-.667-2.07-2.134-3.688-4.1-4.692-1.966 1.004-3.433 2.547-4.1 4.618-.784-1.028-1.364-1.32-2.425-1.423v3.125l2.9 2.44z" fill="#fff" stroke-width="1.2" transform="matrix(.62067 0 0 .62232 -50.128 -196.472)"/><path d="M507.86 459.3l1.35-2.92v-4.062c-1.063.105-1.642.475-2.426 1.518-.667-2.1-2.134-3.74-4.1-4.76-1.966 1.02-3.433 2.585-4.1 4.686-.784-1.043-1.364-1.34-2.425-1.444v4.062l1.348 2.92z" fill="#fff" stroke-width="1.2" transform="matrix(.62067 0 0 .62232 -50.128 -196.472)"/><path d="M508.065 469.897l4.312-5.26v-5.188c-1.577.176-2.438.804-3.603 2.57-.99-3.557-3.17-4.334-6.09-6.06-2.92 1.726-5.1 2.376-6.09 5.933-1.165-1.766-2.026-2.267-3.603-2.444v5.188l4.313 5.26z" fill="#fff" stroke-width="1.2" transform="matrix(.62067 0 0 .62232 -50.128 -196.472)"/><path d="M509.327 480.317s5.025-4.383 5.323-6.79v-5.547c-1.947.228-3.79.733-5.227 3.013-1.224-4.592-3.134-5.873-6.74-8.1-3.604 2.227-5.515 3.508-6.738 8.1-1.438-2.28-3.28-2.785-5.227-3.013v5.547c.634 2.407 5.323 6.79 5.323 6.79z" fill="#fff" stroke-width="1.2" transform="matrix(.62067 0 0 .62232 -50.128 -196.472)"/><path d="M511.47 499.552s6.882-7.618 7.04-10.587v-8.65c-2.576.358-5.01 2.13-6.914 5.683-1.618-7.16-4.144-12.152-8.912-15.623-4.768 3.47-7.295 8.463-8.912 15.623-1.903-3.554-4.34-5.325-6.914-5.682v8.65c.494 2.968 7.04 10.586 7.04 10.586z" fill="#fff" stroke-width="1.2" transform="matrix(.62067 0 0 .62232 -50.128 -196.472)"/><path d="M511.47 510.92s5.882-5.986 7.04-8.586v-8.65c-2.576.357-5.01 2.128-6.914 5.683-1.618-7.16-4.144-11.26-8.912-14.73-4.768 3.47-7.295 7.57-8.912 14.73-1.903-3.555-4.34-5.326-6.914-5.682v8.65c1.494 2.6 7.04 8.585 7.04 8.585z" fill="#fff" stroke-width="1.2" transform="matrix(.62067 0 0 .62232 -50.128 -196.472)"/><path d="M513.845 517.54c-1.718-7.468-3.194-13.008-11.46-18.624-8.268 5.616-9.744 11.156-11.46 18.625zM538.534 505.487c-4.98 2.546-9.376 5.492-10.625 12.47h10.624zM469.465 494.905v23.05h-3.256v-23.108c1.016-.477 2.405-.55 3.255.06z" fill="#fff" stroke-width="1.2" transform="matrix(.62067 0 0 .62232 -50.128 -196.472)"/><path d="M466.21 505.487c4.98 2.546 9.91 5.492 11.16 12.47h-11.16z" fill="#fff" stroke-width="1.2" transform="matrix(.62067 0 0 .62232 -50.128 -196.472)"/><path d="M469.465 494.905v23.05h-3.256v-23.108c1.016-.477 2.405-.55 3.255.06z" fill="#fff" stroke-width="1.2" transform="matrix(.62067 0 0 .62232 -50.128 -196.472)"/><path d="M466.21 505.487c4.98 2.546 9.91 5.492 11.16 12.47h-11.16zM411.28 473.972c0-8.99 7.76-10 7.76-10v8c-2.953-.127-4.378 2.524-4.378 6.47 0 3.947 2.38 4.01 2.38 4.01v22.704h-5.763zM353.934 473.972c0-8.99-7.762-10-7.762-10v8c2.954-.127 4.38 2.524 4.38 6.47 0 3.947-2.38 4.01-2.38 4.01v22.704h5.762zM518.226 521.562v-10.82c-3.755 1.472-7.148 3.65-8.398 6.072-1.398-6.006-4.09-8.652-7.446-12.285-3.355 3.632-5.6 6.278-7 12.284-1.25-2.423-4.643-4.6-8.398-6.07v10.818z" fill="#fff" stroke-width="1.2" transform="matrix(.62067 0 0 .62232 -50.128 -196.472)"/><path d="M82.29 158.174v6.148h210.42v-6.148zm-3.81 6.207v8.022h218.04v-8.02zm218.04 8.022v.053H78.48l-6.375-.053v10.577h230.79V172.4zM65.686 183.047v12.455h243.628v-12.455zm243.628 12.455v.02H65.686v-.02h-6.42v12.46h256.468V195.5z" fill="#fff" stroke-width=".746"/><path d="M250.142 569.932h25.61v79.897h-25.61z" fill="#fff" stroke-width="1.306" transform="matrix(.62067 0 0 .62232 -50.128 -196.472)"/><path d="M255.813 569.93h14.267v79.9h-14.267z" fill="#fff" stroke-width="1.304" transform="matrix(.62067 0 0 .62232 -50.128 -196.472)"/><path d="M255.55 579.79h14.792M255.55 589.79h14.792M255.55 599.79h14.792M255.55 609.79h14.792M255.55 619.79h14.792M255.55 629.79h14.792M255.55 639.79h14.792" fill="none" stroke-width="1.2" transform="matrix(.62067 0 0 .62232 -50.128 -196.472)"/><path d="M369.606 569.933h25.61v79.896h-25.61z" fill="#fff" stroke-width="1.306" transform="matrix(.62067 0 0 .62232 -50.128 -196.472)"/><path d="M375.456 569.93h14.267v79.9h-14.267z" fill="#fff" stroke-width="1.304" transform="matrix(.62067 0 0 .62232 -50.128 -196.472)"/><path d="M375.525 579.774h13.772M375.525 589.78h13.772M375.525 599.785h13.772M375.525 609.79h13.772M375.525 619.795h13.772M375.525 629.8h13.772M375.525 639.806h13.772" fill="none" stroke-width="1.2" transform="matrix(.62067 0 0 .62232 -50.128 -196.472)"/><path d="M250.142 569.932h25.61v79.897h-25.61z" fill="#fff" stroke-width="1.306" transform="matrix(.62067 0 0 .62232 98.612 -196.472)"/><path d="M255.813 569.93h14.267v79.9h-14.267z" fill="#fff" stroke-width="1.304" transform="matrix(.62067 0 0 .62232 98.612 -196.472)"/><path d="M255.55 579.79h14.792M255.55 589.79h14.792M255.55 599.79h14.792M255.55 609.79h14.792M255.55 619.79h14.792M255.55 629.79h14.792M255.55 639.79h14.792" fill="none" stroke-width="1.2" transform="matrix(.62067 0 0 .62232 98.612 -196.472)"/><path fill="#fff" stroke-width="1.2" stroke-linecap="square" stroke-linejoin="bevel" d="M305.406 535.257h5.738v26.393h-5.738zM317.406 535.257h5.738v26.393h-5.738zM329.406 535.257h5.738v26.393h-5.738zM429.91 535.257h5.74v26.393h-5.74zM441.91 535.257h5.74v26.393h-5.74zM453.91 535.257h5.74v26.393h-5.74z" transform="matrix(.62067 0 0 .62232 -50.128 -196.472)"/><path d="M370.656 403.548l-.635-5h25.342l-.636 5zM372.354 398.45l-.546-4.11h21.767l-.546 4.11zM375.808 394.186l-.363-4.11h14.493l-.363 4.11z" fill="#fff" stroke-width="1.2" transform="matrix(.62067 0 0 .62232 -50.128 -196.472)"/></g></svg>