<?xml version="1.0" encoding="UTF-8" standalone="no"?>
<!-- Created with Inkscape (http://www.inkscape.org/) -->

<svg
   xmlns:dc="http://purl.org/dc/elements/1.1/"
   xmlns:cc="http://creativecommons.org/ns#"
   xmlns:rdf="http://www.w3.org/1999/02/22-rdf-syntax-ns#"
   xmlns:svg="http://www.w3.org/2000/svg"
   xmlns="http://www.w3.org/2000/svg"
   xmlns:sodipodi="http://sodipodi.sourceforge.net/DTD/sodipodi-0.dtd"
   xmlns:inkscape="http://www.inkscape.org/namespaces/inkscape"
   width="600"
   height="300"
   id="svg3078"
   version="1.1"
   inkscape:version="0.91 r13725"
   sodipodi:docname="Flag_of_North_Borneo.svg">
  <defs
     id="defs3080">
    <clipPath
       id="border">
      <rect
         x="-15"
         y="-7.5"
         width="30"
         height="15"
         id="rect6" />
    </clipPath>
  </defs>
  <sodipodi:namedview
     id="base"
     pagecolor="#ffffff"
     bordercolor="#666666"
     borderopacity="1.0"
     inkscape:pageopacity="0.0"
     inkscape:pageshadow="2"
     inkscape:zoom="1.4666667"
     inkscape:cx="463.63636"
     inkscape:cy="203.6977"
     inkscape:document-units="px"
     inkscape:current-layer="layer1"
     showgrid="false"
     inkscape:window-width="1366"
     inkscape:window-height="654"
     inkscape:window-x="0"
     inkscape:window-y="1"
     inkscape:window-maximized="1"
     showguides="false" />
  <metadata
     id="metadata3083">
    <rdf:RDF>
      <cc:Work
         rdf:about="">
        <dc:format>image/svg+xml</dc:format>
        <dc:type
           rdf:resource="http://purl.org/dc/dcmitype/StillImage" />
        <dc:title />
      </cc:Work>
    </rdf:RDF>
  </metadata>
  <g
     inkscape:label="Layer 1"
     inkscape:groupmode="layer"
     id="layer1">
    <rect
       x="5.5664063e-006"
       y="0"
       width="600"
       height="300"
       id="rect8"
       style="fill:#00247d" />
    <path
       sodipodi:type="arc"
       style="fill:#ffffff;fill-opacity:1;stroke:none"
       id="path2626"
       sodipodi:cx="5.2249999"
       sodipodi:cy="-0.47499999"
       sodipodi:rx="3.875"
       sodipodi:ry="3.7750001"
       d="m 9.0999999,-0.47499999 a 3.875,3.7750001 0 1 1 -7.75,0 3.875,3.7750001 0 1 1 7.75,0 z"
       transform="matrix(19.35484,0,0,19.86756,348.871,159.43708)" />
    <g
       id="canton"
       transform="matrix(10,0,0,10,150,74.999997)">
      <g
         clip-path="url(#border)"
         id="g11">
        <circle
           r="20"
           id="circle13"
           cx="0"
           cy="0"
           sodipodi:cx="0"
           sodipodi:cy="0"
           sodipodi:rx="20"
           sodipodi:ry="20"
           style="fill:#00247d" />
        <path
           inkscape:connector-curvature="0"
           d="m -20,-10 40,20 m -40,0 40,-20"
           id="diags_white"
           style="stroke:#ffffff;stroke-width:3" />
        <path
           inkscape:connector-curvature="0"
           d="m -20,-10 40,20 m -40,0 40,-20"
           id="diags_red"
           style="stroke:#cf142b;stroke-width:2" />
        <path
           inkscape:connector-curvature="0"
           d="M 0,0 20,10 17,10 -3,0 m 3,0 20,-10 3,0 L 3,0 M 0,0 -20,10 -23,10 -3,0 m 3,0 -20,-10 3,0 20,10"
           id="eraser_white"
           style="fill:#ffffff;stroke:none" />
        <!--I think the above two lines give the simplest way to make the diagonals-->
        <path
           inkscape:connector-curvature="0"
           d="M -20,0 20,0 M 0,-10 0,10"
           id="cross_white"
           style="stroke:#ffffff;stroke-width:5" />
        <path
           inkscape:connector-curvature="0"
           d="M -20,0 20,0 M 0,-10 0,10"
           id="cross_red"
           style="stroke:#cf142b;stroke-width:3" />
      </g>
    </g>
    <g
       transform="matrix(0.45497905,0,0,0.45497905,358.77924,43.969013)"
       id="layer1-8"
       inkscape:label="Layer 1">
      <g
         transform="translate(5.0965834,-2.689648)"
         id="g5926">
        <g
           id="g5688"
           transform="translate(8.188951,1.7511013)">
          <path
             style="fill:#f4d734;fill-opacity:1;fill-rule:evenodd;stroke:#6d611d;stroke-width:1.5;stroke-linecap:butt;stroke-linejoin:miter;stroke-miterlimit:4;stroke-dasharray:none;stroke-opacity:1"
             d="m 200.28072,181.34243 c -1.47851,-22.57074 -3.87613,-45.76493 -7.08472,-67.71369 0,0 10.87851,-2.43101 15.91024,-1.87254 8.08532,0.8974 15.0788,7.76456 23.11862,9.00511 3.61039,0.55709 5.08296,-1.39635 8.6589,-0.64945 9.47216,1.97844 25.98681,15.08769 25.98681,15.08769 0,0 -2.24413,4.30396 -2.69509,7.36 -1.59719,10.82376 1.20931,21.78794 0.37906,32.69736 -0.81293,10.68184 -5.39017,22.69661 -5.39017,22.69661 0,0 -8.3653,-7.65397 -14.34095,-8.98363 -5.56824,-1.23901 -11.09094,3.11627 -16.6355,1.77525 -7.11605,-1.7211 -9.386,-11.07852 -16.63551,-12.10073 -4.09547,-0.57748 -11.27169,2.69802 -11.27169,2.69802 z"
             id="path5335"
             inkscape:connector-curvature="0"
             sodipodi:nodetypes="ccssscsscsssc" />
          <path
             inkscape:connector-curvature="0"
             id="path5390"
             d="m 207.95622,178.79276 -1.5,0.043 c 1.79241,60.98145 0.31343,116.8252 -10.54297,157.74609 l 1.44922,0.38477 c 10.93433,-41.21465 12.38765,-97.14148 10.59375,-158.17383 z"
             style="color:#000000;font-style:normal;font-variant:normal;font-weight:normal;font-stretch:normal;font-size:medium;line-height:normal;font-family:sans-serif;text-indent:0;text-align:start;text-decoration:none;text-decoration-line:none;text-decoration-style:solid;text-decoration-color:#000000;letter-spacing:normal;word-spacing:normal;text-transform:none;direction:ltr;block-progression:tb;writing-mode:lr-tb;baseline-shift:baseline;text-anchor:start;white-space:normal;clip-rule:nonzero;display:inline;overflow:visible;visibility:visible;opacity:1;isolation:auto;mix-blend-mode:normal;color-interpolation:sRGB;color-interpolation-filters:linearRGB;solid-color:#000000;solid-opacity:1;fill:#6d611d;fill-opacity:1;fill-rule:evenodd;stroke:none;stroke-width:1.5;stroke-linecap:butt;stroke-linejoin:miter;stroke-miterlimit:4;stroke-dasharray:none;stroke-dashoffset:0;stroke-opacity:1;color-rendering:auto;image-rendering:auto;shape-rendering:auto;text-rendering:auto;enable-background:accumulate" />
          <path
             inkscape:connector-curvature="0"
             id="path5333"
             d="m 193.93864,113.51932 -1.48438,0.21875 c 5.50159,37.63434 8.61678,78.94733 8.79883,114.4668 0.18206,35.51947 -2.62443,65.30893 -8.74609,79.5918 l 1.3789,0.58984 c 6.35064,-14.81708 9.04967,-44.58826 8.86719,-80.18945 -0.18247,-35.6012 -3.30186,-76.96817 -8.81445,-114.67774 z"
             style="color:#000000;font-style:normal;font-variant:normal;font-weight:normal;font-stretch:normal;font-size:medium;line-height:normal;font-family:sans-serif;text-indent:0;text-align:start;text-decoration:none;text-decoration-line:none;text-decoration-style:solid;text-decoration-color:#000000;letter-spacing:normal;word-spacing:normal;text-transform:none;direction:ltr;block-progression:tb;writing-mode:lr-tb;baseline-shift:baseline;text-anchor:start;white-space:normal;clip-rule:nonzero;display:inline;overflow:visible;visibility:visible;opacity:1;isolation:auto;mix-blend-mode:normal;color-interpolation:sRGB;color-interpolation-filters:linearRGB;solid-color:#000000;solid-opacity:1;fill:#6d611d;fill-opacity:1;fill-rule:evenodd;stroke:none;stroke-width:1.5;stroke-linecap:butt;stroke-linejoin:miter;stroke-miterlimit:4;stroke-dasharray:none;stroke-dashoffset:0;stroke-opacity:1;color-rendering:auto;image-rendering:auto;shape-rendering:auto;text-rendering:auto;enable-background:accumulate" />
          <g
             transform="translate(-2.2027111,-6.3634945)"
             id="g5321">
            <path
               inkscape:connector-curvature="0"
               style="opacity:1;fill:#b99e0a;fill-opacity:1;stroke:#6d611d;stroke-width:1.5;stroke-miterlimit:4;stroke-dasharray:none;stroke-opacity:1"
               d="m 183.7699,114.66145 12.93212,0 0,228.17525 -12.93212,0 z"
               id="rect5150" />
            <path
               id="path5319"
               d="m 185.91047,119.36019 4.94553,0 0,222.48321 -4.94553,0 z"
               style="opacity:1;fill:#f4d734;fill-opacity:1;stroke:none;stroke-width:1.19204032;stroke-miterlimit:4;stroke-dasharray:none;stroke-opacity:1"
               inkscape:connector-curvature="0"
               sodipodi:nodetypes="ccccc" />
          </g>
          <g
             transform="translate(-2.6101932,-6.3634945)"
             id="g5329">
            <rect
               style="opacity:1;fill:#b99e0a;fill-opacity:1;stroke:#6d611d;stroke-width:1.5;stroke-miterlimit:4;stroke-dasharray:none;stroke-opacity:1"
               id="rect5325"
               width="25.24007"
               height="11.472759"
               x="178.02341"
               y="105.07764"
               ry="5.7363796" />
            <rect
               ry="3.2305381"
               y="106.33325"
               x="180.11403"
               height="6.4610763"
               width="17.357918"
               id="rect5327"
               style="opacity:1;fill:#f4d734;fill-opacity:1;stroke:none;stroke-width:1.09213495;stroke-miterlimit:4;stroke-dasharray:none;stroke-opacity:1" />
          </g>
          <g
             transform="translate(-2.6101932,-6.3634945)"
             id="g5441">
            <path
               sodipodi:nodetypes="cssscscscsscscsscccssc"
               inkscape:connector-curvature="0"
               id="path5439"
               d="m 233.234,170.07635 c -1.49389,1.07625 -2.01354,1.37427 -3.98276,1.37151 -2.35164,-0.003 -4.82135,-0.61084 -6.57097,0.7193 -0.70908,0.53907 -1.54529,0.93305 -1.16965,1.87011 0.34939,0.87154 2.42831,1.18565 2.42831,1.18565 0,0 -1.57016,1.13949 -1.35831,1.99652 0.16613,0.67233 2.17267,0.84914 2.17267,0.84914 0,0 -1.21088,1.38568 -0.77413,2.02227 0.52155,0.7602 2.45597,0.61467 2.45597,0.61467 0,0 2.34238,-1.60829 3.70061,-1.79521 1.48832,-0.20482 2.93633,0.67803 4.34136,0.14614 1.43191,-0.54203 0.61916,-1.94347 0.61916,-1.94347 0,0 3.68848,-0.64278 5.24268,-1.60422 1.40308,-0.86795 3.40898,-3.5884 3.40898,-3.5884 0,0 -2.37288,0.0775 -3.05014,-0.71767 -0.5443,-0.63904 -0.39605,-1.70089 -0.17942,-2.51188 0.40025,-1.49841 2.60159,-3.85753 2.60159,-3.85753 l -5.20317,-6.10027 -8.52245,2.87072 c 0,0 0.0313,3.27463 1.16623,4.66491 0.65316,0.80011 1.60183,1.16664 2.42217,1.7942 0.58039,0.444 0.25127,2.01351 0.25127,2.01351 z"
               style="fill:#df1600;fill-opacity:1;fill-rule:evenodd;stroke:#7f0d00;stroke-width:1px;stroke-linecap:butt;stroke-linejoin:miter;stroke-opacity:1" />
            <path
               style="fill:#df1600;fill-opacity:1;fill-rule:evenodd;stroke:#7f0d00;stroke-width:1px;stroke-linecap:butt;stroke-linejoin:miter;stroke-opacity:1"
               d="m 263.2276,153.06991 c -1.25846,1.56337 -2.51693,1.80426 -3.77539,2.30719 2.50204,2.30839 2.66136,3.82015 0.52436,6.29233 -0.14913,-1.76589 -0.92771,-2.53749 -2.41206,-3.46078 -0.99778,0.65468 -1.93699,0.8172 -3.11332,0.81623 0,0 0.3579,1.201 0.3639,1.81947 0.0159,1.60199 -1.42386,3.2352 -0.84909,4.73062 0.73409,1.90993 4.85192,3.76023 4.85192,3.76023 -0.0227,2.4337 -0.39327,3.12815 -0.72779,4.00283 0.15102,1.38007 1.55095,2.13568 3.63894,2.54726 -2.11756,4.20358 -4.23511,4.78229 -6.35267,5.88855 0,0 1.19874,1.08978 -0.002,2.03972 -1.1782,0.93213 -2.82548,0.52887 -4.18203,1.17447 -1.23798,0.58918 -2.98384,2.8309 -2.98384,2.8309 0,0 -1.79968,0.72409 -2.52683,0.15737 -0.60891,-0.47458 0.12587,-2.16172 0.12587,-2.16172 0,0 -1.96597,0.43869 -2.32777,-0.15184 -0.46126,-0.75274 0.69045,-2.31396 0.69045,-2.31396 0,0 -2.0765,0.32973 -2.67325,-0.39521 -0.6416,-0.77945 0.0362,-1.40801 0.54888,-2.13638 1.26507,-1.79724 3.80283,-1.96556 6.04521,-2.67405 1.87772,-0.59329 3.60673,-1.46528 3.16644,-3.38415 0,0 0.0222,-2.25827 -0.68787,-2.99783 -0.95783,-0.99758 -1.74567,-0.0616 -2.66855,-1.09168 -0.51898,-0.57925 -1.53117,-1.61501 -2.06207,-2.18336 -1.98184,-2.12163 -3.67711,-0.83947 -5.5797,-3.03245 -0.95718,-1.10328 -2.30466,-3.39634 -2.30466,-3.39634 -7.26864,1.44035 -10.5768,1.08048 -14.43445,0.97038 -0.10801,1.25341 -0.87999,2.38553 0.60649,3.63894 -2.95471,1.17505 -2.90136,0.74419 -4.36672,0.72779 -0.40433,0.80865 -0.32346,1.77904 0.24259,2.91115 -1.288,0.66278 -2.57599,0.73913 -3.86399,0.76603 0,0 1.11228,1.17807 -0.15744,2.03364 -1.24589,0.83949 -1.94585,0.31176 -3.34771,0.85199 -1.27931,0.49301 -3.19111,2.595 -3.19111,2.595 0,0 -1.84968,0.58465 -2.53147,-0.0359 -0.57093,-0.51965 0.89825,-2.29778 0.89825,-2.29778 0,0 -1.99371,0.28743 -2.3094,-0.32898 -0.40248,-0.78574 0.86498,-2.25454 0.86498,-2.25454 0,0 -2.09561,0.17035 -2.63531,-0.59801 -0.58027,-0.82613 0.14349,-1.40115 0.71026,-2.08828 1.3985,-1.69549 2.57409,-2.27753 4.86399,-2.81288 1.91751,-0.44831 3.60334,-1.42757 4.81103,-2.81734 1.35049,-1.55409 0.79702,-7.93305 0.79702,-7.93305 -2.95836,-0.89849 -5.54739,-0.66181 -7.41036,-4.05544 -1.30648,0.83214 -2.61296,1.09884 -3.91944,0.17815 0.51283,-1.15823 0.98843,-2.52145 1.06893,-6.05731 -1.55011,0.0225 -2.34609,-0.89774 -3.02865,-1.95972 0.96669,-0.78211 2.70294,-0.21373 2.8505,-5.701 0,0 -1.50341,0.60397 -1.83493,-0.89078 -0.32531,-1.4667 0.75569,-2.77344 0.76599,-4.27575 0.009,-1.37099 -1.24709,-3.91944 -1.24709,-3.91944 0,0 0.13282,-1.93534 0.95984,-2.34272 0.69255,-0.34114 1.89066,1.0556 1.89066,1.0556 0,0 0.46217,-1.96059 1.15135,-2.02879 0.87853,-0.087 1.78156,1.63009 1.78156,1.63009 0,0 0.60842,-2.01257 1.52099,-2.23362 0.98118,-0.23767 1.25143,0.64633 1.68346,1.42525 1.06604,1.92199 0.11128,4.27932 -0.22856,6.60628 -0.28457,1.94855 0.01,3.87581 0.86114,5.50835 0.95202,1.82556 5.16653,3.38497 5.16653,3.38497 l 11.67113,6.39846 c 0,0 1.15374,1.00192 3.13663,0.80122 3.21248,-0.32514 8.44971,-1.35084 11.29783,-0.67992 2.85211,0.67187 5.26467,1.76882 7.52046,3.63894 1.19586,0.9914 2.91115,3.63893 2.91115,3.63893 0,0 2.07771,-1.6618 1.98625,-3.17143 -0.42468,-7.00994 -8.69348,-4.50869 -12.58465,-5.97771 -2.36062,-0.89119 -4.5349,-2.71708 -5.24361,-5.13874 -0.85018,-2.90505 0.94385,-5.34848 0.94385,-5.34848 -0.82382,-1.93257 -1.01791,-3.7952 0.62923,-5.45335 0.60183,1.19387 -0.091,2.2259 2.51693,3.67053 0,0 2.09828,-1.57721 3.14617,-1.36334 0.78852,0.16093 1.71651,0.96503 2.51693,1.04872 1.73038,0.18092 4.29976,-0.94385 4.29976,-0.94385 0.18685,1.12266 -0.0821,2.09337 -0.73411,2.93642 0,0 2.26863,-0.0955 3.35591,0.31461 1.22776,0.46306 1.99258,2.41206 1.99258,2.41206 0,0 -1.1032,-0.64747 -2.16761,0.0674 -2.25685,1.51571 -5.33517,2.88291 -7.37576,2.44958 -2.37759,-0.50489 -4.50951,-3.25104 -4.50951,-3.25104 0,0 -0.98854,2.08495 -0.20974,3.251 3.37281,5.04989 11.00195,1.81565 15.31133,3.88026 0.98491,0.47187 2.30719,2.3072 2.30719,2.3072 -0.26545,0.47832 1.398,0.12996 3.04129,-0.20975 -0.27824,1.21393 -0.73192,3.2167 -2.93642,3.98514 0.97662,0.55386 0.9799,1.89917 3.46078,2.09744 z"
               id="path5420"
               inkscape:connector-curvature="0"
               sodipodi:nodetypes="cccccsssscscscssccccccsssscscscssccccccsssssssscscscssccsssccccsscssscccssccscsscsscccc" />
            <g
               id="g5412">
              <path
                 sodipodi:nodetypes="ccsssssccccccccccccsssssccsc"
                 inkscape:connector-curvature="0"
                 id="path5394"
                 d="m 220.26035,130.8307 c -0.36014,-0.76142 -0.72238,-1.52409 -2.36531,-3.05519 0,0 -1.44741,2.26712 -1.47832,3.54796 -0.0303,1.25704 0.62353,1.5853 0.49278,2.66098 -0.1525,1.25459 -1.44456,2.15349 -1.77399,3.35085 -0.44751,1.62654 0.40624,3.35233 -0.19711,4.92773 -0.65764,1.71718 -1.96195,2.80862 -3.35085,3.74507 -0.72375,0.48798 -2.46387,0.88699 -2.46387,0.88699 0.51921,1.03963 1.38888,1.81643 2.95664,2.06965 l -2.06964,2.95663 c 1.85028,0.28006 3.19941,0.21303 4.82917,-0.68983 l -1.77398,3.64651 c 2.30315,0.18273 4.04286,-0.40191 6.01182,-1.57687 l -0.39421,2.75953 c 2.70557,-0.55205 4.21897,-0.79461 5.12483,-3.54796 0.84658,2.2906 2.70996,2.40624 5.02628,2.46386 l -0.78843,-3.35085 c 1.41622,1.5341 3.02732,1.38437 5.02628,1.08415 l -2.56242,-3.94218 c 0,0 0.18092,-2.9682 -0.29566,-4.3364 -0.20982,-0.60236 -0.4247,-0.93974 -0.39422,-1.57687 0.0635,-1.32765 1.52561,-1.7721 1.87253,-3.05519 0.30448,-1.12614 -1.00921,-2.36025 -0.59132,-3.44941 0.28488,-0.74247 1.00732,-1.03466 1.47831,-1.67543 0.70823,-0.96353 0.49278,-3.44941 0.49278,-3.44941 -2.11645,0.45992 -3.50099,0.91984 -4.04074,1.37976 0,0 -1.95723,-2.01935 -3.2523,-2.36531 -1.78753,-0.47751 -5.51905,0.59123 -5.51905,0.59123 z"
                 style="fill:#df1600;fill-opacity:1;fill-rule:evenodd;stroke:#7f0d00;stroke-width:1px;stroke-linecap:butt;stroke-linejoin:miter;stroke-opacity:1" />
              <path
                 style="color:#000000;font-style:normal;font-variant:normal;font-weight:normal;font-stretch:normal;font-size:medium;line-height:normal;font-family:sans-serif;text-indent:0;text-align:start;text-decoration:none;text-decoration-line:none;text-decoration-style:solid;text-decoration-color:#000000;letter-spacing:normal;word-spacing:normal;text-transform:none;direction:ltr;block-progression:tb;writing-mode:lr-tb;baseline-shift:baseline;text-anchor:start;white-space:normal;clip-rule:nonzero;display:inline;overflow:visible;visibility:visible;opacity:1;isolation:auto;mix-blend-mode:normal;color-interpolation:sRGB;color-interpolation-filters:linearRGB;solid-color:#000000;solid-opacity:1;fill:#7f0d00;fill-opacity:1;fill-rule:evenodd;stroke:none;stroke-width:1px;stroke-linecap:butt;stroke-linejoin:miter;stroke-miterlimit:4;stroke-dasharray:none;stroke-dashoffset:0;stroke-opacity:1;color-rendering:auto;image-rendering:auto;shape-rendering:auto;text-rendering:auto;enable-background:accumulate"
                 d="M 463.42188 102.48633 C 463.0357 102.49265 462.60895 102.62131 462.49805 102.84375 C 462.71446 103.08121 463.05924 102.96213 463.35352 102.94727 C 463.40111 103.10015 463.44688 103.25418 463.51172 103.36328 C 463.59906 103.51025 463.71696 103.63279 463.88086 103.67578 C 464.04477 103.71878 464.21351 103.66237 464.3457 103.56836 C 464.4779 103.47436 464.59585 103.34164 464.71875 103.16992 L 464.8457 102.99023 L 464.67188 102.85547 C 464.26946 102.54458 463.80805 102.47999 463.42188 102.48633 z M 466.71484 103.01562 C 466.49456 102.99797 466.25821 103.01942 466.01758 103.10156 L 465.81055 103.16992 L 465.87305 103.38086 C 465.93391 103.58307 466.0029 103.74725 466.09766 103.87891 C 466.19241 104.01056 466.33295 104.11861 466.50195 104.13086 C 466.67096 104.1431 466.82105 104.06597 466.95117 103.95508 C 467.04785 103.8727 467.14184 103.74275 467.23633 103.61328 C 467.5097 103.72234 467.74182 103.86178 468.02344 103.70703 C 467.99063 103.46084 467.68571 103.28501 467.32227 103.1543 C 467.14055 103.08894 466.93513 103.03329 466.71484 103.01562 z M 463.88086 103.07031 C 463.96599 103.08979 464.04894 103.1059 464.13086 103.14258 C 464.11671 103.15482 464.09426 103.18858 464.08203 103.19727 C 464.01634 103.24397 464.00049 103.23751 463.99609 103.23633 C 463.99154 103.23496 463.95479 103.21911 463.90234 103.13086 C 463.89516 103.1188 463.88823 103.08465 463.88086 103.07031 z M 466.4375 103.54492 C 466.52686 103.53669 466.61043 103.54936 466.69727 103.55859 C 466.68562 103.56979 466.66694 103.59829 466.65625 103.60742 C 466.57812 103.674 466.53969 103.67806 466.53516 103.67773 C 466.53061 103.6774 466.51388 103.67863 466.4668 103.61328 C 466.45792 103.601 466.44701 103.5613 466.4375 103.54492 z M 464.24414 104.41211 C 464.16253 104.6909 464.28987 104.97121 464.56836 105.25 C 464.21747 105.66873 463.87939 105.76148 463.6582 105.71094 C 463.43576 105.66011 463.27686 105.47778 463.27539 105.13672 C 463.27498 104.73549 463.24848 104.57106 463.20703 104.53906 C 463.10886 104.46325 462.84796 104.8736 462.82031 105.13867 C 462.76789 105.64137 463.12382 106.05539 463.55664 106.1543 C 463.56168 106.15545 463.56721 106.15325 463.57227 106.1543 C 463.35364 107.11689 463.14001 107.94313 462.51172 108.68359 L 462.18164 109.07422 L 462.69336 109.05859 C 463.5845 109.0317 464.23219 108.72988 464.71094 108.23633 C 465.155 107.77853 465.45587 107.16388 465.75586 106.4668 C 465.87044 106.45156 465.98457 106.41627 466.08789 106.35352 C 466.27092 106.24225 466.49728 106.09739 466.57422 105.83594 C 466.73644 105.2847 466.66007 105.03803 466.5957 105.01758 C 466.52104 104.99383 466.3759 105.25965 466.1875 105.59766 C 466.07876 105.79275 465.95131 105.90421 465.85156 105.96484 C 465.75182 106.02548 465.6749 106.03656 465.58984 106.01758 C 465.42295 105.98035 465.18121 105.76188 464.96875 105.31836 C 465.2524 105.22508 465.51046 105.06877 465.65625 104.63086 L 464.24414 104.41211 z M 464.69336 105.71875 C 464.86626 106.01804 465.0608 106.25553 465.29492 106.38086 C 465.0166 107.0135 464.73885 107.55288 464.38281 107.91992 C 464.06612 108.2464 463.64618 108.42794 463.11523 108.51953 C 463.59619 107.77309 463.83397 106.97109 464.03711 106.11719 C 464.25633 106.04703 464.4798 105.91266 464.69336 105.71875 z "
                 transform="matrix(2.1979034,0,0,2.1979034,-799.23745,-89.337602)"
                 id="path5396" />
            </g>
          </g>
        </g>
        <g
           id="g5385"
           transform="translate(5.5787578,-4.6123932)">
          <path
             sodipodi:nodetypes="csssssssccssscsscsscccc"
             inkscape:connector-curvature="0"
             id="path5371"
             d="m 252.2942,233.69433 c 0,0 15.45753,10.17428 21.32064,17.16491 5.30049,6.31981 7.98645,13.47859 12.84999,20.14051 1.85891,2.54627 4.01559,3.8591 4.9631,6.86597 0.86014,2.72961 0.0872,5.96967 -1.26478,8.49211 -2.37709,4.43493 -7.36636,7.79265 -10.58577,11.65976 -3.89274,4.6759 -6.24166,10.44974 -9.57621,15.53877 -1.84968,2.82288 -3.56792,5.76419 -5.78187,8.31143 -5.17213,5.95076 -17.3456,16.08082 -17.3456,16.08082 l -49.54371,0.24338 c 0,0 -0.35871,-5.48937 3.97596,-12.13817 3.99633,-6.12982 11.84603,-10.8495 18.02408,-17.7303 5.82893,-6.49198 9.93277,-15.24633 15.61242,-17.91785 2.23182,-1.04978 6.47428,0 6.47428,0 0,0 -2.54667,-2.84133 -2.77469,-4.62449 -0.23098,-1.80631 0.39821,-3.82367 1.54149,-5.24108 0.80842,-1.00226 3.39129,-1.84979 3.39129,-1.84979 0,0 -4.18354,-3.58379 -5.54938,-6.16598 -1.64006,-3.10059 -1.5205,-6.72516 -3.08299,-9.86556 -1.2964,-2.6056 -5.54938,-5.85767 -5.54938,-5.85767 l 5.85768,-20.03943 10.48216,-5.54938 z"
             style="fill:#2964c9;fill-opacity:1;fill-rule:evenodd;stroke:#143162;stroke-width:1.5;stroke-linecap:butt;stroke-linejoin:miter;stroke-miterlimit:4;stroke-dasharray:none;stroke-opacity:1" />
          <path
             sodipodi:nodetypes="ccscsccccscscscssscscssssssssscssscsssc"
             inkscape:connector-curvature="0"
             id="path5375"
             d="m 241.10579,258.7284 c 2.28579,4.59414 4.47382,8.15624 5.31994,9.75586 0.14782,0.27947 1.34105,1.79219 2.41211,2.86523 1.07105,1.07304 1.97851,1.85157 1.97851,1.85157 1.44081,1.23504 9.71272,10.34134 9.42021,11.97157 -0.30315,1.68948 -13.24531,-2.38694 -15.11341,-1.77215 0,0 -0.41655,0.14235 -0.89649,0.35938 -0.11754,0.0532 -0.1777,0.11815 -0.27734,0.19335 -0.15384,0.32607 -0.267,0.6687 -0.30469,0.94141 0.10615,0.2398 0.27535,0.66115 0.50977,0.99024 0.48721,0.68397 0.95703,1.21289 0.95703,1.21289 1.64308,1.83727 9.16178,14.42766 8.09455,16.15502 -1.04564,1.69243 -10.63669,-7.45316 -12.98127,-8.03198 0,0 -0.73817,-0.17808 -1.69141,-0.27148 -0.95323,-0.0934 -2.03384,0.20652 -1.47851,-0.0547 -1.36793,0.64343 -3.53578,2.82472 -5.87305,5.98633 -2.33726,3.16161 -4.89189,7.11777 -8.16016,10.75781 -6.82,7.59578 -10.35591,7.8941 -13.36565,12.51063 -1.11317,1.70745 -1.75681,3.14625 -2.23242,4.4375 0,0 15.39101,-0.38924 23.07622,0.11232 5.26023,0.3433 10.73474,1.57225 10.73474,1.57225 1.99451,-1.69425 8.49238,-7.01445 12.52842,-11.65809 1.80832,-2.08054 8.26031,-4.81052 10.20303,-7.77539 2.97711,-4.54353 1.37727,-9.27067 5.92696,-14.73567 1.04772,-1.2585 6.12797,-3.6749 7.19922,-4.74963 0.28563,-0.28656 -0.52471,-4.96997 -0.13947,-8.41033 0.39137,-3.49515 4.14361,-6.01613 4.14361,-6.01613 0.58581,0.0375 -1.41122,4.04168 -1.13395,7.26163 0.20132,2.33785 2.51002,3.76225 2.77932,3.49489 1.35174,-1.342 2.44924,-2.54541 3.05146,-3.66898 0.88782,-1.65641 1.17062,-3.81302 0.9043,-4.6582 -0.42344,-1.34375 -1.78066,-2.06527 -4.23829,-5.43164 -5.34863,-7.32639 -7.99911,-14.3382 -12.64453,-19.87695 -2.31384,-2.75882 -7.5427,-7.08537 -12.01757,-10.41211 -4.25808,-3.16558 -7.49068,-5.29324 -7.83008,-5.51758 -1.72015,-1.66015 -3.62208,-1.17294 -5.37323,0.55344 -2.32292,2.29007 -2.45065,6.3972 -3.78865,10.97438 -0.50549,1.72923 -1.6205,2.18808 -1.66518,3.80294 -0.0572,2.06587 1.31189,3.79963 1.96595,5.28037 z"
             style="fill:#5687dc;fill-opacity:1;fill-rule:evenodd;stroke:none;stroke-width:1.5;stroke-linecap:butt;stroke-linejoin:miter;stroke-miterlimit:4;stroke-dasharray:none;stroke-opacity:1" />
          <path
             inkscape:connector-curvature="0"
             id="path5378"
             transform="translate(93.124992,99.341263)"
             d="m 155.65625,142.51562 c -0.13564,-0.0102 -0.28639,6.2e-4 -0.45898,0.0371 -1.67657,0.3545 -2.04727,2.83683 -2.51172,4.48633 -0.42176,1.49788 0.1439,3.14195 -0.17969,4.66406 -0.13394,0.63006 -0.78394,1.15431 -0.7168,1.79493 0.1798,1.71564 1.18997,1.89345 2.87696,4.30078 2.06748,2.95029 4.88114,6.6715 7.16992,8.61719 1.71285,1.45609 4.17723,1.81066 5.92187,3.22851 4.5106,3.66573 11.30274,13.27735 11.30274,13.27735 0,0 4.96769,-4.51678 5.02343,-7.53516 0.12443,-6.73792 -6.20425,-12.10446 -10.58593,-17.22461 -3.5301,-4.12504 -10.66925,-9.82043 -14.91211,-13.06836 -1.77002,-1.35495 -1.9802,-2.50678 -2.92969,-2.57813 z m 3.21289,45.25196 c -0.83189,-0.008 -1.59268,0.1709 -2.18945,0.72265 0,0 3.52596,3.54936 4.82422,5.66211 1.70628,2.77676 3.77539,9.01954 3.77539,9.01954 0,0 1.42631,-0.818 1.88672,-1.46876 1.53234,-2.1658 1.16187,-5.27023 2.51757,-7.55078 0.73304,-1.2331 2.93555,-3.14648 2.93555,-3.14648 0,0 -6.209,-2.09256 -9.4375,-2.51563 -1.34311,-0.176 -2.92601,-0.70856 -4.3125,-0.72265 z M 145.82812,200.375 c -0.23374,-0.0168 -0.46316,0.005 -0.68554,0.0703 -2.46253,0.72464 -2.27523,4.628 -3.77539,6.71094 -2.92166,4.05668 -6.95621,7.20319 -10.06641,11.11719 -1.9064,2.39909 -5.24414,7.55078 -5.24414,7.55078 l 10.69727,0.6289 c 0,0 7.00965,-7.95027 10.27734,-11.32617 3.28825,-3.39714 9.22852,-8.80859 9.22852,-8.80859 0,0 -2.41598,-0.93606 -5.06446,-2.67188 -1.83941,-1.20555 -3.73099,-3.15389 -5.36719,-3.27148 z"
             style="fill:#7aa1e4;fill-opacity:1;fill-rule:evenodd;stroke:none;stroke-width:1px;stroke-linecap:butt;stroke-linejoin:miter;stroke-opacity:1" />
        </g>
        <g
           id="g5266"
           transform="matrix(-1.10803,0,0,1.10803,406.40072,-62.451382)"
           style="stroke-width:1.35375392;stroke-miterlimit:4;stroke-dasharray:none">
          <g
             id="g5268"
             style="stroke-width:1.35375392;stroke-miterlimit:4;stroke-dasharray:none">
            <path
               sodipodi:nodetypes="ssscccsccsscs"
               inkscape:connector-curvature="0"
               id="path5270"
               d="m 192.41163,230.67474 c -1.44152,0.28211 -3.27818,0.34768 -4.95194,0.0311 -2.25123,-0.42579 -5.29878,-1.14638 -7.53315,-0.63957 -9.39258,2.13048 -15.07156,15.3836 -20.19046,18.36011 0.98976,7.57784 4.85333,12.28187 9.63222,16.07058 1.67462,-1.49739 5.42556,-3.44585 5.42556,-3.44585 0,0 2.58779,1.1597 4.70467,0.99765 2.78742,-0.2134 4.28333,-2.90246 4.28333,-2.90246 l 0.10665,-20.99053 c 3.0957,0.40155 4.16668,-0.80067 5.09205,-0.83121 3.84717,-0.12695 3.91654,-0.0914 5.82318,-0.60383 2.74976,-0.73902 4.6324,-2.41734 4.50113,-6.3449 0.01,-0.0391 -2.55957,-0.54918 -6.89324,0.29891 z"
               style="fill:#deaa87;fill-opacity:1;fill-rule:evenodd;stroke:#7a5f4d;stroke-width:1.35375392;stroke-linecap:butt;stroke-linejoin:miter;stroke-miterlimit:4;stroke-dasharray:none;stroke-opacity:1" />
            <path
               sodipodi:nodetypes="cccscsccscccscsc"
               inkscape:connector-curvature="0"
               id="path5272"
               d="m 180.40393,239.85621 c 0.007,-1.38911 2.27892,-5.04525 3.65653,-4.86671 1.22228,0.15855 1.8134,0.017 2.33789,-0.15625 0.52449,-0.1732 0.948,-0.64607 2.38086,-0.69336 3.86243,-0.12745 3.434,-0.0237 5.30078,-0.52539 1.07889,-0.28996 1.71979,-0.6809 2.12109,-1.18554 0.14346,-0.1804 0.25189,-0.45811 0.36133,-0.73047 -1.00033,0.0118 -2.16146,0.0403 -3.83203,0.36719 -1.73838,0.3402 -3.7916,0.41802 -5.82617,0.0332 -1.22124,-0.23099 -2.50818,-0.54302 -3.6836,-0.71094 l 0,1.1e-4 c -1.1744,-0.16778 -2.21143,-0.14946 -2.75,0.0137 -1.23615,0.37442 -4.13684,1.62857 -6.01615,3.49989 -1.36741,1.36159 -1.8045,3.30965 -2.57019,4.21398 -2.7788,4.13246 -0.51367,9.50478 0.66009,9.72242 1.16331,0.2157 10.52486,4.62897 7.85957,-8.98183 z"
               style="fill:#e9c6af;fill-opacity:1;fill-rule:evenodd;stroke:none;stroke-width:1.35375392;stroke-linecap:butt;stroke-linejoin:miter;stroke-miterlimit:4;stroke-dasharray:none;stroke-opacity:1" />
          </g>
          <g
             id="g5276"
             style="stroke-width:1.35375392;stroke-miterlimit:4;stroke-dasharray:none">
            <g
               transform="matrix(0.9975211,0.07036798,-0.07036798,0.9975211,18.85439,3.5350216)"
               id="g5278"
               style="stroke-width:1.35375392;stroke-miterlimit:4;stroke-dasharray:none">
              <path
                 sodipodi:nodetypes="ssssssssssss"
                 inkscape:connector-curvature="0"
                 id="path5280"
                 d="m 186.08846,242.26556 c 0.33477,0.50707 1.01067,0.75902 1.61099,0.85288 0.88767,0.13879 1.75581,-0.43428 2.65339,-0.47382 1.42568,-0.0628 1.33894,0.60378 2.76106,0.4851 0.74824,-0.0624 1.45529,-0.37067 2.17958,-0.56858 0.88733,-0.24246 1.02196,-0.18485 1.7861,-0.69693 1.27044,-0.85137 2.99094,-2.07888 2.84292,-3.60103 -0.16912,-1.73916 -2.15544,-3.25974 -3.88533,-3.50627 0,0 -2.05758,1.9656 -3.68138,2.40268 -1.64825,0.44366 -2.15808,-0.0864 -3.80347,0.36777 -1.07655,0.29715 -2.21957,0.3429 -2.74815,1.3267 -0.54008,1.00521 -0.34442,2.45921 0.28429,3.4115 z"
                 style="fill:#deaa87;fill-opacity:1;fill-rule:evenodd;stroke:#7a5f4d;stroke-width:1.35375392;stroke-linecap:butt;stroke-linejoin:miter;stroke-miterlimit:4;stroke-dasharray:none;stroke-opacity:1" />
              <path
                 sodipodi:nodetypes="ccsccccccscscccscc"
                 inkscape:connector-curvature="0"
                 id="path5282"
                 d="m 196.47105,236.2008 c -0.3207,0.21169 -0.41429,0.28772 -0.94335,0.60547 -0.98885,0.59388 -1.25122,1.20081 -2.47647,1.53062 -2.28284,0.61447 -2.78763,0.0875 -3.79161,0.36465 -0.67361,0.18593 -1.20096,0.2782 -1.45898,0.36914 -0.25802,0.0909 -0.16675,0.0482 -0.17969,0.0723 -0.11076,0.20615 -0.0561,1.17285 0.20117,1.5625 -0.12934,-0.1959 0.0665,0.015 0.38282,0.0645 -0.0203,-0.003 0.14163,-0.002 0.52929,-0.11719 0.38766,-0.11536 0.95873,-0.34336 1.76563,-0.37891 1.94999,-0.0859 1.83636,0.56206 2.69005,0.49082 0.35166,-0.0293 0.95792,-0.267 1.85351,-0.51172 1.21639,-0.33238 1.09441,-0.34632 1.25576,-0.45444 0.61498,-0.41213 1.26145,-0.88172 1.64648,-1.28907 0.38504,-0.40734 0.41047,-0.59528 0.40625,-0.63867 -0.0236,-0.24241 -0.25483,-0.70467 -0.73437,-1.11523 -0.34206,-0.29286 -0.75729,-0.41911 -1.14649,-0.55469 z"
                 style="fill:#e9c6af;fill-opacity:1;fill-rule:evenodd;stroke:none;stroke-width:1.35375392;stroke-linecap:butt;stroke-linejoin:miter;stroke-miterlimit:4;stroke-dasharray:none;stroke-opacity:1" />
              <path
                 sodipodi:nodetypes="cssccsscc"
                 inkscape:connector-curvature="0"
                 id="path5284"
                 d="m 187.1066,239.15598 c 0,0 -0.3477,0.52801 -0.36705,0.82986 -0.0323,0.50391 0.1165,1.05713 0.43089,1.45226 0.20171,0.25352 0.84582,0.47876 0.84582,0.47876 l 2.0906,-0.33513 c 0,0 0.43299,-0.97883 0.36706,-1.48418 -0.0644,-0.49339 -0.34205,-0.98284 -0.71815,-1.30862 -0.17177,-0.14879 -0.63835,-0.23938 -0.63835,-0.23938 z"
                 style="fill:#ffe6d5;fill-opacity:1;fill-rule:evenodd;stroke:none;stroke-width:1.35375392;stroke-linecap:butt;stroke-linejoin:miter;stroke-miterlimit:4;stroke-dasharray:none;stroke-opacity:1" />
            </g>
            <g
               id="g5286"
               transform="matrix(0.9975211,0.07036798,-0.07036798,0.9975211,18.85439,-2.0560533)"
               style="stroke-width:1.35375392;stroke-miterlimit:4;stroke-dasharray:none">
              <path
                 style="fill:#deaa87;fill-opacity:1;fill-rule:evenodd;stroke:#7a5f4d;stroke-width:1.35375392;stroke-linecap:butt;stroke-linejoin:miter;stroke-miterlimit:4;stroke-dasharray:none;stroke-opacity:1"
                 d="m 186.08846,242.26556 c 0.33477,0.50707 1.01067,0.75902 1.61099,0.85288 0.88767,0.13879 1.75581,-0.43428 2.65339,-0.47382 1.42568,-0.0628 1.74368,0.57523 3.1658,0.45655 0.74824,-0.0624 1.45529,-0.37067 2.17958,-0.56858 0.88733,-0.24246 1.88925,-0.24603 2.65339,-0.75811 1.27044,-0.85137 2.99094,-2.07888 2.84292,-3.60103 -0.16912,-1.73916 -2.15544,-3.25974 -3.88533,-3.50627 0,0 -2.92487,2.02678 -4.54867,2.46386 -1.64825,0.44366 -2.56282,-0.0578 -4.20821,0.39632 -1.07655,0.29715 -2.21957,0.3429 -2.74815,1.3267 -0.54008,1.00521 -0.34442,2.45921 0.28429,3.4115 z"
                 id="path5288"
                 inkscape:connector-curvature="0"
                 sodipodi:nodetypes="ssssssssssss" />
              <path
                 sodipodi:nodetypes="ccsccccccscscccscc"
                 style="fill:#e9c6af;fill-opacity:1;fill-rule:evenodd;stroke:none;stroke-width:1.35375392;stroke-linecap:butt;stroke-linejoin:miter;stroke-miterlimit:4;stroke-dasharray:none;stroke-opacity:1"
                 d="m 197.74308,236.11107 c -0.3207,0.21169 -0.41429,0.28772 -0.94335,0.60547 -0.98885,0.59388 -2.11851,1.26199 -3.34376,1.5918 -2.28284,0.61447 -3.19237,0.1161 -4.19635,0.3932 -0.67361,0.18593 -1.20096,0.2782 -1.45898,0.36914 -0.25802,0.0909 -0.16675,0.0482 -0.17969,0.0723 -0.11076,0.20615 -0.0561,1.17285 0.20117,1.5625 -0.12934,-0.1959 0.0665,0.015 0.38282,0.0645 -0.0203,-0.003 0.14163,-0.002 0.52929,-0.11719 0.38766,-0.11536 0.95873,-0.34336 1.76563,-0.37891 1.94999,-0.0859 2.2411,0.53351 3.09479,0.46227 0.35166,-0.0293 0.95792,-0.267 1.85351,-0.51172 1.21639,-0.33238 1.9617,-0.4075 2.12305,-0.51562 0.61498,-0.41213 1.26145,-0.88172 1.64648,-1.28907 0.38504,-0.40734 0.41047,-0.59528 0.40625,-0.63867 -0.0236,-0.24241 -0.25483,-0.70467 -0.73437,-1.11523 -0.34206,-0.29286 -0.75729,-0.41911 -1.14649,-0.55469 z"
                 id="path5290"
                 inkscape:connector-curvature="0" />
              <path
                 style="fill:#ffe6d5;fill-opacity:1;fill-rule:evenodd;stroke:none;stroke-width:1.35375392;stroke-linecap:butt;stroke-linejoin:miter;stroke-miterlimit:4;stroke-dasharray:none;stroke-opacity:1"
                 d="m 187.1066,239.15598 c 0,0 -0.3477,0.52801 -0.36705,0.82986 -0.0323,0.50391 0.1165,1.05713 0.43089,1.45226 0.20171,0.25352 0.84582,0.47876 0.84582,0.47876 l 2.0906,-0.33513 c 0,0 0.43299,-0.97883 0.36706,-1.48418 -0.0644,-0.49339 -0.34205,-0.98284 -0.71815,-1.30862 -0.17177,-0.14879 -0.63835,-0.23938 -0.63835,-0.23938 z"
                 id="path5292"
                 inkscape:connector-curvature="0"
                 sodipodi:nodetypes="cssccsscc" />
            </g>
            <g
               transform="matrix(0.99949213,0.03186655,-0.03186655,0.99949213,8.678864,-0.504461)"
               id="g5294"
               style="stroke-width:1.35375392;stroke-miterlimit:4;stroke-dasharray:none">
              <path
                 sodipodi:nodetypes="ssssssssssss"
                 inkscape:connector-curvature="0"
                 id="path5296"
                 d="m 186.08846,242.26556 c 0.33477,0.50707 1.01067,0.75902 1.61099,0.85288 0.88767,0.13879 1.75581,-0.43428 2.65339,-0.47382 1.42568,-0.0628 2.84225,0.49773 4.26437,0.37905 0.74824,-0.0624 1.45529,-0.37067 2.17958,-0.56858 0.88733,-0.24246 1.88925,-0.24603 2.65339,-0.75811 1.27044,-0.85137 2.99094,-2.07888 2.84292,-3.60103 -0.16912,-1.73916 -2.15544,-3.25974 -3.88533,-3.50627 0,0 -2.92487,2.02678 -4.54867,2.46386 -1.64825,0.44366 -3.66139,0.0197 -5.30678,0.47382 -1.07655,0.29715 -2.21957,0.3429 -2.74815,1.3267 -0.54008,1.00521 -0.34442,2.45921 0.28429,3.4115 z"
                 style="fill:#deaa87;fill-opacity:1;fill-rule:evenodd;stroke:#7a5f4d;stroke-width:1.35375392;stroke-linecap:butt;stroke-linejoin:miter;stroke-miterlimit:4;stroke-dasharray:none;stroke-opacity:1" />
              <path
                 inkscape:connector-curvature="0"
                 id="path5298"
                 d="m 198.84165,236.03357 c -0.3207,0.21169 -0.41429,0.28772 -0.94335,0.60547 -0.98885,0.59388 -2.11851,1.26199 -3.34376,1.5918 -2.28284,0.61447 -4.29094,0.1936 -5.29492,0.4707 -0.67361,0.18593 -1.20096,0.2782 -1.45898,0.36914 -0.25802,0.0909 -0.16675,0.0482 -0.17969,0.0723 -0.11076,0.20615 -0.0561,1.17285 0.20117,1.5625 -0.12934,-0.1959 0.0665,0.015 0.38282,0.0645 -0.0203,-0.003 0.14163,-0.002 0.52929,-0.11719 0.38766,-0.11536 0.95873,-0.34336 1.76563,-0.37891 1.94999,-0.0859 3.33967,0.45601 4.19336,0.38477 0.35166,-0.0293 0.95792,-0.267 1.85351,-0.51172 1.21639,-0.33238 1.9617,-0.4075 2.12305,-0.51562 0.61498,-0.41213 1.26145,-0.88172 1.64648,-1.28907 0.38504,-0.40734 0.41047,-0.59528 0.40625,-0.63867 -0.0236,-0.24241 -0.25483,-0.70467 -0.73437,-1.11523 -0.34206,-0.29286 -0.75729,-0.41911 -1.14649,-0.55469 z"
                 style="fill:#e9c6af;fill-opacity:1;fill-rule:evenodd;stroke:none;stroke-width:1.35375392;stroke-linecap:butt;stroke-linejoin:miter;stroke-miterlimit:4;stroke-dasharray:none;stroke-opacity:1" />
              <path
                 sodipodi:nodetypes="cssccsscc"
                 inkscape:connector-curvature="0"
                 id="path5300"
                 d="m 187.1066,239.15598 c 0,0 -0.3477,0.52801 -0.36705,0.82986 -0.0323,0.50391 0.1165,1.05713 0.43089,1.45226 0.20171,0.25352 0.84582,0.47876 0.84582,0.47876 l 2.0906,-0.33513 c 0,0 0.43299,-0.97883 0.36706,-1.48418 -0.0644,-0.49339 -0.34205,-0.98284 -0.71815,-1.30862 -0.17177,-0.14879 -0.63835,-0.23938 -0.63835,-0.23938 z"
                 style="fill:#ffe6d5;fill-opacity:1;fill-rule:evenodd;stroke:none;stroke-width:1.35375392;stroke-linecap:butt;stroke-linejoin:miter;stroke-miterlimit:4;stroke-dasharray:none;stroke-opacity:1" />
            </g>
            <g
               id="g5302"
               style="stroke-width:1.35375392;stroke-miterlimit:4;stroke-dasharray:none">
              <path
                 style="fill:#deaa87;fill-opacity:1;fill-rule:evenodd;stroke:#7a5f4d;stroke-width:1.35375392;stroke-linecap:butt;stroke-linejoin:miter;stroke-miterlimit:4;stroke-dasharray:none;stroke-opacity:1"
                 d="m 186.08846,242.26556 c 0.33477,0.50707 1.01067,0.75902 1.61099,0.85288 0.88767,0.13879 1.75581,-0.43428 2.65339,-0.47382 1.42568,-0.0628 2.84225,0.49773 4.26437,0.37905 0.74824,-0.0624 1.45529,-0.37067 2.17958,-0.56858 0.88733,-0.24246 1.88925,-0.24603 2.65339,-0.75811 1.27044,-0.85137 2.99094,-2.07888 2.84292,-3.60103 -0.16912,-1.73916 -2.15544,-3.25974 -3.88533,-3.50627 0,0 -2.92487,2.02678 -4.54867,2.46386 -1.64825,0.44366 -3.66139,0.0197 -5.30678,0.47382 -1.07655,0.29715 -2.21957,0.3429 -2.74815,1.3267 -0.54008,1.00521 -0.34442,2.45921 0.28429,3.4115 z"
                 id="path5304"
                 inkscape:connector-curvature="0"
                 sodipodi:nodetypes="ssssssssssss" />
              <path
                 style="fill:#e9c6af;fill-opacity:1;fill-rule:evenodd;stroke:none;stroke-width:1.35375392;stroke-linecap:butt;stroke-linejoin:miter;stroke-miterlimit:4;stroke-dasharray:none;stroke-opacity:1"
                 d="m 198.84165,236.03357 c -0.3207,0.21169 -0.41429,0.28772 -0.94335,0.60547 -0.98885,0.59388 -2.11851,1.26199 -3.34376,1.5918 -2.28284,0.61447 -4.29094,0.1936 -5.29492,0.4707 -0.67361,0.18593 -1.20096,0.2782 -1.45898,0.36914 -0.25802,0.0909 -0.16675,0.0482 -0.17969,0.0723 -0.11076,0.20615 -0.0561,1.17285 0.20117,1.5625 -0.12934,-0.1959 0.0665,0.015 0.38282,0.0645 -0.0203,-0.003 0.14163,-0.002 0.52929,-0.11719 0.38766,-0.11536 0.95873,-0.34336 1.76563,-0.37891 1.94999,-0.0859 3.33967,0.45601 4.19336,0.38477 0.35166,-0.0293 0.95792,-0.267 1.85351,-0.51172 1.21639,-0.33238 1.9617,-0.4075 2.12305,-0.51562 0.61498,-0.41213 1.26145,-0.88172 1.64648,-1.28907 0.38504,-0.40734 0.41047,-0.59528 0.40625,-0.63867 -0.0236,-0.24241 -0.25483,-0.70467 -0.73437,-1.11523 -0.34206,-0.29286 -0.75729,-0.41911 -1.14649,-0.55469 z"
                 id="path5306"
                 inkscape:connector-curvature="0" />
              <path
                 style="fill:#ffe6d5;fill-opacity:1;fill-rule:evenodd;stroke:none;stroke-width:1.35375392;stroke-linecap:butt;stroke-linejoin:miter;stroke-miterlimit:4;stroke-dasharray:none;stroke-opacity:1"
                 d="m 187.1066,239.15598 c 0,0 -0.3477,0.52801 -0.36705,0.82986 -0.0323,0.50391 0.1165,1.05713 0.43089,1.45226 0.20171,0.25352 0.84582,0.47876 0.84582,0.47876 l 2.0906,-0.33513 c 0,0 0.43299,-0.97883 0.36706,-1.48418 -0.0644,-0.49339 -0.34205,-0.98284 -0.71815,-1.30862 -0.17177,-0.14879 -0.63835,-0.23938 -0.63835,-0.23938 z"
                 id="path5308"
                 inkscape:connector-curvature="0"
                 sodipodi:nodetypes="cssccsscc" />
            </g>
          </g>
        </g>
        <g
           id="g5243"
           transform="translate(5.9085365,-4.6123932)">
          <g
             id="g5196">
            <path
               style="fill:#664937;fill-opacity:1;fill-rule:evenodd;stroke:#2b1f17;stroke-width:1.5;stroke-linecap:butt;stroke-linejoin:miter;stroke-miterlimit:4;stroke-dasharray:none;stroke-opacity:1"
               d="m 199.30487,230.37584 c 0.01,-0.0391 -2.55957,-0.54919 -6.89324,0.2989 -1.44152,0.28211 -3.27818,0.34768 -4.95194,0.0311 -2.25123,-0.42579 -5.3404,-1.30374 -7.53315,-0.63957 -5.66712,1.71654 -7.75862,8.20864 -12.87752,11.18515 -10.74778,6.24956 -24.62696,7.34548 -35.57921,13.22936 -8.49078,4.56151 -15.77626,10.12567 -23.48583,15.91041 -2.65789,1.9943 -6.60886,3.46513 -8.048616,6.45991 -1.029287,2.14099 -0.490429,5.46134 0.309566,7.69814 0.69499,1.9432 2.69166,5.05597 3.71474,6.84828 4.26545,7.47255 5.88889,14.33208 9.906,21.94102 9.30521,17.62531 25.78844,28.47341 25.78844,28.47341 l 36.54731,-2.25537 c -1.9799,-20.42746 -10.79178,-30.4423 -19.3316,-36.76197 -5.12937,-3.79585 -10.32259,-5.39602 -14.80319,-9.61169 -1.96945,-1.85299 -3.54636,-4.72101 -5.35021,-7.64181 0,0 8.80503,-0.64107 13.23411,-3.15375 7.55752,-4.28749 12.94053,-13.34049 19.41777,-19.13222 1.67462,-1.49739 5.42556,-3.99777 5.42556,-3.99777 0,0 2.58779,1.71162 4.70467,1.54957 2.78742,-0.2134 4.28333,-2.90246 4.28333,-2.90246 l 0.10665,-19.74871 c 3.0957,0.40155 4.16668,-0.80067 5.09205,-0.83121 3.84717,-0.12695 3.91654,-0.0914 5.82318,-0.60383 2.74976,-0.73902 4.6324,-2.41734 4.50113,-6.34489 z"
               id="path5155"
               inkscape:connector-curvature="0"
               sodipodi:nodetypes="cssssssssssccsscsscsccssc" />
            <path
               style="fill:#785641;fill-opacity:1;fill-rule:evenodd;stroke:none;stroke-width:1.5;stroke-linecap:butt;stroke-linejoin:miter;stroke-miterlimit:4;stroke-dasharray:none;stroke-opacity:1"
               d="m 181.45303,237.2688 c 0.007,-1.38911 1.22982,-2.45784 2.60743,-2.2793 1.22228,0.15855 1.8134,0.017 2.33789,-0.15625 0.52449,-0.1732 0.948,-0.64607 2.38086,-0.69336 3.86243,-0.12745 3.434,-0.0237 5.30078,-0.52539 1.07889,-0.28996 1.71979,-0.6809 2.12109,-1.18554 0.14346,-0.1804 0.25189,-0.45811 0.36133,-0.73047 -1.00033,0.0118 -2.16146,0.0403 -3.83203,0.36719 -1.73838,0.3402 -3.7916,0.41802 -5.82617,0.0332 -1.22124,-0.23099 -2.50818,-0.54302 -3.6836,-0.71094 l 0,1.1e-4 c -1.1744,-0.16778 -2.21143,-0.14946 -2.75,0.0137 -2.13559,0.64686 -3.73275,2.25514 -5.55078,4.40235 -2.7788,4.13246 1.94399,8.80537 3.12206,8.99831 1.14208,0.18704 -1.37843,-3.98688 3.41114,-7.53361 z m -13.60921,91.39891 c -3.50313,-11.30902 -9.66742,-17.70604 -15.83699,-22.27168 -4.77956,-3.537 -12.41964,-7.19515 -17.3366,-11.82138 -2.38809,-2.24687 -13.84654,-8.73935 -15.6112,-11.59668 -0.91252,-1.47572 0.0664,-3.39318 1.79688,-3.51953 19.6169,-4.69711 28.04706,-9.04538 47.26478,-24.02801 1.99913,-1.78756 5.68164,-4.19726 5.68164,-4.19726 1.2537,-0.88935 0.56516,-7.22612 -1.95426,-5.88353 -12.41513,5.68785 -27.4898,7.64491 -37.83057,13.20028 -8.28621,4.45162 -15.47388,9.93049 -23.19336,15.72266 -3.10059,2.32649 -6.50085,3.84164 -7.35351,5.61524 -0.48907,1.0173 -1.71721,2.02014 -1.05071,3.88369 0.48603,1.35895 11.16971,0.2076 12.26321,2.12329 4.44201,7.78185 8.97992,14.67646 12.84945,22.00586 5.18084,9.81319 12.56535,17.38812 17.88564,22.04159 z"
               id="path5163"
               inkscape:connector-curvature="0"
               sodipodi:nodetypes="cccscsccsccccsccsscccccsssssscc" />
            <path
               style="fill:#89624a;fill-opacity:1;fill-rule:evenodd;stroke:none;stroke-width:1.5;stroke-linecap:butt;stroke-linejoin:miter;stroke-miterlimit:4;stroke-dasharray:none;stroke-opacity:1"
               d="m 171.74805,248.0918 -0.11719,0.0801 c -0.0155,0.011 -0.008,0.0126 -0.0234,0.0234 0.004,-0.002 0.14063,-0.10351 0.14063,-0.10351 z m -3.66993,2.71875 c -11.76232,4.43136 -24.18669,6.69718 -32.2832,11.04687 -7.95229,4.27223 -14.98505,9.61513 -22.71875,15.41797 14.28408,1.32888 50.63961,-21.5705 52.73633,-24.8067 l -0.19336,0.16211 c 0.98563,-0.88132 1.39793,-1.05267 2.45898,-1.82031 z m -46.61328,39.14648 c 3.23743,5.39496 6.46959,10.66228 9.38868,16.19141 11.82456,16.71249 27.97184,21.96508 31.56836,19.0664 -3.28086,-7.5329 -7.8064,-12.21754 -12.64844,-15.80078 -4.23723,-3.13566 -12.06504,-6.82648 -17.67578,-12.10547 -0.32582,-0.30655 -4.11442,-2.88427 -7.55274,-5.18164 -1.07493,-0.71823 -2.0614,-1.44408 -3.08008,-2.16992 z"
               id="path5181"
               inkscape:connector-curvature="0"
               sodipodi:nodetypes="ccccccsccccccccsssc" />
          </g>
          <g
             id="g5225">
            <g
               id="g5217"
               transform="matrix(0.9975211,0.07036798,-0.07036798,0.9975211,18.85439,3.5350216)">
              <path
                 style="fill:#664937;fill-opacity:1;fill-rule:evenodd;stroke:#2b1f17;stroke-width:1.5;stroke-linecap:butt;stroke-linejoin:miter;stroke-miterlimit:4;stroke-dasharray:none;stroke-opacity:1"
                 d="m 186.08846,242.26556 c 0.33477,0.50707 1.01067,0.75902 1.61099,0.85288 0.88767,0.13879 1.75581,-0.43428 2.65339,-0.47382 1.42568,-0.0628 1.33894,0.60378 2.76106,0.4851 0.74824,-0.0624 1.45529,-0.37067 2.17958,-0.56858 0.88733,-0.24246 1.02196,-0.18485 1.7861,-0.69693 1.27044,-0.85137 2.99094,-2.07888 2.84292,-3.60103 -0.16912,-1.73916 -2.15544,-3.25974 -3.88533,-3.50627 0,0 -2.05758,1.9656 -3.68138,2.40268 -1.64825,0.44366 -2.15808,-0.0864 -3.80347,0.36777 -1.07655,0.29715 -2.21957,0.3429 -2.74815,1.3267 -0.54008,1.00521 -0.34442,2.45921 0.28429,3.4115 z"
                 id="path5219"
                 inkscape:connector-curvature="0"
                 sodipodi:nodetypes="ssssssssssss" />
              <path
                 style="fill:#785641;fill-opacity:1;fill-rule:evenodd;stroke:none;stroke-width:1.5;stroke-linecap:butt;stroke-linejoin:miter;stroke-miterlimit:4;stroke-dasharray:none;stroke-opacity:1"
                 d="m 196.47105,236.2008 c -0.3207,0.21169 -0.41429,0.28772 -0.94335,0.60547 -0.98885,0.59388 -1.25122,1.20081 -2.47647,1.53062 -2.28284,0.61447 -2.78763,0.0875 -3.79161,0.36465 -0.67361,0.18593 -1.20096,0.2782 -1.45898,0.36914 -0.25802,0.0909 -0.16675,0.0482 -0.17969,0.0723 -0.11076,0.20615 -0.0561,1.17285 0.20117,1.5625 -0.12934,-0.1959 0.0665,0.015 0.38282,0.0645 -0.0203,-0.003 0.14163,-0.002 0.52929,-0.11719 0.38766,-0.11536 0.95873,-0.34336 1.76563,-0.37891 1.94999,-0.0859 1.83636,0.56206 2.69005,0.49082 0.35166,-0.0293 0.95792,-0.267 1.85351,-0.51172 1.21639,-0.33238 1.09441,-0.34632 1.25576,-0.45444 0.61498,-0.41213 1.26145,-0.88172 1.64648,-1.28907 0.38504,-0.40734 0.41047,-0.59528 0.40625,-0.63867 -0.0236,-0.24241 -0.25483,-0.70467 -0.73437,-1.11523 -0.34206,-0.29286 -0.75729,-0.41911 -1.14649,-0.55469 z"
                 id="path5221"
                 inkscape:connector-curvature="0"
                 sodipodi:nodetypes="ccsccccccscscccscc" />
              <path
                 style="fill:#a97c60;fill-opacity:1;fill-rule:evenodd;stroke:none;stroke-width:1px;stroke-linecap:butt;stroke-linejoin:miter;stroke-opacity:1"
                 d="m 187.1066,239.15598 c 0,0 -0.3477,0.52801 -0.36705,0.82986 -0.0323,0.50391 0.1165,1.05713 0.43089,1.45226 0.20171,0.25352 0.84582,0.47876 0.84582,0.47876 l 2.0906,-0.33513 c 0,0 0.43299,-0.97883 0.36706,-1.48418 -0.0644,-0.49339 -0.34205,-0.98284 -0.71815,-1.30862 -0.17177,-0.14879 -0.63835,-0.23938 -0.63835,-0.23938 z"
                 id="path5223"
                 inkscape:connector-curvature="0"
                 sodipodi:nodetypes="cssccsscc" />
            </g>
            <g
               transform="matrix(0.9975211,0.07036798,-0.07036798,0.9975211,18.85439,-2.0560533)"
               id="g5209">
              <path
                 sodipodi:nodetypes="ssssssssssss"
                 inkscape:connector-curvature="0"
                 id="path5211"
                 d="m 186.08846,242.26556 c 0.33477,0.50707 1.01067,0.75902 1.61099,0.85288 0.88767,0.13879 1.75581,-0.43428 2.65339,-0.47382 1.42568,-0.0628 1.74368,0.57523 3.1658,0.45655 0.74824,-0.0624 1.45529,-0.37067 2.17958,-0.56858 0.88733,-0.24246 1.88925,-0.24603 2.65339,-0.75811 1.27044,-0.85137 2.99094,-2.07888 2.84292,-3.60103 -0.16912,-1.73916 -2.15544,-3.25974 -3.88533,-3.50627 0,0 -2.92487,2.02678 -4.54867,2.46386 -1.64825,0.44366 -2.56282,-0.0578 -4.20821,0.39632 -1.07655,0.29715 -2.21957,0.3429 -2.74815,1.3267 -0.54008,1.00521 -0.34442,2.45921 0.28429,3.4115 z"
                 style="fill:#664937;fill-opacity:1;fill-rule:evenodd;stroke:#2b1f17;stroke-width:1.5;stroke-linecap:butt;stroke-linejoin:miter;stroke-miterlimit:4;stroke-dasharray:none;stroke-opacity:1" />
              <path
                 inkscape:connector-curvature="0"
                 id="path5213"
                 d="m 197.74308,236.11107 c -0.3207,0.21169 -0.41429,0.28772 -0.94335,0.60547 -0.98885,0.59388 -2.11851,1.26199 -3.34376,1.5918 -2.28284,0.61447 -3.19237,0.1161 -4.19635,0.3932 -0.67361,0.18593 -1.20096,0.2782 -1.45898,0.36914 -0.25802,0.0909 -0.16675,0.0482 -0.17969,0.0723 -0.11076,0.20615 -0.0561,1.17285 0.20117,1.5625 -0.12934,-0.1959 0.0665,0.015 0.38282,0.0645 -0.0203,-0.003 0.14163,-0.002 0.52929,-0.11719 0.38766,-0.11536 0.95873,-0.34336 1.76563,-0.37891 1.94999,-0.0859 2.2411,0.53351 3.09479,0.46227 0.35166,-0.0293 0.95792,-0.267 1.85351,-0.51172 1.21639,-0.33238 1.9617,-0.4075 2.12305,-0.51562 0.61498,-0.41213 1.26145,-0.88172 1.64648,-1.28907 0.38504,-0.40734 0.41047,-0.59528 0.40625,-0.63867 -0.0236,-0.24241 -0.25483,-0.70467 -0.73437,-1.11523 -0.34206,-0.29286 -0.75729,-0.41911 -1.14649,-0.55469 z"
                 style="fill:#785641;fill-opacity:1;fill-rule:evenodd;stroke:none;stroke-width:1.5;stroke-linecap:butt;stroke-linejoin:miter;stroke-miterlimit:4;stroke-dasharray:none;stroke-opacity:1"
                 sodipodi:nodetypes="ccsccccccscscccscc" />
              <path
                 sodipodi:nodetypes="cssccsscc"
                 inkscape:connector-curvature="0"
                 id="path5215"
                 d="m 187.1066,239.15598 c 0,0 -0.3477,0.52801 -0.36705,0.82986 -0.0323,0.50391 0.1165,1.05713 0.43089,1.45226 0.20171,0.25352 0.84582,0.47876 0.84582,0.47876 l 2.0906,-0.33513 c 0,0 0.43299,-0.97883 0.36706,-1.48418 -0.0644,-0.49339 -0.34205,-0.98284 -0.71815,-1.30862 -0.17177,-0.14879 -0.63835,-0.23938 -0.63835,-0.23938 z"
                 style="fill:#a97c60;fill-opacity:1;fill-rule:evenodd;stroke:none;stroke-width:1px;stroke-linecap:butt;stroke-linejoin:miter;stroke-opacity:1" />
            </g>
            <g
               id="g5201"
               transform="matrix(0.99949213,0.03186655,-0.03186655,0.99949213,8.678864,-0.504461)">
              <path
                 style="fill:#664937;fill-opacity:1;fill-rule:evenodd;stroke:#2b1f17;stroke-width:1.5;stroke-linecap:butt;stroke-linejoin:miter;stroke-miterlimit:4;stroke-dasharray:none;stroke-opacity:1"
                 d="m 186.08846,242.26556 c 0.33477,0.50707 1.01067,0.75902 1.61099,0.85288 0.88767,0.13879 1.75581,-0.43428 2.65339,-0.47382 1.42568,-0.0628 2.84225,0.49773 4.26437,0.37905 0.74824,-0.0624 1.45529,-0.37067 2.17958,-0.56858 0.88733,-0.24246 1.88925,-0.24603 2.65339,-0.75811 1.27044,-0.85137 2.99094,-2.07888 2.84292,-3.60103 -0.16912,-1.73916 -2.15544,-3.25974 -3.88533,-3.50627 0,0 -2.92487,2.02678 -4.54867,2.46386 -1.64825,0.44366 -3.66139,0.0197 -5.30678,0.47382 -1.07655,0.29715 -2.21957,0.3429 -2.74815,1.3267 -0.54008,1.00521 -0.34442,2.45921 0.28429,3.4115 z"
                 id="path5203"
                 inkscape:connector-curvature="0"
                 sodipodi:nodetypes="ssssssssssss" />
              <path
                 style="fill:#785641;fill-opacity:1;fill-rule:evenodd;stroke:none;stroke-width:1.5;stroke-linecap:butt;stroke-linejoin:miter;stroke-miterlimit:4;stroke-dasharray:none;stroke-opacity:1"
                 d="m 198.84165,236.03357 c -0.3207,0.21169 -0.41429,0.28772 -0.94335,0.60547 -0.98885,0.59388 -2.11851,1.26199 -3.34376,1.5918 -2.28284,0.61447 -4.29094,0.1936 -5.29492,0.4707 -0.67361,0.18593 -1.20096,0.2782 -1.45898,0.36914 -0.25802,0.0909 -0.16675,0.0482 -0.17969,0.0723 -0.11076,0.20615 -0.0561,1.17285 0.20117,1.5625 -0.12934,-0.1959 0.0665,0.015 0.38282,0.0645 -0.0203,-0.003 0.14163,-0.002 0.52929,-0.11719 0.38766,-0.11536 0.95873,-0.34336 1.76563,-0.37891 1.94999,-0.0859 3.33967,0.45601 4.19336,0.38477 0.35166,-0.0293 0.95792,-0.267 1.85351,-0.51172 1.21639,-0.33238 1.9617,-0.4075 2.12305,-0.51562 0.61498,-0.41213 1.26145,-0.88172 1.64648,-1.28907 0.38504,-0.40734 0.41047,-0.59528 0.40625,-0.63867 -0.0236,-0.24241 -0.25483,-0.70467 -0.73437,-1.11523 -0.34206,-0.29286 -0.75729,-0.41911 -1.14649,-0.55469 z"
                 id="path5205"
                 inkscape:connector-curvature="0" />
              <path
                 style="fill:#a97c60;fill-opacity:1;fill-rule:evenodd;stroke:none;stroke-width:1px;stroke-linecap:butt;stroke-linejoin:miter;stroke-opacity:1"
                 d="m 187.1066,239.15598 c 0,0 -0.3477,0.52801 -0.36705,0.82986 -0.0323,0.50391 0.1165,1.05713 0.43089,1.45226 0.20171,0.25352 0.84582,0.47876 0.84582,0.47876 l 2.0906,-0.33513 c 0,0 0.43299,-0.97883 0.36706,-1.48418 -0.0644,-0.49339 -0.34205,-0.98284 -0.71815,-1.30862 -0.17177,-0.14879 -0.63835,-0.23938 -0.63835,-0.23938 z"
                 id="path5207"
                 inkscape:connector-curvature="0"
                 sodipodi:nodetypes="cssccsscc" />
            </g>
            <g
               id="g5191">
              <path
                 sodipodi:nodetypes="ssssssssssss"
                 inkscape:connector-curvature="0"
                 id="path5157"
                 d="m 186.08846,242.26556 c 0.33477,0.50707 1.01067,0.75902 1.61099,0.85288 0.88767,0.13879 1.75581,-0.43428 2.65339,-0.47382 1.42568,-0.0628 2.84225,0.49773 4.26437,0.37905 0.74824,-0.0624 1.45529,-0.37067 2.17958,-0.56858 0.88733,-0.24246 1.88925,-0.24603 2.65339,-0.75811 1.27044,-0.85137 2.99094,-2.07888 2.84292,-3.60103 -0.16912,-1.73916 -2.15544,-3.25974 -3.88533,-3.50627 0,0 -2.92487,2.02678 -4.54867,2.46386 -1.64825,0.44366 -3.66139,0.0197 -5.30678,0.47382 -1.07655,0.29715 -2.21957,0.3429 -2.74815,1.3267 -0.54008,1.00521 -0.34442,2.45921 0.28429,3.4115 z"
                 style="fill:#664937;fill-opacity:1;fill-rule:evenodd;stroke:#2b1f17;stroke-width:1.5;stroke-linecap:butt;stroke-linejoin:miter;stroke-miterlimit:4;stroke-dasharray:none;stroke-opacity:1" />
              <path
                 inkscape:connector-curvature="0"
                 id="path5186"
                 d="m 198.84165,236.03357 c -0.3207,0.21169 -0.41429,0.28772 -0.94335,0.60547 -0.98885,0.59388 -2.11851,1.26199 -3.34376,1.5918 -2.28284,0.61447 -4.29094,0.1936 -5.29492,0.4707 -0.67361,0.18593 -1.20096,0.2782 -1.45898,0.36914 -0.25802,0.0909 -0.16675,0.0482 -0.17969,0.0723 -0.11076,0.20615 -0.0561,1.17285 0.20117,1.5625 -0.12934,-0.1959 0.0665,0.015 0.38282,0.0645 -0.0203,-0.003 0.14163,-0.002 0.52929,-0.11719 0.38766,-0.11536 0.95873,-0.34336 1.76563,-0.37891 1.94999,-0.0859 3.33967,0.45601 4.19336,0.38477 0.35166,-0.0293 0.95792,-0.267 1.85351,-0.51172 1.21639,-0.33238 1.9617,-0.4075 2.12305,-0.51562 0.61498,-0.41213 1.26145,-0.88172 1.64648,-1.28907 0.38504,-0.40734 0.41047,-0.59528 0.40625,-0.63867 -0.0236,-0.24241 -0.25483,-0.70467 -0.73437,-1.11523 -0.34206,-0.29286 -0.75729,-0.41911 -1.14649,-0.55469 z"
                 style="fill:#785641;fill-opacity:1;fill-rule:evenodd;stroke:none;stroke-width:1.5;stroke-linecap:butt;stroke-linejoin:miter;stroke-miterlimit:4;stroke-dasharray:none;stroke-opacity:1" />
              <path
                 sodipodi:nodetypes="cssccsscc"
                 inkscape:connector-curvature="0"
                 id="path5189"
                 d="m 187.1066,239.15598 c 0,0 -0.3477,0.52801 -0.36705,0.82986 -0.0323,0.50391 0.1165,1.05713 0.43089,1.45226 0.20171,0.25352 0.84582,0.47876 0.84582,0.47876 l 2.0906,-0.33513 c 0,0 0.43299,-0.97883 0.36706,-1.48418 -0.0644,-0.49339 -0.34205,-0.98284 -0.71815,-1.30862 -0.17177,-0.14879 -0.63835,-0.23938 -0.63835,-0.23938 z"
                 style="fill:#a97c60;fill-opacity:1;fill-rule:evenodd;stroke:none;stroke-width:1px;stroke-linecap:butt;stroke-linejoin:miter;stroke-opacity:1" />
            </g>
          </g>
        </g>
        <g
           id="g5366"
           transform="translate(5.5787578,-4.6123932)">
          <path
             sodipodi:nodetypes="csssssscsssc"
             inkscape:connector-curvature="0"
             id="path5341"
             d="m 228.66781,259.80827 c 0,0 -2.35186,-3.80154 -4.60932,-6.19377 -2.68238,-2.84252 -7.15116,-6.04597 -9.21864,-9.36268 -1.34494,-2.1576 -2.57482,-5.66221 -2.04311,-8.14845 1.48519,-6.94464 5.40016,-13.03877 9.67729,-17.20282 2.55716,-2.48954 6.83368,-2.92248 10.37097,-2.4487 2.70294,0.36203 5.15575,1.97644 7.34611,3.60103 5.42988,4.02733 13.82796,14.83625 13.82796,14.83625 0,0 -3.7979,-1.9371 -6.19377,-1.44041 -2.37177,0.49168 -5.05075,1.93489 -6.48186,3.88911 -3.6664,5.00655 -4.3712,12.19595 -7.92227,17.28495 -1.47859,2.11896 -4.75336,5.18549 -4.75336,5.18549 z"
             style="fill:#e1d8db;fill-opacity:1;fill-rule:evenodd;stroke:#6c5d53;stroke-width:1.5;stroke-linecap:butt;stroke-linejoin:miter;stroke-miterlimit:4;stroke-dasharray:none;stroke-opacity:1" />
          <path
             sodipodi:nodetypes="cccsssccsssscccsscc"
             inkscape:connector-curvature="0"
             id="path5363"
             d="m 233.61523,218.32031 c -3.32902,-0.44588 -7.14232,-0.008 -9.30078,2.09375 -3.99176,3.88623 -6.61302,6.78714 -8.02148,13.37305 -0.22718,1.06222 -0.10062,3.61459 0.25737,4.91929 0.358,1.30469 0.87619,2.63361 1.50391,3.64062 1.78483,2.86329 4.54342,4.70485 7.43359,7.76758 1.14758,1.21608 2.25606,2.70861 3.13282,3.95898 0.3626,0.51501 1.10311,0.57587 1.54492,0.12696 1.02301,-1.03999 1.92689,-1.83967 2.6875,-2.92969 1.1641,-1.66828 1.8279,-3.29832 2.38476,-4.90625 0.4418,-1.27573 0.8206,-2.5402 1.32813,-3.85352 0.64022,-1.65672 1.59677,-4.76346 3.04536,-6.74155 1.73358,-2.36725 4.55399,-3.82889 7.26367,-4.39062 -0.064,0.0133 0.0595,0.0605 0.5293,0.008 0.80441,-0.0898 1.18136,-1.04225 0.65625,-1.6582 -0.29153,-0.343 -0.24038,-0.30863 -0.58399,-0.70508 -2.72429,-3.14326 -4.60205,-5.48168 -7.11523,-7.34571 -2.16225,-1.60374 -4.41187,-3.04476 -6.7461,-3.35742 z"
             style="fill:#f2eff0;fill-opacity:1;fill-rule:evenodd;stroke:none;stroke-width:1.5;stroke-linecap:butt;stroke-linejoin:miter;stroke-miterlimit:4;stroke-dasharray:none;stroke-opacity:1" />
          <path
             sodipodi:nodetypes="csssscssssscsscc"
             inkscape:connector-curvature="0"
             id="path5345"
             d="m 233.48108,219.31996 c -3.11231,-0.41686 -6.72707,0.12839 -8.46094,1.81641 -3.97593,3.87081 -6.37085,6.45747 -7.74062,12.86245 -0.28745,1.34406 0.65983,4.70856 1.74609,6.45118 1.63189,2.61793 4.34391,4.46494 7.30951,7.6076 1.20696,1.27901 2.33579,2.80468 3.22461,4.07226 1.04548,-1.06283 1.90318,-1.83351 2.57813,-2.80078 1.09163,-1.56441 1.71633,-3.0867 2.2611,-4.65973 0.43224,-1.24812 -11.24034,-9.71893 -10.04394,-13.42993 1.73546,-5.38309 12.9354,5.99076 14.44143,3.93424 1.92117,-2.62339 4.96239,-4.17981 7.87305,-4.78321 0.2219,-0.046 0.40545,0.0162 0.62109,-0.008 -0.3073,-0.36155 -0.24899,-0.31946 -0.57813,-0.69922 -2.7349,-3.1555 -4.57241,-5.43048 -6.95209,-7.19549 -2.11631,-1.56967 -4.28739,-2.90117 -6.27929,-3.16797 z"
             style="fill:#ffffff;fill-opacity:1;fill-rule:evenodd;stroke:none;stroke-width:1.5;stroke-linecap:butt;stroke-linejoin:miter;stroke-miterlimit:4;stroke-dasharray:none;stroke-opacity:1" />
        </g>
      </g>
      <g
         style="display:inline;stroke-width:3.55264783;stroke-miterlimit:4;stroke-dasharray:none"
         id="g2481"
         transform="matrix(0.41154334,0,0,0.43317427,56.196966,91.467342)">
        <g
           style="stroke-width:3.55264783;stroke-miterlimit:4;stroke-dasharray:none"
           transform="translate(3.4089848,4.4737021e-8)"
           id="g3201">
          <g
             style="stroke-width:3.55264783;stroke-miterlimit:4;stroke-dasharray:none"
             id="g3172">
            <path
               id="path3168"
               d="m 208.76473,552.14851 c 0,0 -21.73115,-4.83171 -30.91324,-3.21177 -4.88031,0.861 -10.91215,4.22358 -14.85441,7.22648 -3.19067,2.4304 -6.21963,6.43006 -7.97433,10.03676 -2.3046,4.73698 -4.68874,11.7096 -4.64181,16.97723 0.0482,5.40892 2.4385,13.3498 4.75728,18.23673 2.532,5.3363 6.79177,9.95211 11.87356,12.96252 5.69082,3.37119 15.17257,5.20269 21.67942,4.01471 5.26282,-0.96085 11.3912,-3.52719 15.25588,-7.22648 1.25482,-1.20112 3.21177,-4.81765 3.21177,-4.81765 0,0 6.0598,3.734 8.83235,4.41618 2.57296,0.63308 5.0102,1.21331 7.62794,0.80294 3.49954,-0.5486 8.36926,-1.53962 11.24118,-3.61323 3.14451,-2.27043 6.23704,-8.04276 8.43088,-11.24118 2.2677,-3.3061 7.22648,-11.24118 7.22648,-11.24118 l -41.75295,-33.32206 z"
               style="fill:#f4d734;fill-opacity:1;fill-rule:evenodd;stroke:#6d611d;stroke-width:3.55264783;stroke-linecap:butt;stroke-linejoin:miter;stroke-miterlimit:4;stroke-dasharray:none;stroke-opacity:1"
               inkscape:connector-curvature="0" />
            <path
               style="fill:#6d611d;fill-opacity:1;fill-rule:evenodd;stroke:none;stroke-width:3.55264783;stroke-linecap:butt;stroke-linejoin:miter;stroke-miterlimit:4;stroke-dasharray:none;stroke-opacity:1"
               d="m 188.4375,585.1875 c -1.33005,-0.12114 -2.78495,0.10463 -4.15625,0.59375 -1.3713,0.48912 -2.67967,1.22665 -3.59375,2.375 -0.88486,1.11165 -1.17537,2.46891 -1.21875,3.8125 -0.0434,1.34359 0.19577,2.67161 0.78125,3.8125 0.85107,1.65839 2.01168,2.20119 3.37792,2.82389 0.50443,0.22991 1.31429,0.61951 2.07436,0.77588 1.29854,0.26714 2.97898,0.36898 2.97898,0.36898 0,0 -1.25097,-0.73811 -2.22906,-1.55343 -0.64061,-0.53401 -0.97115,-1.18386 -1.42942,-1.39273 -1.15796,-0.52777 -1.74304,-2.37921 -1.82681,-2.54245 -0.24667,-0.48068 -0.25021,-0.53397 -0.22097,-1.43951 0.0292,-0.90554 0.31228,-1.7169 0.5625,-2.03125 0.36767,-0.4619 1.24238,-1.04685 2.25,-1.40625 1.00762,-0.3594 2.15543,-0.53428 2.875,-0.46875 2.01416,0.18344 3.5271,1.49378 5.29062,3.36249 0.71232,0.75482 1.64617,2.37159 2.28438,3.90938 0.63821,1.53779 2.26299,3.22298 3.29375,4.625 0.91097,1.23908 2.50086,2.83421 3.9375,4.21875 1.43664,1.38454 2.6875,2.5 2.6875,2.5 l 2,-2.21875 c 0,0 -1.19663,-1.09105 -2.59375,-2.4375 -1.39712,-1.34645 -3.02258,-3.02436 -3.625,-3.84375 -0.66051,-0.89842 -1.28036,-2.38535 -1.9375,-3.96875 -0.65714,-1.5834 -1.3464,-3.27199 -2.59375,-4.59375 -2.09254,-2.21737 -5.38778,-4.95512 -8.96875,-5.28125 z"
               id="path2381"
               sodipodi:nodetypes="csssssscsssssssssssccssssc"
               inkscape:connector-curvature="0" />
          </g>
        </g>
        <g
           style="stroke-width:3.55264783;stroke-miterlimit:4;stroke-dasharray:none"
           transform="matrix(-0.943839,-0.3304056,0.3304056,-0.943839,498.89276,1193.9971)"
           id="g3214">
          <g
             style="stroke-width:3.55264783;stroke-miterlimit:4;stroke-dasharray:none"
             id="g3216">
            <path
               id="path3218"
               d="m 208.76473,552.14851 c 0,0 -21.73115,-4.83171 -30.91324,-3.21177 -4.88031,0.861 -10.91215,4.22358 -14.85441,7.22648 -3.19067,2.4304 -6.21963,6.43006 -7.97433,10.03676 -2.3046,4.73698 -4.68874,11.7096 -4.64181,16.97723 0.0482,5.40892 2.4385,13.3498 4.75728,18.23673 2.532,5.3363 6.79177,9.95211 11.87356,12.96252 5.69082,3.37119 15.17257,5.20269 21.67942,4.01471 5.26282,-0.96085 11.3912,-3.52719 15.25588,-7.22648 1.25482,-1.20112 3.21177,-4.81765 3.21177,-4.81765 0,0 6.0598,3.734 8.83235,4.41618 2.57296,0.63308 5.0102,1.21331 7.62794,0.80294 3.49954,-0.5486 8.36926,-1.53962 11.24118,-3.61323 3.14451,-2.27043 6.23704,-8.04276 8.43088,-11.24118 2.2677,-3.3061 7.22648,-11.24118 7.22648,-11.24118 l -41.75295,-33.32206 z"
               style="fill:#2964c9;fill-opacity:1;fill-rule:evenodd;stroke:#143162;stroke-width:3.55264783;stroke-linecap:butt;stroke-linejoin:miter;stroke-miterlimit:4;stroke-dasharray:none;stroke-opacity:1"
               inkscape:connector-curvature="0" />
            <path
               style="fill:#143162;fill-opacity:1;fill-rule:evenodd;stroke:none;stroke-width:3.55264783;stroke-linecap:butt;stroke-linejoin:miter;stroke-miterlimit:4;stroke-dasharray:none;stroke-opacity:1"
               d="m 188.4375,585.1875 c -1.33005,-0.12114 -2.78495,0.10463 -4.15625,0.59375 -1.3713,0.48912 -2.67967,1.22665 -3.59375,2.375 -0.88486,1.11165 -1.17537,2.46891 -1.21875,3.8125 -0.0434,1.34359 0.19577,2.67161 0.78125,3.8125 0.85107,1.65839 2.01168,2.20119 3.37792,2.82389 0.50443,0.22991 1.31429,0.61951 2.07436,0.77588 1.29854,0.26714 2.97898,0.36898 2.97898,0.36898 0,0 -1.25097,-0.73811 -2.22906,-1.55343 -0.64061,-0.53401 -0.97115,-1.18386 -1.42942,-1.39273 -1.15796,-0.52777 -1.74304,-2.37921 -1.82681,-2.54245 -0.24667,-0.48068 -0.25021,-0.53397 -0.22097,-1.43951 0.0292,-0.90554 0.31228,-1.7169 0.5625,-2.03125 0.36767,-0.4619 1.24238,-1.04685 2.25,-1.40625 1.00762,-0.3594 2.15543,-0.53428 2.875,-0.46875 2.01416,0.18344 3.5271,1.49378 5.29062,3.36249 0.71232,0.75482 1.64617,2.37159 2.28438,3.90938 0.63821,1.53779 2.26299,3.22298 3.29375,4.625 0.91097,1.23908 2.50086,2.83421 3.9375,4.21875 1.43664,1.38454 2.6875,2.5 2.6875,2.5 l 2,-2.21875 c 0,0 -1.19663,-1.09105 -2.59375,-2.4375 -1.39712,-1.34645 -3.02258,-3.02436 -3.625,-3.84375 -0.66051,-0.89842 -1.28036,-2.38535 -1.9375,-3.96875 -0.65714,-1.5834 -1.3464,-3.27199 -2.59375,-4.59375 -2.09254,-2.21737 -5.38778,-4.95512 -8.96875,-5.28125 z"
               id="path3220"
               sodipodi:nodetypes="csssssscsssssssssssccssssc"
               inkscape:connector-curvature="0" />
            <g
               id="g4502"
               transform="translate(1.8793104,-0.65788201)" />
          </g>
        </g>
        <g
           style="stroke-width:3.55264783;stroke-miterlimit:4;stroke-dasharray:none"
           id="g3246">
          <g
             style="stroke-width:3.55264783;stroke-miterlimit:4;stroke-dasharray:none"
             id="g3226">
            <g
               style="stroke-width:3.55264783;stroke-miterlimit:4;stroke-dasharray:none"
               transform="translate(64.912762,-5.7850864)"
               id="g3176">
              <path
                 style="fill:#f4d734;fill-opacity:1;fill-rule:evenodd;stroke:#6d611d;stroke-width:3.55264783;stroke-linecap:butt;stroke-linejoin:miter;stroke-miterlimit:4;stroke-dasharray:none;stroke-opacity:1"
                 d="m 195.11783,551.13237 c 0,0 7.89546,-4.48269 11.42036,-5.50541 4.01709,-1.16552 9.83299,-1.39315 13.93137,-0.55726 3.44379,0.70239 8.09028,3.35025 8.09028,3.35025 0,0 4.40641,-4.51173 6.60648,-5.92839 3.79766,-2.44536 8.78645,-2.25998 13.1727,-1.18165 3.92654,0.96531 11.39607,3.90958 14.65431,6.30403 5.14732,3.78274 12.14675,4.92837 16.1982,9.86697 3.09206,3.76911 5.17285,7.36084 8.48486,12.47077 1.88889,2.91427 5.50221,10.69385 7.07151,12.989 4.37826,6.40335 7.9701,17.73868 7.9701,17.73868 0,0 -8.38192,3.78168 -13.09648,4.80716 -3.75721,0.81724 -6.69731,0.97025 -10.28368,-0.41626 -2.31806,-0.89618 -6.96233,-4.94815 -6.96233,-4.94815 0,0 -5.8376,5.26685 -8.50721,6.05092 -3.68923,1.08353 -9.93375,0.93905 -13.71168,0.22371 -3.70808,-0.70211 -8.21728,-1.80792 -11.33952,-3.92792 -5.87114,-3.98648 -9.6775,-7.80735 -14.10032,-13.35721 -2.41757,-3.03363 -5.58467,-10.29418 -8.43162,-15.48723 -1.94672,-3.55097 -5.41428,-8.20965 -7.07186,-10.28046 -3.16,-3.94779 -6.25501,-5.72428 -9.77842,-9.35143 -1.15314,-1.18709 -4.31705,-2.86012 -4.31705,-2.86012 z"
                 id="path3179"
                 sodipodi:nodetypes="csscsssssscsscsssssssc"
                 inkscape:connector-curvature="0" />
              <path
                 style="fill:#6d611d;fill-opacity:1;fill-rule:evenodd;stroke:none;stroke-width:3.55264783;stroke-linecap:butt;stroke-linejoin:miter;stroke-miterlimit:4;stroke-dasharray:none;stroke-opacity:1"
                 d="m 228.8125,546.53125 -1.90625,3.28125 c 0,0 7.87994,4.6478 10.40625,6.78125 2.62682,2.21832 11.09889,10.23088 11.09889,10.23088 0,0 -1.86907,-4.63091 -4.10423,-8.20196 -1.49474,-2.38811 -3.15321,-3.77594 -4.52591,-4.93517 -3.32489,-2.80784 -10.96875,-7.15625 -10.96875,-7.15625 z"
                 id="path3181"
                 sodipodi:nodetypes="ccscssc"
                 inkscape:connector-curvature="0" />
              <path
                 style="fill:#6d611d;fill-opacity:1;fill-rule:evenodd;stroke:none;stroke-width:3.55264783;stroke-linecap:butt;stroke-linejoin:miter;stroke-miterlimit:4;stroke-dasharray:none;stroke-opacity:1"
                 d="m 255.57648,579.53096 c 0,0 0.76477,3.50253 3.03301,7.53499 1.87489,3.33314 5.12885,7.12888 6.70301,8.7153 2.20631,2.22349 6.16043,5.93206 6.16043,5.93206 l 4.4495,-1.09124 c 0,0 -7.58886,-6.8649 -9.19184,-8.48038 -2.87525,-2.89762 -11.15411,-12.61073 -11.15411,-12.61073 z"
                 id="path3183"
                 sodipodi:nodetypes="cssccsc"
                 inkscape:connector-curvature="0" />
            </g>
            <g
               style="stroke-width:3.55264735;stroke-miterlimit:4;stroke-dasharray:none"
               transform="matrix(0.9985621,0.05360856,-0.05360856,0.9985621,164.86227,-17.983012)"
               id="g3185">
              <path
                 style="fill:#2964c9;fill-opacity:1;fill-rule:evenodd;stroke:#143162;stroke-width:3.55264735;stroke-linecap:butt;stroke-linejoin:miter;stroke-miterlimit:4;stroke-dasharray:none;stroke-opacity:1"
                 d="m 194.64873,551.39927 c 0,0 8.36456,-4.74959 11.88946,-5.77231 4.01709,-1.16552 9.83299,-1.39315 13.93137,-0.55726 3.44379,0.70239 8.09028,3.35025 8.09028,3.35025 0,0 4.40641,-4.51173 6.60648,-5.92839 3.79766,-2.44536 8.78645,-2.25998 13.1727,-1.18165 3.92654,0.96531 7.81972,3.66821 11.07796,6.06266 5.14732,3.78274 12.26287,7.20677 16.31432,12.14537 3.09206,3.76911 4.88733,6.21877 8.19934,11.3287 1.88889,2.91427 4.36013,7.83865 5.92943,10.1338 4.37826,6.40335 12.85793,19.69892 12.85793,19.69892 0,0 -8.38192,3.78168 -13.09648,4.80716 -3.75721,0.81724 -6.69731,0.97025 -10.28368,-0.41626 -2.31806,-0.89618 -6.96233,-4.94815 -6.96233,-4.94815 0,0 -5.8376,5.26685 -8.50721,6.05092 -3.68923,1.08353 -9.93375,0.93905 -13.71168,0.22371 -3.70808,-0.70211 -8.21728,-1.80792 -11.33952,-3.92792 -5.87114,-3.98648 -10.1466,-7.54045 -14.56942,-13.09031 -2.41757,-3.03363 -5.58467,-10.29418 -8.43162,-15.48723 -1.94672,-3.55097 -5.41428,-8.20965 -7.07186,-10.28046 -3.16,-3.94779 -6.25501,-5.72428 -9.77842,-9.35143 -1.15314,-1.18709 -4.31705,-2.86012 -4.31705,-2.86012 z"
                 id="path3187"
                 sodipodi:nodetypes="csscsssssscsscsssssssc"
                 inkscape:connector-curvature="0" />
              <path
                 style="fill:#143162;fill-opacity:1;fill-rule:evenodd;stroke:none;stroke-width:3.55264735;stroke-linecap:butt;stroke-linejoin:miter;stroke-miterlimit:4;stroke-dasharray:none;stroke-opacity:1"
                 d="m 228.8125,546.53125 -1.90625,3.28125 c 0,0 7.87994,4.6478 10.40625,6.78125 2.62682,2.21832 11.09889,10.23088 11.09889,10.23088 0,0 -1.86907,-4.63091 -4.10423,-8.20196 -1.49474,-2.38811 -3.15321,-3.77594 -4.52591,-4.93517 -3.32489,-2.80784 -10.96875,-7.15625 -10.96875,-7.15625 z"
                 id="path3189"
                 sodipodi:nodetypes="ccscssc"
                 inkscape:connector-curvature="0" />
              <path
                 style="fill:#143162;fill-opacity:1;fill-rule:evenodd;stroke:none;stroke-width:3.55264735;stroke-linecap:butt;stroke-linejoin:miter;stroke-miterlimit:4;stroke-dasharray:none;stroke-opacity:1"
                 d="m 255.57648,579.53096 c 0,0 0.76477,3.50253 3.03301,7.53499 1.87489,3.33314 5.12885,7.12888 6.70301,8.7153 2.20631,2.22349 6.16043,5.93206 6.16043,5.93206 l 4.4495,-1.09124 c 0,0 -7.58886,-6.8649 -9.19184,-8.48038 -2.87525,-2.89762 -11.15411,-12.61073 -11.15411,-12.61073 z"
                 id="path3191"
                 sodipodi:nodetypes="cssccsc"
                 inkscape:connector-curvature="0" />
            </g>
          </g>
          <g
             style="stroke-width:3.55264783;stroke-miterlimit:4;stroke-dasharray:none"
             id="g3236">
            <g
               style="stroke-width:3.55264783;stroke-miterlimit:4;stroke-dasharray:none"
               transform="translate(3.4089848,0.1824777)"
               id="g3167">
              <path
                 style="fill:#2964c9;fill-opacity:1;fill-rule:evenodd;stroke:#143162;stroke-width:3.55264783;stroke-linecap:butt;stroke-linejoin:miter;stroke-miterlimit:4;stroke-dasharray:none;stroke-opacity:1"
                 d="m 195.29738,549.69594 c 0,0 7.71591,-3.04626 11.24081,-4.06898 4.01709,-1.16552 9.83299,-1.39315 13.93137,-0.55726 3.44379,0.70239 8.09028,3.35025 8.09028,3.35025 0,0 4.40641,-4.51173 6.60648,-5.92839 3.79766,-2.44536 8.78645,-2.25998 13.1727,-1.18165 3.92654,0.96531 7.81972,3.66821 11.07796,6.06266 5.14732,3.78274 10.71915,8.92564 14.7706,13.86424 3.09206,3.76911 4.88733,6.21877 8.19934,11.3287 1.88889,2.91427 4.36013,7.83865 5.92943,10.1338 4.37826,6.40335 14.40165,17.98005 14.40165,17.98005 0,0 -8.38192,3.78168 -13.09648,4.80716 -3.75721,0.81724 -6.69731,0.97025 -10.28368,-0.41626 -2.31806,-0.89618 -6.96233,-4.94815 -6.96233,-4.94815 0,0 -5.8376,5.26685 -8.50721,6.05092 -3.68923,1.08353 -9.93375,0.93905 -13.71168,0.22371 -3.70808,-0.70211 -8.21728,-1.80792 -11.33952,-3.92792 -5.87114,-3.98648 -9.6775,-7.80735 -14.10032,-13.35721 -2.41757,-3.03363 -5.58467,-10.29418 -8.43162,-15.48723 -1.94672,-3.55097 -5.41428,-8.20965 -7.07186,-10.28046 -3.16,-3.94779 -6.07546,-7.16071 -9.59887,-10.78786 -1.15314,-1.18709 -4.31705,-2.86012 -4.31705,-2.86012 z"
                 id="path3178"
                 sodipodi:nodetypes="csscsssssscsscsssssssc"
                 inkscape:connector-curvature="0" />
              <path
                 style="fill:#143162;fill-opacity:1;fill-rule:evenodd;stroke:none;stroke-width:3.55264783;stroke-linecap:butt;stroke-linejoin:miter;stroke-miterlimit:4;stroke-dasharray:none;stroke-opacity:1"
                 d="m 228.8125,546.53125 -1.90625,3.28125 c 0,0 7.87994,4.6478 10.40625,6.78125 2.62682,2.21832 11.09889,10.23088 11.09889,10.23088 0,0 -1.86907,-4.63091 -4.10423,-8.20196 -1.49474,-2.38811 -3.15321,-3.77594 -4.52591,-4.93517 -3.32489,-2.80784 -10.96875,-7.15625 -10.96875,-7.15625 z"
                 id="path2385"
                 sodipodi:nodetypes="ccscssc"
                 inkscape:connector-curvature="0" />
              <path
                 style="fill:#143162;fill-opacity:1;fill-rule:evenodd;stroke:none;stroke-width:3.55264783;stroke-linecap:butt;stroke-linejoin:miter;stroke-miterlimit:4;stroke-dasharray:none;stroke-opacity:1"
                 d="m 255.57648,579.53096 c 0,0 0.76477,3.50253 3.03301,7.53499 1.87489,3.33314 5.12885,7.12888 6.70301,8.7153 2.20631,2.22349 6.16043,5.93206 6.16043,5.93206 l 4.4495,-1.09124 c 0,0 -7.58886,-6.8649 -9.19184,-8.48038 -2.87525,-2.89762 -11.15411,-12.61073 -11.15411,-12.61073 z"
                 id="path2387"
                 sodipodi:nodetypes="cssccsc"
                 inkscape:connector-curvature="0" />
            </g>
            <g
               style="stroke-width:3.55264783;stroke-miterlimit:4;stroke-dasharray:none"
               transform="matrix(0.9924533,0.122623,-0.122623,0.9924533,273.01798,-25.343273)"
               id="g3193">
              <path
                 style="fill:#f4d734;fill-opacity:1;fill-rule:evenodd;stroke:#6d611d;stroke-width:3.55264783;stroke-linecap:butt;stroke-linejoin:miter;stroke-miterlimit:4;stroke-dasharray:none;stroke-opacity:1"
                 d="m 195.11783,551.13237 c 0,0 7.89546,-4.48269 11.42036,-5.50541 4.01709,-1.16552 9.83299,-1.39315 13.93137,-0.55726 3.44379,0.70239 8.09028,3.35025 8.09028,3.35025 0,0 4.40641,-4.51173 6.60648,-5.92839 3.79766,-2.44536 8.78645,-2.25998 13.1727,-1.18165 3.92654,0.96531 7.81972,3.66821 11.07796,6.06266 5.14732,3.78274 10.71915,8.92564 14.7706,13.86424 3.09206,3.76911 4.88733,6.21877 8.19934,11.3287 1.88889,2.91427 3.7803,8.90683 5.3496,11.20198 1.61863,2.3673 3.45119,5.80245 5.64856,9.1268 3.74633,5.66772 7.99676,10.79741 7.99676,10.79741 0,0 -7.55467,1.25931 -12.26923,2.28479 -3.75721,0.81724 -6.1884,0.48028 -9.77477,-0.90623 -2.31806,-0.89618 -6.96233,-4.94815 -6.96233,-4.94815 0,0 -5.8376,5.26685 -8.50721,6.05092 -3.68923,1.08353 -9.93375,0.93905 -13.71168,0.22371 -3.70808,-0.70211 -8.21728,-1.80792 -11.33952,-3.92792 -5.87114,-3.98648 -9.6775,-7.80735 -14.10032,-13.35721 -2.41757,-3.03363 -5.58467,-10.29418 -8.43162,-15.48723 -1.94672,-3.55097 -5.41428,-8.20965 -7.07186,-10.28046 -3.16,-3.94779 -6.25501,-5.72428 -9.77842,-9.35143 -1.15314,-1.18709 -4.31705,-2.86012 -4.31705,-2.86012 z"
                 id="path3195"
                 sodipodi:nodetypes="csscssssssscsscsssssssc"
                 inkscape:connector-curvature="0" />
              <path
                 style="fill:#6d611d;fill-opacity:1;fill-rule:evenodd;stroke:none;stroke-width:3.55264783;stroke-linecap:butt;stroke-linejoin:miter;stroke-miterlimit:4;stroke-dasharray:none;stroke-opacity:1"
                 d="m 228.8125,546.53125 -1.90625,3.28125 c 0,0 7.87994,4.6478 10.40625,6.78125 2.62682,2.21832 11.09889,10.23088 11.09889,10.23088 0,0 -1.86907,-4.63091 -4.10423,-8.20196 -1.49474,-2.38811 -3.15321,-3.77594 -4.52591,-4.93517 -3.32489,-2.80784 -10.96875,-7.15625 -10.96875,-7.15625 z"
                 id="path3197"
                 sodipodi:nodetypes="ccscssc"
                 inkscape:connector-curvature="0" />
              <path
                 style="fill:#6d611d;fill-opacity:1;fill-rule:evenodd;stroke:none;stroke-width:3.55264783;stroke-linecap:butt;stroke-linejoin:miter;stroke-miterlimit:4;stroke-dasharray:none;stroke-opacity:1"
                 d="m 255.57648,579.53096 c 0,0 0.76477,3.50253 3.03301,7.53499 1.87489,3.33314 5.12885,7.12888 6.70301,8.7153 2.20631,2.22349 6.16043,5.93206 6.16043,5.93206 l 4.4495,-1.09124 c 0,0 -7.58886,-6.8649 -9.19184,-8.48038 -2.87525,-2.89762 -11.15411,-12.61073 -11.15411,-12.61073 z"
                 id="path3199"
                 sodipodi:nodetypes="cssccsc"
                 inkscape:connector-curvature="0" />
            </g>
          </g>
        </g>
      </g>
    </g>
  </g>
</svg>
